<svg id="Component_14_1" data-name="Component 14 – 1" xmlns="http://www.w3.org/2000/svg" width="1932" height="842" viewBox="0 0 1932 842">
  <rect id="Rectangle_21" data-name="Rectangle 21" width="1932" height="842" fill="#fef1e9"/>
  <g id="swastik" transform="translate(1707.798 533.499)" opacity="0.2">
    <path id="Path_4449" data-name="Path 4449" d="M35.83,348.632a3.761,3.761,0,0,1,1.87-.933,33.906,33.906,0,0,1,7.078-.581,5.936,5.936,0,0,1,5.358,4.44,4.569,4.569,0,0,1-2.25,5.3,6.019,6.019,0,0,1-6.934-.764c-2-1.773-3.2-4.2-5.121-6.037ZM45.1,354.7c.965-.061,2.135-.359,2.283-1.737a2.608,2.608,0,0,0-2.114-2.9,13.725,13.725,0,0,0-4.608.093c-.323.032-.549.165-.5.563C40.3,351.822,43.676,354.693,45.1,354.7Z" transform="translate(-35.856 -321.793)" fill="#f26000" stroke="#6c757d" stroke-width="1"/>
    <path id="Path_4450" data-name="Path 4450" d="M198.625,505.592c-1.794-1.794-4.041-3.087-5.811-4.938a5.725,5.725,0,0,1-1.436-5.767,4.782,4.782,0,0,1,4.759-3.819c2.247.057,4.953,2.049,5.279,4.135a25.789,25.789,0,0,1-.657,9.385c-.079.359-.459.671-.7,1Zm.226-7.648c.065-2.193-.718-3.5-2.222-3.948a1.8,1.8,0,0,0-2.24.948c-.786,1.364-.416,2.821,1.163,4.2.869.757,1.82,2.283,2.728,1.906s.345-2.114.578-3.108Z" transform="translate(-135.424 -414.098)" fill="#f26000" stroke="#6c757d" stroke-width="1"/>
    <path id="Path_4451" data-name="Path 4451" d="M35.8,450.346c.747-.2.836-1.077,1.436-1.436.879.944,1.766,1.884,2.638,2.835,1.037,1.127,0,1.023-.675,1.12a4.16,4.16,0,0,1-3.413-1.109Z" transform="translate(-35.83 -387.072)" fill="#f26000" stroke="#6c757d" stroke-width="1"/>
    <path id="Path_4452" data-name="Path 4452" d="M111.334,521.943c-.319.632-1.245.657-1.436,1.436h-1.436c-1.1-1.2-1.048-2.7-1.113-4.178.359-.761.739-.262,1.077.032C109.406,520.12,110.365,521.025,111.334,521.943Z" transform="translate(-81.707 -431.878)" fill="#f26000" stroke="#6c757d" stroke-width="1"/>
    <path id="Path_4453" data-name="Path 4453" d="M256.943,442.338a5.831,5.831,0,0,1-4.8-1.525c-2.2-2.1-2.6-5.147-.869-7.178a5.97,5.97,0,0,1,7.63-.818A26.864,26.864,0,0,1,264.4,439.3c.718,1.1.24,2.01-1.163,2.3A36.714,36.714,0,0,1,256.943,442.338Zm.3-2.853c2.563-.115,3.23-.244,3.158-.546a6.524,6.524,0,0,0-1.744-2.419,7.51,7.51,0,0,0-1.407-1.357,2.932,2.932,0,0,0-3.844.607c-.635,1-.075,2.512,1.2,3.338a4.565,4.565,0,0,0,2.616.377Z" transform="translate(-173.284 -376.1)" fill="#f26000" stroke="#6c757d" stroke-width="1"/>
    <path id="Path_4454" data-name="Path 4454" d="M201.357,284.726a5.811,5.811,0,0,1-1.364,4.393c-1.938,2.229-4.913,2.771-7.024,1.224a5.812,5.812,0,0,1-1.22-7.58,23.65,23.65,0,0,1,6.762-5.742c1.041-.671,1.848-.1,2.089,1.077A36.772,36.772,0,0,1,201.357,284.726Zm-2.8-.718c-.24-.912.359-2.473-.581-2.817-.818-.305-1.68,1.055-2.484,1.726a6.682,6.682,0,0,0-1.321,1.418,2.881,2.881,0,0,0,.7,3.794c1.095.6,2.918-.183,3.5-1.572A6.6,6.6,0,0,0,198.558,284.008Z" transform="translate(-135.234 -276.69)" fill="#f26000" stroke="#6c757d" stroke-width="1"/>
    <path id="Path_4455" data-name="Path 4455" d="M160.993,296.687a33.4,33.4,0,0,1,3.926,5.9,6.075,6.075,0,0,0,3.948,3.456,9.937,9.937,0,0,1,1.619.718c1.436,1.83,1.436,1.83-.467,2.871a38.208,38.208,0,0,0-8.47-2.939c-.52-.571-1.023-1.152-1.558-1.7-1.008-1.041-.169-1.077.614-1.159.5-.151,1.044.255,1.6-.136-1.346-2.387-2.975-4.58-4.526-6.819-.7-1.012-1.077-.718-1.622.083s-1.145,1.515-1.723,2.268c-1.224-.757-1.27-1.554-.14-2.48.592-.485,1.077-1.077,1.644-1.622,1.54-1.515,1.891-1.5,3.191.161A2.83,2.83,0,0,0,160.993,296.687Z" transform="translate(-111.218 -287.765)" fill="#f26000" stroke="#6c757d" stroke-width="1"/>
    <path id="Path_4456" data-name="Path 4456" d="M220.887,450.087a65.238,65.238,0,0,1,1.82,10.171c.176,1.411-.413,2.2-1.934,1.985a64.452,64.452,0,0,1-8.427-1.464c-.772-.829-1.55-1.644-2.3-2.487-.309-.359-.567-.754.258-.739,2.616.484,5.236.944,7.842,1.468,1.227.248,1.583-.14,1.339-1.349-.52-2.606-.973-5.226-1.454-7.842-.039-1.529.6-1.64,1.669-.775C220.1,449.383,220.489,449.742,220.887,450.087Z" transform="translate(-147.353 -386.816)" fill="#f26000" stroke="#6c757d" stroke-width="1"/>
    <path id="Path_4457" data-name="Path 4457" d="M212.071,322.975a59.846,59.846,0,0,1,8.614-1.464c1.766-.2,2.322.359,2.085,2.153a61.476,61.476,0,0,1-1.759,9.629c-.434.359-.876.718-1.3,1.109-.811.718-1.314.484-1.6-.488.492-2.674.965-5.351,1.479-8.018.2-1.041-.108-1.4-1.181-1.192-2.667.524-5.344.994-8.018,1.486-.93-.452-.409-.922,0-1.371C210.934,324.174,211.5,323.585,212.071,322.975Z" transform="translate(-147.434 -305.371)" fill="#f26000" stroke="#6c757d" stroke-width="1"/>
    <path id="Path_4458" data-name="Path 4458" d="M260.032,349.4c1.177.129,2.369.179,3.528.4,1.436.28,1.848,1.285.994,2.476a38.163,38.163,0,0,1-4.379,5.154,5.7,5.7,0,0,1-5.94,1.317c-3.589-1.034-4.59-4.124-2.394-7.2l2.257,1.468c-.467.887-.84,1.795.194,2.53a2.862,2.862,0,0,0,3.5.075,10.882,10.882,0,0,0,2.943-3.252c-.7-.477-1.461-.3-2.132-.51C258.335,350.6,259.677,350.294,260.032,349.4Z" transform="translate(-173.599 -323.276)" fill="#f26000" stroke="#6c757d" stroke-width="1"/>
    <path id="Path_4459" data-name="Path 4459" d="M126.277,315.711c3.467-.581,4.242-3.815,6-6.083,1.077-.894,2.153-1.694,3.406-.3l-2.336,3.908,3.948-.388c.287-.151.359-.754.775-.52.3.169.083.546-.111.757-1.1,1.206-2.153,2.473-3.826,2.954a42.537,42.537,0,0,0-7.792,2.573c-1.156-.384-1.795-.922-.639-2.042A4.95,4.95,0,0,0,126.277,315.711Z" transform="translate(-93.08 -297.102)" fill="#f26000" stroke="#6c757d" stroke-width="1"/>
    <path id="Path_4460" data-name="Path 4460" d="M100.365,327.292a4.95,4.95,0,0,1-.563.861c-1.141,1.12-.517,1.658.639,2.042a30.714,30.714,0,0,0-11.463,11.126c-.359-1.231-.951-1.644-1.913-.481a3.711,3.711,0,0,1-1.36,1.1c.621-1.256-.151-2.369-.359-3.535-.212-1.077-.449-2.153-.675-3.248.865.808,1.741,1.608,2.595,2.423a1.171,1.171,0,0,0,1.7.233c3.948-2.731,4.012-4.167.23-6.984a1.105,1.105,0,0,1,1.676-.276,17.941,17.941,0,0,1,1.766,1.665c-.144,1.059.441,1.1,1.12.718a7.141,7.141,0,0,0,1.288-1.184c2.512-2.512,2.512-2.512.334-5.111C97.066,326.6,98.574,328.01,100.365,327.292Z" transform="translate(-67.167 -308.683)" fill="#f26000" stroke="#6c757d" stroke-width="1"/>
    <path id="Path_4461" data-name="Path 4461" d="M180.933,473.592a9.749,9.749,0,0,0-6.607,5.986,11.857,11.857,0,0,1-1.3,1.881,4.127,4.127,0,0,1-1.794-2.24c.477-.858.955-1.719,1.511-2.713h-1.665c-.474-.136-1.177.215-1.4-.395-.172-.481.42-.775.718-1.077.5-.484,1.048-.922,1.576-1.378a38.447,38.447,0,0,0,8.466-2.947C182.437,471.643,182.444,471.686,180.933,473.592Z" transform="translate(-121.65 -401.048)" fill="#f26000" stroke="#6c757d" stroke-width="1"/>
    <path id="Path_4462" data-name="Path 4462" d="M75.972,366.1a3.71,3.71,0,0,0,1.36-1.1c.962-1.163,1.547-.75,1.913.481a39.121,39.121,0,0,0-2.939,8.488,4.277,4.277,0,0,1-.668,1.436c-.754.682-1.009,2.153-2.512,1.733.118-1.245.233-2.491.359-3.923l-2.735,1.511c-1.475-.5-1.511-1.436-.843-2.631a7.632,7.632,0,0,1,1.138-.833C73.33,370.162,75.282,368.737,75.972,366.1Z" transform="translate(-57.435 -332.837)" fill="#f26000" stroke="#6c757d" stroke-width="1"/>
    <path id="Path_4463" data-name="Path 4463" d="M84.69,444.494a23.771,23.771,0,0,1,.793-3.618A4.619,4.619,0,0,0,85.365,437c.607.542,1.242,1.048,1.794,1.629.786.808,1.371.757,1.823-.3a30.866,30.866,0,0,0,10.7,10.717,1.483,1.483,0,0,0,.212,2.322,12.732,12.732,0,0,1,1.188,1.328c-2.121-1.324-4.045.391-6.076.4,2.512-3.2,2.512-3.209-.517-6.073-.452-.427-.879-1.159-1.626-.718-.632.359-1.4.779-1.105,1.794-1.217,1.626-1.68,1.683-2.821.359a9.462,9.462,0,0,0,2.76-2.225,1.167,1.167,0,0,0,0-1.967c-3.948-3.7-2.821-4.45-6.912.126Z" transform="translate(-67.18 -379.436)" fill="#f26000" stroke="#6c757d" stroke-width="1"/>
    <path id="Path_4464" data-name="Path 4464" d="M205.589,325.66c-.563.61-1.134,1.213-1.69,1.83-.4.449-.922.919,0,1.371.262.969,1.3,1.134,1.863,1.794.718.818,1.36.951,2.114-.022.668-.854,1.579-1.454,2.512-.427.865.94.161,1.7-.52,2.433-.359.359-1.227.718-.6,1.385.79.847,1.17,2.067,2.333,2.566.287.973.79,1.209,1.6.488.424-.359.865-.739,1.3-1.109a18.965,18.965,0,0,1-1.077,4.285c-1.192-1.4-2.031-.194-2.957.395-.208-.359-.42-.718-.632-1.1A1.077,1.077,0,0,0,211.2,339c.359-.639-.2-.987-.556-1.353-.872-.9-1.766-1.773-2.652-2.652-.642-.642-1.127-.614-1.371.359l-1.105-1.134c.969-.248.947-.718.327-1.36-.786-.8-1.633-1.543-2.358-2.39-.983-1.152-1.794-1.209-2.555.179a2.01,2.01,0,0,1-1.17-.689c1.92-1.059,1.92-1.059.467-2.871A27.879,27.879,0,0,1,205.589,325.66Z" transform="translate(-140.951 -308.056)" fill="#f26000" stroke="#6c757d" stroke-width="1"/>
    <path id="Path_4465" data-name="Path 4465" d="M200.24,453.07c1.511-1.906,1.5-1.949-.47-2.893l1.543-.951c.481,1.389,1.217,1.436,2.179.431.818-.843,1.658-1.665,2.484-2.512.556-.56.664-1.1-.083-1.594l.739-.772c.492.757,1.037.668,1.608.1.761-.754,1.471-1.558,2.283-2.25,1.281-1.077,1.077-1.96-.255-2.767a1.989,1.989,0,0,1,.646-1.166c.47,1.2,1,2.254,2.512,1.163a17.9,17.9,0,0,1,1.052,3.923c-.4-.359-.782-.718-1.192-1.034-1.077-.865-1.708-.754-1.669.775-.969.266-1.134,1.3-1.795,1.866-.822.718-.947,1.36.022,2.114.786.607,1.436,1.454.549,2.4-.951,1.03-1.769.359-2.555-.4-.359-.359-.718-1.227-1.385-.592-.847.786-2.067,1.17-2.566,2.333-.825,0-.567.391-.258.739.754.843,1.532,1.658,2.3,2.487A29.208,29.208,0,0,1,200.24,453.07Z" transform="translate(-140.958 -380.526)" fill="#f26000" stroke="#6c757d" stroke-width="1"/>
    <path id="Path_4466" data-name="Path 4466" d="M52.45,433.057a5.861,5.861,0,0,1,6.618.039,4.49,4.49,0,0,1,1.834,4.82,6.01,6.01,0,0,1-4.824,4.6,6.231,6.231,0,0,1-2.807-.068c.147-1.044,1.271-1.543,1.436-2.58a1.522,1.522,0,0,1,.172-.047c2.021-.291,3.471-1.533,3.259-2.99-.294-2.017-1.956-1.834-3.417-1.9a4.7,4.7,0,0,0-2.272-1.877Z" transform="translate(-46.511 -376.264)" fill="#f26000" stroke="#6c757d" stroke-width="1"/>
    <path id="Path_4467" data-name="Path 4467" d="M116.057,295.1a5.451,5.451,0,0,1-1.292,6.069,4.317,4.317,0,0,1-4.953.926,5.672,5.672,0,0,1-3.894-5.053,7.666,7.666,0,0,1,.154-2.652c1.249-.585,1.716.718,2.57,1.077.025.359.043.718.068,1.055.126,1.69,1.385,3.187,2.774,3.13,1.726-.072,1.949-1.436,2.153-2.753C114.492,296.371,115,295.359,116.057,295.1Z" transform="translate(-80.756 -287.916)" fill="#f26000" stroke="#6c757d" stroke-width="1"/>
    <path id="Path_4468" data-name="Path 4468" d="M106.291,498.759c-.47-2.785.1-5.172,2.6-6.819a4.833,4.833,0,0,1,5.789.018,5.676,5.676,0,0,1,1.55,6.431,11.64,11.64,0,0,1-2.419-2.494c-.944-2.186-2.3-2.581-3.873-1.1a10.212,10.212,0,0,0-.886,1.1C108.459,497.161,108.6,499.153,106.291,498.759Z" transform="translate(-80.932 -414.048)" fill="#f26000" stroke="#6c757d" stroke-width="1"/>
    <path id="Path_4469" data-name="Path 4469" d="M86.538,328c3.783,2.817,3.722,4.253-.23,6.984a1.165,1.165,0,0,1-1.7-.233c-.854-.815-1.73-1.615-2.595-2.423a54.587,54.587,0,0,1-1.436-8.47c-.086-.66-.039-1.306.689-1.644.492,1.177,1.823,1.741,2.193,3.008.811,2.982.987,6.1,2.042,9.26a15.966,15.966,0,0,1,1.36-1.687c1.034-.955,1.113-1.751-.079-2.67A1.277,1.277,0,0,1,86.538,328Z" transform="translate(-64.52 -305.844)" fill="#f26000" stroke="#6c757d" stroke-width="1"/>
    <path id="Path_4470" data-name="Path 4470" d="M81.98,451.979l.118-.133c4.091-4.576,2.975-3.826,6.912-.126a1.179,1.179,0,0,1,0,1.967,9.463,9.463,0,0,1-2.76,2.225c-.578-1.105.406-1.558.919-2.214.258-.33.933-.6.445-1.134-.754-.822-1.206-1.938-2.347-2.588C84.6,453.1,84,456.1,83.394,459.089a9.69,9.69,0,0,1-2.663,2.6c-.617-1.349,0-2.667.176-3.973C81.165,455.79,81.614,453.892,81.98,451.979Z" transform="translate(-64.47 -386.921)" fill="#f26000" stroke="#6c757d" stroke-width="1"/>
    <path id="Path_4471" data-name="Path 4471" d="M84.713,324.656c-.359-1.267-1.7-1.83-2.193-3.008.578-.492,1.253-.284,1.873-.19a70.473,70.473,0,0,1,9.6,1.773c2.182,2.6,2.186,2.6-.334,5.111a7.143,7.143,0,0,1-1.288,1.184c-.678.4-1.263.359-1.12-.718l3.191-2.62C91,325.521,87.95,324.555,84.713,324.656Z" transform="translate(-65.789 -305.282)" fill="#f26000" stroke="#6c757d" stroke-width="1"/>
    <path id="Path_4472" data-name="Path 4472" d="M245.552,413.657a34.845,34.845,0,0,1-6.428,3.948c.183-1.611-1.454-1.891-2.114-2.871l.359-1.794c.452-.528.879-1.077,1.367-1.576.316-.316.617-.9,1.1-.718.61.219.255.926.395,1.4v1.694l3.858-2.326C244.486,412.2,245.369,412.7,245.552,413.657Z" transform="translate(-164.832 -362.518)" fill="#f26000" stroke="#6c757d" stroke-width="1"/>
    <path id="Path_4473" data-name="Path 4473" d="M72.9,414.253a6.92,6.92,0,0,1-2.39-1.375,7.213,7.213,0,0,0-.958-1.245c-1.177-.991-.9-1.748.28-2.433l3.23,1.827-.391-3.923c-.025-.922.474-.668.886-.359.718.538,1.357,1.141,2.028,1.719a6.7,6.7,0,0,1,.359,2.426A4.487,4.487,0,0,1,72.9,414.253Z" transform="translate(-56.986 -359.858)" fill="#f26000" stroke="#6c757d" stroke-width="1"/>
    <path id="Path_4474" data-name="Path 4474" d="M56.314,396.107c-1.184.685-1.457,1.436-.28,2.433a7.215,7.215,0,0,1,.958,1.245,57.481,57.481,0,0,1-8.459-5.864c-1.044-.825-1.134-1.848-.029-2.685a61.677,61.677,0,0,1,7.433-5.2c-.668,1.181-.632,2.135.843,2.631a2.121,2.121,0,0,1-1.131.761c-.718-1.342-1.471-1.471-2.566-.284-3.733,4.045-3.908,2.318.309,6.726.912.955,1.515.764,1.859-.474a1.9,1.9,0,0,1,1.062.707Z" transform="translate(-43.473 -346.766)" fill="#f26000" stroke="#6c757d" stroke-width="1"/>
    <path id="Path_4475" data-name="Path 4475" d="M240.8,380.07a27.865,27.865,0,0,1,6.647,4.357v.359c-1.21-.294-1.816.337-2.153,1.4l-4.429-2.825c-.4.585-.018,1.127-.176,1.629-.061.9-.194,1.626-1.217.6-.528-.528-1.1-1.008-1.651-1.507l-.079-.621A22.681,22.681,0,0,1,240.8,380.07Z" transform="translate(-165.3 -342.938)" fill="#f26000" stroke="#6c757d" stroke-width="1"/>
    <path id="Path_4476" data-name="Path 4476" d="M140.6,484.085a7.325,7.325,0,0,1-1.418-2.4,23.107,23.107,0,0,1,3.37-3.029,7,7,0,0,1,2.419.359c.686.782,1.378,1.558,2.053,2.347.194.222.359.535.1.772s-.513-.075-.747-.215l-3.995-.449,1.881,3.259c-.474,1.547-1.245,1.543-2.286.474a14.393,14.393,0,0,0-1.378-1.116Z" transform="translate(-102.113 -406.139)" fill="#f26000" stroke="#6c757d" stroke-width="1"/>
    <path id="Path_4477" data-name="Path 4477" d="M143.13,493.79a14.383,14.383,0,0,1,1.389,1.116c1.041,1.077,1.812,1.077,2.286-.474a1.422,1.422,0,0,1,.668,1.123,1.37,1.37,0,0,0,.047,2.358,24.1,24.1,0,0,1,2.128,2.11c.872.955,1.611.843,2.537,0,1.077-.987,1.794-2.336,3.119-3.069l.176.14a37.861,37.861,0,0,1-3.725,5.154c-.8.994-1.794,1.231-2.67.1A62.777,62.777,0,0,1,143.13,493.79Z" transform="translate(-104.646 -415.844)" fill="#f26000" stroke="#6c757d" stroke-width="1"/>
    <path id="Path_4478" data-name="Path 4478" d="M101.291,464.4c-.3-1,.474-1.436,1.105-1.795.747-.427,1.174.305,1.626.718,3.029,2.871,3.026,2.871.517,6.073a2.9,2.9,0,0,1-1.708.359c-1.594.072-2.412-1.077-3.291-2.11l5.818-1.321c-1.041-.833-1.827-1.436-2.57-2.067A.964.964,0,0,0,101.291,464.4Z" transform="translate(-76.7 -395.771)" fill="#f26000" stroke="#6c757d" stroke-width="1"/>
    <path id="Path_4479" data-name="Path 4479" d="M122.305,287.139c-1.059.255-1.565,1.267-2.433,1.794-.427-2.308-2.656-3.069-3.948-4.626-.754-.779.061-1.238.359-1.794l.718-.693C119.212,283.134,121.344,284.551,122.305,287.139Z" transform="translate(-87.005 -279.95)" fill="#f26000" stroke="#6c757d" stroke-width="1"/>
    <path id="Path_4480" data-name="Path 4480" d="M80.23,422.182a4.478,4.478,0,0,0,3.04-3.352,46.683,46.683,0,0,0,2.871,7.849c-.452,1.055-1.037,1.105-1.823.3-.563-.581-1.2-1.077-1.795-1.629C81.791,424.275,81.748,422.692,80.23,422.182Z" transform="translate(-64.32 -367.787)" fill="#f26000" stroke="#6c757d" stroke-width="1"/>
    <path id="Path_4481" data-name="Path 4481" d="M87.789,476.974c.879,1.044,1.7,2.182,3.291,2.11a49.611,49.611,0,0,1-8.355,1.436,1.378,1.378,0,0,1-1.515-.671,9.69,9.69,0,0,0,2.663-2.6C85.219,477.717,86.471,476.838,87.789,476.974Z" transform="translate(-64.949 -405.054)" fill="#f26000" stroke="#6c757d" stroke-width="1"/>
    <path id="Path_4482" data-name="Path 4482" d="M229.62,365.542c.926-.589,1.766-1.794,2.957-.395q.9,2.128,1.816,4.257a5.064,5.064,0,0,1-2.189,2.545Z" transform="translate(-160.094 -332.954)" fill="#f26000" stroke="#6c757d" stroke-width="1"/>
    <path id="Path_4483" data-name="Path 4483" d="M148.516,296.54c-1.263-1.4-2.34-.6-3.406.3a50.325,50.325,0,0,1,5.222-7.422,1.5,1.5,0,0,1,2.667.054c.93,1.231,1.794,2.512,2.692,3.765a2.757,2.757,0,0,1-1.949-1.393c-1.3-1.665-1.651-1.676-3.191-.161-.553.538-1.052,1.138-1.644,1.622-1.131.926-1.077,1.723.14,2.48Z" transform="translate(-105.915 -284.312)" fill="#f26000" stroke="#6c757d" stroke-width="1"/>
    <path id="Path_4484" data-name="Path 4484" d="M233.083,422.06c.66.994,2.3,1.274,2.114,2.871l-1.794,4.26c-1.522,1.077-2.056.036-2.512-1.163Q231.981,425.05,233.083,422.06Z" transform="translate(-160.909 -369.858)" fill="#f26000" stroke="#6c757d" stroke-width="1"/>
    <path id="Path_4485" data-name="Path 4485" d="M45.526,434.85a4.7,4.7,0,0,1,2.265,1.877c-1.665.94-2.57,2.645-3.923,3.9-1.263.23-1.626-.829-2.218-1.558A14.541,14.541,0,0,1,45.526,434.85Z" transform="translate(-39.587 -378.058)" fill="#f26000" stroke="#6c757d" stroke-width="1"/>
    <path id="Path_4486" data-name="Path 4486" d="M122.211,510.961a16.173,16.173,0,0,1-4.666,4.239c0-.98-1.389-1.367-1.077-2.487,1.31-1.342,3.058-2.254,3.948-4.013A6.839,6.839,0,0,1,122.211,510.961Z" transform="translate(-87.524 -425.403)" fill="#f26000" stroke="#6c757d" stroke-width="1"/>
    <path id="Path_4487" data-name="Path 4487" d="M127.074,474.21a12.734,12.734,0,0,0-1.188-1.328,1.482,1.482,0,0,1-.212-2.322l6.41,2.57a5.056,5.056,0,0,1-2.541,2.182Z" transform="translate(-93.158 -400.952)" fill="#f26000" stroke="#6c757d" stroke-width="1"/>
    <path id="Path_4488" data-name="Path 4488" d="M259.619,392.549v-.359a15.43,15.43,0,0,1,4.422,3.119,1.424,1.424,0,0,1-.1,2.423,46.717,46.717,0,0,1-5.742,4.109c-.183-.955-1.077-1.454-1.468-2.265l.761-.535c.973,1.533,2.024,1.375,3.151.165a20.668,20.668,0,0,1,1.64-1.629c.876-.754.718-1.461.122-2.315C261.64,394.178,260.276,393.73,259.619,392.549Z" transform="translate(-177.475 -350.708)" fill="#f26000" stroke="#6c757d" stroke-width="1"/>
    <path id="Path_4489" data-name="Path 4489" d="M256.167,352.889l-2.257-1.468a4.229,4.229,0,0,1,3.341-2.178c.955.172,2.566-.406,2.742.359.258,1.116-1.188,1.647-2.182,2.128Z" transform="translate(-175.667 -323.143)" fill="#f26000" stroke="#6c757d" stroke-width="1"/>
    <path id="Path_4490" data-name="Path 4490" d="M40.5,446.6c.592.718.955,1.794,2.218,1.558-.072.736.481.664.933.718.991.111,1.985.215,2.975.323-.158,1.037-1.281,1.536-1.436,2.581a8.205,8.205,0,0,1-3.374-.359c.682-.1,1.712,0,.675-1.12-.872-.951-1.759-1.891-2.638-2.835Z" transform="translate(-38.433 -385.591)" fill="#f26000" stroke="#6c757d" stroke-width="1"/>
    <path id="Path_4491" data-name="Path 4491" d="M110.011,510.092c-.3,1.12,1.077,1.507,1.077,2.487l-.38.287c-.969-.908-1.927-1.823-2.907-2.717-.323-.294-.686-.793-1.077-.032a5.9,5.9,0,0,1-.3-2.606c2.322.395,2.153-1.6,2.764-2.871a21.728,21.728,0,0,0,.05,2.982C109.387,508.466,108.831,509.564,110.011,510.092Z" transform="translate(-81.092 -422.8)" fill="#f26000" stroke="#6c757d" stroke-width="1"/>
    <path id="Path_4492" data-name="Path 4492" d="M111.7,278.62l-.718.693c-1.188-.28-1.568.8-2.236,1.36-.743.617-1.209.7-1.378-.416a7.057,7.057,0,0,1,.032-.872c.151-.962.079-2.121,1.288-2.455,1.127-.312,1.845.427,2.455,1.271a2.318,2.318,0,0,0,.556.42Z" transform="translate(-81.716 -276.768)" fill="#f26000" stroke="#6c757d" stroke-width="1"/>
    <path id="Path_4493" data-name="Path 4493" d="M106.706,284.563c.169,1.116.635,1.034,1.378.416.668-.556,1.048-1.64,2.236-1.36-.305.567-1.12,1.026-.359,1.794-.581-.068-.65.309-.718.757-.086.815-.212,1.626-.319,2.437-.854-.359-1.321-1.651-2.57-1.077A7.1,7.1,0,0,1,106.706,284.563Z" transform="translate(-81.048 -281.074)" fill="#f26000" stroke="#6c757d" stroke-width="1"/>
    <path id="Path_4494" data-name="Path 4494" d="M263.78,351.3c.994-.481,2.44-1.012,2.182-2.128-.176-.775-1.794-.2-2.742-.359a9.649,9.649,0,0,1,4.849.025c-.359.894-1.716,1.2-1.436,2.466Z" transform="translate(-181.635 -322.705)" fill="#f26000" stroke="#6c757d" stroke-width="1"/>
    <path id="Path_4495" data-name="Path 4495" d="M137.28,479.877a5.057,5.057,0,0,0,2.541-2.182,2.4,2.4,0,0,1,1.511.337,23.68,23.68,0,0,0-3.37,3.029Z" transform="translate(-100.895 -405.516)" fill="#f26000" stroke="#6c757d" stroke-width="1"/>
    <path id="Path_4496" data-name="Path 4496" d="M236.795,380.715a5.063,5.063,0,0,0,2.189-2.545l1.2.682a21.766,21.766,0,0,0-3.047,3.377A2.394,2.394,0,0,1,236.795,380.715Z" transform="translate(-164.685 -341.72)" fill="#f26000" stroke="#6c757d" stroke-width="1"/>
    <path id="Path_4497" data-name="Path 4497" d="M129.287,508.4a6.887,6.887,0,0,0-1.827-2.261l.022-1.436a11.64,11.64,0,0,0,2.419,2.494A1.349,1.349,0,0,1,129.287,508.4Z" transform="translate(-94.6 -422.839)" fill="#f26000" stroke="#6c757d" stroke-width="1"/>
    <path id="Path_4498" data-name="Path 4498" d="M172.688,494.42a4.127,4.127,0,0,0,1.795,2.24l-.556.84c-.057-.047-.115-.093-.176-.136a5.237,5.237,0,0,0-1.83-1.795,2.153,2.153,0,0,1,.768-1.148Z" transform="translate(-123.103 -416.248)" fill="#f26000" stroke="#6c757d" stroke-width="1"/>
    <path id="Path_4499" data-name="Path 4499" d="M153.431,314.315c.018-.718,0-1.436.068-2.125a1.35,1.35,0,0,1,1.393-1.332c.8,0,1.515.531,1.389,1.288-.327,1.97.815,2.358,2.326,2.512-.782.083-1.622.118-.614,1.159.535.553,1.037,1.134,1.558,1.7a3.348,3.348,0,0,1-1.773-.291c-2.326-2.99-2.616-2.993-5.025-.05l-2.512.334c1.662-.481,2.724-1.748,3.826-2.954.194-.212.413-.589.111-.757C153.79,313.561,153.718,314.164,153.431,314.315Z" transform="translate(-109.204 -298.566)" fill="#f26000" stroke="#6c757d" stroke-width="1"/>
    <path id="Path_4500" data-name="Path 4500" d="M161.885,481.75c-1.489.154-2.706.488-2.365,2.487.115.689-.56,1.184-1.285,1.217a1.324,1.324,0,0,1-1.471-1.245,20.156,20.156,0,0,1-.047-2.135c.233.14.456.474.747.215s.093-.549-.1-.772c-.675-.79-1.367-1.565-2.053-2.347a48.336,48.336,0,0,0,7.49-.28c-.528.456-1.077.894-1.576,1.378-.316.312-.908.607-.718,1.077C160.708,481.966,161.411,481.614,161.885,481.75Z" transform="translate(-112.454 -406.292)" fill="#f26000" stroke="#6c757d" stroke-width="1"/>
    <path id="Path_4501" data-name="Path 4501" d="M73.429,397.294c-.653,0-1.3,0-1.956-.047a1.437,1.437,0,1,1,0-2.871c.65-.032,1.3-.032,1.952-.047,1.518.427,1.773-1.052,2.512-1.733a4.213,4.213,0,0,0,.668-1.436,50.6,50.6,0,0,0-.276,7.483c-.671-.578-1.328-1.181-2.028-1.719C73.9,396.626,73.4,396.371,73.429,397.294Z" transform="translate(-57.749 -350.048)" fill="#f26000" stroke="#6c757d" stroke-width="1"/>
    <path id="Path_4502" data-name="Path 4502" d="M222.09,355.431l-3.23-4.21c.244-.958.718-.987,1.371-.359.886.879,1.794,1.755,2.652,2.652.359.359.9.718.556,1.353a1.077,1.077,0,0,1-1.349.564Z" transform="translate(-153.196 -323.941)" fill="#f26000" stroke="#6c757d" stroke-width="1"/>
    <path id="Path_4503" data-name="Path 4503" d="M207.6,341.218l-4.6-3.571c.757-1.389,1.572-1.331,2.555-.179.718.847,1.572,1.594,2.358,2.39C208.549,340.482,208.57,340.97,207.6,341.218Z" transform="translate(-143.028 -315.072)" fill="#f26000" stroke="#6c757d" stroke-width="1"/>
    <path id="Path_4504" data-name="Path 4504" d="M218.89,446.906,222.518,442c1.324.808,1.536,1.68.255,2.767-.811.693-1.522,1.5-2.283,2.25C219.927,447.574,219.382,447.663,218.89,446.906Z" transform="translate(-153.215 -382.642)" fill="#f26000" stroke="#6c757d" stroke-width="1"/>
    <path id="Path_4505" data-name="Path 4505" d="M204.07,461.454l4.58-3.664c.747.492.639,1.034.083,1.594-.825.836-1.665,1.658-2.484,2.512C205.287,462.89,204.551,462.854,204.07,461.454Z" transform="translate(-143.714 -392.765)" fill="#f26000" stroke="#6c757d" stroke-width="1"/>
    <path id="Path_4506" data-name="Path 4506" d="M240.842,392.1c.172,1.468.452,2.713,2.48,2.354.757-.136,1.31.571,1.31,1.375s-.553,1.511-1.314,1.375c-2.031-.359-2.3.9-2.48,2.362-.14-.477.215-1.184-.395-1.4-.481-.176-.782.413-1.1.718-.488.492-.915,1.048-1.367,1.576a5.1,5.1,0,0,1,.316-2.135c3.209-2.552,3.2-2.9-.029-5.351a3.417,3.417,0,0,1-.291-1.794c.553.5,1.123.98,1.651,1.507C240.641,393.722,240.773,393,240.842,392.1Z" transform="translate(-165.437 -350.054)" fill="#f26000" stroke="#6c757d" stroke-width="1"/>
    <path id="Path_4507" data-name="Path 4507" d="M60.166,393.491c-1.044.782-2.053,1.619-3.148,2.326-.991.639-.822,1.048.047,1.619.937.617,1.795,1.346,2.7,2.024-.359,1.238-.948,1.436-1.859.474-4.217-4.407-4.041-2.681-.309-6.726C58.695,392.019,59.449,392.148,60.166,393.491Z" transform="translate(-48 -350.839)" fill="#f26000" stroke="#6c757d" stroke-width="1"/>
    <path id="Path_4508" data-name="Path 4508" d="M258.8,399.561c.854-.642,1.687-1.314,2.566-1.917.682-.467.718-.818,0-1.3-.886-.6-1.73-1.26-2.591-1.891.327-1.059.933-1.69,2.153-1.4.657,1.181,2.021,1.629,2.781,2.72.6.854.754,1.561-.122,2.315a20.684,20.684,0,0,0-1.64,1.629C260.819,400.935,259.768,401.093,258.8,399.561Z" transform="translate(-178.783 -351.22)" fill="#f26000" stroke="#6c757d" stroke-width="1"/>
    <path id="Path_4509" data-name="Path 4509" d="M154.037,497.986c.485.589.994,1.156,1.436,1.769,1.461,1.985,1.436,1.988,2.957-.068.52-.718,1.077-1.407,1.6-2.107a5.236,5.236,0,0,1,1.83,1.794c-1.321.718-2.039,2.078-3.119,3.065-.926.851-1.665.962-2.537,0a24.089,24.089,0,0,0-2.128-2.11C153.133,499.525,153.194,498.807,154.037,497.986Z" transform="translate(-111.221 -418.274)" fill="#f26000" stroke="#6c757d" stroke-width="1"/>
    <path id="Path_4510" data-name="Path 4510" d="M132.594,383.791a2.525,2.525,0,0,1-1.127-2.444c.054-2.677,0-5.355.036-8.036.022-1.339-.2-2.487-1.529-3.14-.269-.133-.6-.327-.452-.639a1.109,1.109,0,0,1,.718-.42c2.986-.614,4.834.919,4.852,4.013,0,1.794.061,3.589-.032,5.355-.061,1.17.334,1.622,1.493,1.507.94-.093,1.888-.1,2.832-.151.757-2.365.147-4.777.258-7.178a2.144,2.144,0,0,1,2.38-1.436c2.512.047,5,0,7.5.029,1.227.018,2.24-.237,2.764-1.479.115-.273.255-.607.6-.567.463.05.449.477.485.825.377,3.517-1.03,5.384-4.307,5.143-1.479-.108-2.979.054-4.458-.043-1.141-.072-1.418.359-1.385,1.436.129,3.883-.682,3.456,3.327,3.392,4.824-.079,4.831-.118,4.831,4.763,0,1.794.018,3.571,0,5.355-.025,1.464-.054,2.907,1.565,3.654a.5.5,0,0,1,.341.553c-.061.359-.359.406-.66.481a3.652,3.652,0,0,1-4.87-3.657c-.047-1.9-.093-3.808.025-5.7.083-1.332-.488-1.672-1.64-1.558a2.383,2.383,0,0,1-.359-.018c-2.552-.061-2.555-.061-2.552,2.458v3.571c0,2.193-.556,2.778-2.7,2.789-2.322,0-4.641.043-6.963,0-1.335-.029-2.512.129-3.079,1.547-.118.294-.3.614-.617.474a1,1,0,0,1-.431-.718c-.47-3.589,1.2-5.466,4.041-5.247,1.6.126,3.209,0,4.816,0,.922.2,1.511,0,1.4-1.116s-.194-2.311-.291-3.467C137.167,383.382,134.859,384.06,132.594,383.791Zm19.775-12.748c-1.12,1.436-2.512,1.174-3.873,1.184s-2.62,0-3.926,0c-4.066,0-4.066,0-4.066,4.063,0,4.745,0,4.694-4.784,4.666-1.332,0-1.586-.517-1.55-1.683q.108-3.3,0-6.6c-.061-1.917-.865-2.595-2.609-2.358a4.374,4.374,0,0,1,.8,2.871c-.029,2.677.029,5.358-.029,8.036-.025,1.217.416,1.794,1.658,1.712a9.441,9.441,0,0,1,1.436,0c1.64.14,3.776-.747,4.791.38s.158,3.194.312,4.838c.126,1.321-.485,1.619-1.665,1.579-2.021-.068-4.048-.065-6.069,0-1.766.061-2.455.994-2.121,2.735a3.889,3.889,0,0,1,2.835-.851c1.6.054,3.23,0,4.82,0,3.969,0,3.969,0,3.969-3.948,0-4.9,0-4.86,4.888-4.77,1.184.022,1.536.4,1.493,1.554-.079,2.257-.065,4.522,0,6.783.047,1.794.962,2.563,2.624,2.29a4.456,4.456,0,0,1-.84-3.029c.043-2.437,0-4.877,0-7.318,0-2.247,0-2.247-2.329-2.25h-.718c-5.34,0-5.308,0-5.157-5.383.029-1.12.416-1.436,1.468-1.418q3.13.083,6.252,0C151.731,374.082,152.352,373.322,152.37,371.043Z" transform="translate(-95.818 -335.827)" fill="#f26000" stroke="#6c757d" stroke-width="1"/>
    <path id="Path_4511" data-name="Path 4511" d="M172.907,413.761c-.065,1.317-.682,2.046-1.759,2.046a1.714,1.714,0,0,1-1.795-1.974,1.678,1.678,0,0,1,1.931-1.812A1.653,1.653,0,0,1,172.907,413.761Zm-2.641.151c.061.531.341.919.886.894a.887.887,0,0,0,.865-.94.843.843,0,0,0-.9-.886C170.546,412.986,170.3,413.37,170.266,413.912Z" transform="translate(-121.456 -363.418)" fill="#f26000" stroke="#6c757d" stroke-width="1"/>
    <path id="Path_4512" data-name="Path 4512" d="M150.136,389.877a1.786,1.786,0,0,1-3.532-.456,1.794,1.794,0,0,1,1.292-1.9c1.123-.337,1.766.312,2.218,1.242Zm-.829-.657c-.19-.359-.384-.818-.965-.754a.833.833,0,0,0-.79.969.793.793,0,0,0,.922.822c.546-.05.8-.413.833-1.037Z" transform="translate(-106.867 -347.656)" fill="#f26000" stroke="#6c757d" stroke-width="1"/>
    <path id="Path_4513" data-name="Path 4513" d="M238.8,396.2c3.23,2.451,3.23,2.8.029,5.351Q238.818,398.877,238.8,396.2Z" transform="translate(-165.98 -353.279)" fill="#f26000" stroke="#6c757d" stroke-width="1"/>
    <path id="Path_4514" data-name="Path 4514" d="M172.913,389.5c-.133,1.059-.628,1.884-1.881,1.834a1.7,1.7,0,0,1-1.712-1.873,1.729,1.729,0,0,1,1.859-1.92C172.252,387.571,172.841,388.332,172.913,389.5Zm-.879-.061c-.144-.47-.341-.915-.919-.919a.833.833,0,0,0-.869.922.8.8,0,0,0,.869.9c.571,0,.811-.395.919-.9Z" transform="translate(-121.436 -347.726)" fill="#f26000" stroke="#6c757d" stroke-width="1"/>
    <path id="Path_4515" data-name="Path 4515" d="M150.107,414.536a1.82,1.82,0,0,1-2.132,1.152,1.694,1.694,0,0,1-1.357-1.461,1.953,1.953,0,0,1,1.278-2.257h.743C150.053,412.3,150.11,413.416,150.107,414.536Zm-.8-.689a.892.892,0,1,0-.89.933.944.944,0,0,0,.89-.933Z" transform="translate(-106.853 -363.389)" fill="#f26000" stroke="#6c757d" stroke-width="1"/>
    <path id="Path_4516" data-name="Path 4516" d="M157.28,324.521c2.394-2.943,2.685-2.939,5.025.05Z" transform="translate(-113.717 -305.915)" fill="#f26000" stroke="#6c757d" stroke-width="1"/>
    <path id="Path_4517" data-name="Path 4517" d="M207.947,443.528a1.39,1.39,0,0,1-1.572,1.314,1.292,1.292,0,0,1-1.249-1.436,1.314,1.314,0,0,1,1.54-1.332A1.362,1.362,0,0,1,207.947,443.528Z" transform="translate(-144.386 -382.677)" fill="#f26000" stroke="#6c757d" stroke-width="1"/>
    <path id="Path_4518" data-name="Path 4518" d="M108.416,370.8c-.147.861-.635,1.436-1.543,1.349a1.288,1.288,0,0,1-1.278-1.436,1.306,1.306,0,0,1,1.511-1.36A1.4,1.4,0,0,1,108.416,370.8Z" transform="translate(-80.577 -336.056)" fill="#f26000" stroke="#6c757d" stroke-width="1"/>
    <path id="Path_4519" data-name="Path 4519" d="M173.647,342.381a1.38,1.38,0,0,1-1.317-1.4,1.4,1.4,0,1,1,1.317,1.4Z" transform="translate(-123.366 -316.978)" fill="#f26000" stroke="#6c757d" stroke-width="1"/>
    <path id="Path_4520" data-name="Path 4520" d="M146.33,340.943a1.4,1.4,0,0,1,1.468-1.436,1.288,1.288,0,0,1,1.353,1.346,1.306,1.306,0,0,1-1.436,1.436C146.893,342.3,146.459,341.757,146.33,340.943Z" transform="translate(-106.697 -316.932)" fill="#f26000" stroke="#6c757d" stroke-width="1"/>
    <path id="Path_4521" data-name="Path 4521" d="M135.888,459.81c-.947-.172-1.5-.668-1.414-1.576a1.288,1.288,0,0,1,1.436-1.26,1.317,1.317,0,0,1,1.349,1.529A1.42,1.42,0,0,1,135.888,459.81Z" transform="translate(-99.091 -392.237)" fill="#f26000" stroke="#6c757d" stroke-width="1"/>
    <path id="Path_4522" data-name="Path 4522" d="M185.72,459.853c-.9-.122-1.436-.549-1.471-1.367a1.4,1.4,0,1,1,2.789.036A1.416,1.416,0,0,1,185.72,459.853Z" transform="translate(-131.006 -392.283)" fill="#f26000" stroke="#6c757d" stroke-width="1"/>
    <path id="Path_4523" data-name="Path 4523" d="M219.52,421.96c-.869-.122-1.436-.592-1.385-1.507a1.288,1.288,0,0,1,1.389-1.31,1.306,1.306,0,0,1,1.4,1.475A1.391,1.391,0,0,1,219.52,421.96Z" transform="translate(-152.729 -367.985)" fill="#f26000" stroke="#6c757d" stroke-width="1"/>
    <path id="Path_4524" data-name="Path 4524" d="M223.885,395.564A1.385,1.385,0,0,1,222.428,397a1.288,1.288,0,0,1-1.364-1.339,1.31,1.31,0,0,1,1.436-1.454A1.419,1.419,0,0,1,223.885,395.564Z" transform="translate(-154.604 -351.998)" fill="#f26000" stroke="#6c757d" stroke-width="1"/>
    <path id="Path_4525" data-name="Path 4525" d="M214.357,369.29c.958.09,1.536.542,1.536,1.436a1.288,1.288,0,0,1-1.328,1.375,1.31,1.31,0,0,1-1.464-1.414A1.415,1.415,0,0,1,214.357,369.29Z" transform="translate(-149.501 -336.027)" fill="#f26000" stroke="#6c757d" stroke-width="1"/>
    <path id="Path_4526" data-name="Path 4526" d="M101.454,394.72c-.2.915-.7,1.461-1.6,1.353a1.292,1.292,0,0,1-1.227-1.45,1.314,1.314,0,0,1,1.565-1.306A1.378,1.378,0,0,1,101.454,394.72Z" transform="translate(-76.106 -351.415)" fill="#f26000" stroke="#6c757d" stroke-width="1"/>
    <path id="Path_4527" data-name="Path 4527" d="M197.606,350.4c.861.151,1.436.635,1.346,1.543a1.292,1.292,0,0,1-1.436,1.278,1.31,1.31,0,0,1-1.349-1.529A1.384,1.384,0,0,1,197.606,350.4Z" transform="translate(-138.636 -323.917)" fill="#f26000" stroke="#6c757d" stroke-width="1"/>
    <path id="Path_4528" data-name="Path 4528" d="M124.935,353.3a1.383,1.383,0,0,1-1.407-1.486,1.285,1.285,0,0,1,1.364-1.335,1.306,1.306,0,0,1,1.436,1.454C126.3,352.752,125.75,353.172,124.935,353.3Z" transform="translate(-92.078 -323.961)" fill="#f26000" stroke="#6c757d" stroke-width="1"/>
    <path id="Path_4529" data-name="Path 4529" d="M160.647,464.811a1.377,1.377,0,0,1-1.317-1.4,1.4,1.4,0,1,1,2.785.136A1.368,1.368,0,0,1,160.647,464.811Z" transform="translate(-115.031 -395.468)" fill="#f26000" stroke="#6c757d" stroke-width="1"/>
    <path id="Path_4530" data-name="Path 4530" d="M116.386,442.441c-.118.869-.585,1.436-1.5,1.4a1.292,1.292,0,0,1-1.324-1.378,1.306,1.306,0,0,1,1.464-1.41C115.844,441.077,116.271,441.626,116.386,442.441Z" transform="translate(-85.686 -382.027)" fill="#f26000" stroke="#6c757d" stroke-width="1"/>
    <path id="Path_4531" data-name="Path 4531" d="M102.139,421.989c-.973-.122-1.54-.581-1.511-1.5A1.288,1.288,0,0,1,102,419.158a1.31,1.31,0,0,1,1.436,1.454A1.444,1.444,0,0,1,102.139,421.989Z" transform="translate(-77.397 -367.993)" fill="#f26000" stroke="#6c757d" stroke-width="1"/>
  </g>
  <path id="om" d="M43.473,9.785c.281,1.421.573,2.891.985,4.326,1.677,5.83,5.82,9.59,11.981,10.872a23.94,23.94,0,0,0,4.889.512A25.414,25.414,0,0,0,75.7,20.788a14.986,14.986,0,0,0,2.061-1.782,3.1,3.1,0,0,0,.634-3.65,16.286,16.286,0,0,0-4.063-5.451,3.073,3.073,0,0,0-4.145-.414c-.724.441-1.408.933-2.069,1.408l-.568.407a20.917,20.917,0,0,1-7.259,3.544c-3.937.942-7.128.194-9.756-2.285A27.235,27.235,0,0,1,46.082,7.1a3.626,3.626,0,0,0-.461-.575c-.044-.047-.087-.093-.128-.141a1.153,1.153,0,0,0-1.134-.371l-.242.056a1.152,1.152,0,0,0-.891,1.122c0,.107-.006.227-.013.353a4.521,4.521,0,0,0,.048,1.175Q43.369,9.251,43.473,9.785Zm5.484,4.457c3.193,3.012,7.187,3.97,11.873,2.85a23.111,23.111,0,0,0,8.056-3.905q.291-.206.58-.415c.654-.471,1.273-.916,1.921-1.311s.814-.385,1.386.141a13.857,13.857,0,0,1,3.511,4.677c.244.559.139.813-.138,1.086a13,13,0,0,1-1.735,1.515c-5.623,3.8-11.511,5.094-17.5,3.848-5.346-1.113-8.79-4.226-10.236-9.253-.22-.766-.406-1.557-.576-2.351a29.3,29.3,0,0,0,2.86,3.119Zm8.122-3.919a2.814,2.814,0,0,0,3.968,0l2.769-2.763a2.8,2.8,0,0,0,0-3.967L61.047.829a2.814,2.814,0,0,0-3.968,0L54.31,3.592a2.8,2.8,0,0,0,0,3.967Zm-1.141-5.1L58.706,2.46a.506.506,0,0,1,.713,0l2.769,2.763a.5.5,0,0,1,0,.7L59.42,8.691a.506.506,0,0,1-.713,0L55.938,5.928a.5.5,0,0,1,0-.7ZM85.538,45.1c-.96-5.791-3.212-10.759-6.341-13.987C75.209,27,69.982,25.784,64.08,27.6c-4.545,1.4-6.653,5.049-8.692,8.582-.608,1.054-1.237,2.144-1.914,3.131A13.366,13.366,0,0,1,48.928,43.7a5.353,5.353,0,0,1-4.677.3l.259-.271q.433-.452.868-.9A17.533,17.533,0,0,0,50.53,30.271a12.23,12.23,0,0,0-4.25-8.914c-2.472-2.169-5.662-3.256-9.752-3.323a26.235,26.235,0,0,0-11.438,2.56,30.639,30.639,0,0,0-4.479,2.554,3.085,3.085,0,0,0-1.2,4.079,20.213,20.213,0,0,0,3.7,6.273,2.923,2.923,0,0,0,3.81.891,30.739,30.739,0,0,0,2.892-1.465c3.569-1.995,8.121-3.937,11.679-1.222a2.5,2.5,0,0,1,.655,3.545c-1.8,2.8-5.036,2.794-8.468,2.791-.749,0-1.522,0-2.261.032a3.107,3.107,0,0,0-2.416.96,3.106,3.106,0,0,0-.391,2.567,33.7,33.7,0,0,0,2.407,7.648c1.252,2.8,3.582,2.441,5.283,2.18.434-.067.882-.135,1.312-.163,1.913-.122,4.5.176,5.962,2.3a6.218,6.218,0,0,1,.644,5.957,9.784,9.784,0,0,1-3.775,4.27A12.947,12.947,0,0,1,31.8,65.531a15.307,15.307,0,0,1-11.879-7.779A41.048,41.048,0,0,1,16.035,47.8c-.329-1.235-.69-2.5-1.1-3.863a3.059,3.059,0,0,0-.445-.852c-.041-.06-.083-.12-.119-.181a1.152,1.152,0,0,0-2,.035c-.122.221-.237.45-.344.68-.953,2.057-.966,4.29.833,13.455,1.431,7.292,4.754,12.781,10.157,16.782a22.775,22.775,0,0,0,13.729,4.809A22.044,22.044,0,0,0,39.42,78.5a17.3,17.3,0,0,0,11.459-6.644,16.487,16.487,0,0,0,3.056-12.774,48,48,0,0,0-1.542-5.566q-.278-.894-.583-1.885a16.083,16.083,0,0,0,2.765-.306A14.912,14.912,0,0,0,60.718,48.7a33.075,33.075,0,0,0,3.046-2.979c2.968-3.148,6.036-6.4,9.747-4.833,3,1.269,3.576,6.1,3.443,8.75a9.736,9.736,0,0,1-1.677,5.407c-1.788,2.248-5.826,4.392-11.325,3.038A6.52,6.52,0,0,1,60.8,56.206a10.36,10.36,0,0,1-1.539-2.33c-.483-.914-1.031-1.949-2.155-1.73-1.031.2-1.257,1.33-1.391,2a18.02,18.02,0,0,0,.072,6.629l.013.078a22.133,22.133,0,0,0,.667,2.847,13.041,13.041,0,0,0,7.92,8.675,13.547,13.547,0,0,0,11.825-1.239,19.949,19.949,0,0,0,8.472-11.033A32.015,32.015,0,0,0,85.538,45.1ZM82.5,59.361A17.734,17.734,0,0,1,75,69.181a11.227,11.227,0,0,1-9.8,1.04,10.785,10.785,0,0,1-6.527-7.191,19.863,19.863,0,0,1-.6-2.55L58.06,60.4a17.4,17.4,0,0,1-.277-4.436,10.273,10.273,0,0,0,1.338,1.817,8.855,8.855,0,0,0,4.28,2.543c5.4,1.33,10.766-.179,13.679-3.841a12.218,12.218,0,0,0,2.175-6.726c.2-4.037-.944-9.338-4.846-10.988-5.188-2.194-9.143,2-12.322,5.375a31.583,31.583,0,0,1-2.82,2.769,12.7,12.7,0,0,1-5.145,2.149,13.944,13.944,0,0,1-3.8.224,1.152,1.152,0,0,0-1.188,1.492c.1.307.236.759.4,1.305.227.743.447,1.449.653,2.114a48.894,48.894,0,0,1,1.466,5.235,14.183,14.183,0,0,1-2.616,11.03,14.954,14.954,0,0,1-9.9,5.747C33.9,76.85,29.075,75.474,24.384,72c-4.92-3.642-7.952-8.671-9.267-15.373a82.4,82.4,0,0,1-1.38-8.5l.071.266a43.262,43.262,0,0,0,4.108,10.5,17.506,17.506,0,0,0,13.572,8.922A15.194,15.194,0,0,0,41.634,65.76a12.183,12.183,0,0,0,4.655-5.235,8.5,8.5,0,0,0-.82-8.272c-1.619-2.347-4.463-3.515-8.007-3.287-.532.034-1.031.111-1.514.185-1.859.286-2.344.242-2.829-.843a31.4,31.4,0,0,1-2.244-7.123,2.415,2.415,0,0,1-.057-.7,2.393,2.393,0,0,1,.7-.1c.687-.03,1.4-.03,2.157-.029,3.722.006,7.928.006,10.408-3.848a4.815,4.815,0,0,0-1.2-6.624,9.136,9.136,0,0,0-7.432-1.63,22.646,22.646,0,0,0-6.769,2.672,27.982,27.982,0,0,1-2.672,1.357c-.622.266-.709.245-1.161-.278a17.914,17.914,0,0,1-3.276-5.56c-.325-.888-.2-1.02.335-1.385a28.326,28.326,0,0,1,4.141-2.362,23.689,23.689,0,0,1,10.437-2.35c3.521.058,6.226.958,8.27,2.751a9.976,9.976,0,0,1,3.467,7.271,15.407,15.407,0,0,1-4.5,10.855q-.444.455-.882.916t-.868.9a1.633,1.633,0,0,0-.52,1.414,1.617,1.617,0,0,0,.894,1.193c4.411,2.439,9.157.607,13.021-5.026.728-1.061,1.379-2.19,2.01-3.282,1.9-3.292,3.695-6.4,7.373-7.531,5.091-1.564,9.393-.583,12.785,2.917,6.128,6.322,7.533,19.116,4.961,26.644Z" transform="translate(376.616 256.164)" fill="#f26000" stroke="#6c757d" stroke-width="1" opacity="0.23"/>
  <path id="swastik-2" data-name="swastik" d="M5.743,2.5a7.626,7.626,0,0,0-1.919.266,1.1,1.1,0,0,0,0,2.125,5.438,5.438,0,0,1,4.113,5.287V31.021l.017-.184A4.4,4.4,0,0,0,9.209,34.7l.013.021.03.03A.2.2,0,0,0,9.3,34.8h0a4.392,4.392,0,0,0,3.71,1.152l-.176.021H27.679V46.938h-17A7.685,7.685,0,0,0,3,54.615v3.29a7.643,7.643,0,0,0,.266,1.919,1.1,1.1,0,0,0,2.125,0,5.438,5.438,0,0,1,5.287-4.113H32.053a4.409,4.409,0,0,0,4.387-5.094l.013.176V35.97H47.422v17A7.685,7.685,0,0,0,55.1,60.648h3.29a7.662,7.662,0,0,0,1.924-.266,1.1,1.1,0,0,0,0-2.125A5.438,5.438,0,0,1,56.2,52.97V32.122l-.013.18a4.469,4.469,0,0,0-4.439-5.15h-.013a3.729,3.729,0,0,0-.441.043H36.454V16.227h17A7.685,7.685,0,0,0,61.132,8.55V5.259a7.609,7.609,0,0,0-.266-1.915,1.1,1.1,0,0,0-2.125,0,5.434,5.434,0,0,1-5.287,4.109H32.6l.18.021A4.27,4.27,0,0,0,32,7.414a4.465,4.465,0,0,0-4.3,5.133l-.017-.176V27.2H16.711v-17A7.685,7.685,0,0,0,9.033,2.521H6.788L6.84,3.563a1.1,1.1,0,0,0-1.1-1.041ZM7.328,4.694H9.033a5.448,5.448,0,0,1,5.484,5.484v18.1a1.1,1.1,0,0,0,1.1,1.1H28.776a1.1,1.1,0,0,0,1.1-1.1V12.35a1.1,1.1,0,0,0-.013-.176,2.19,2.19,0,0,1,.677-1.962l.017-.021a2.194,2.194,0,0,1,1.478-.613,1.562,1.562,0,0,1,.39.03,1.1,1.1,0,0,0,.18.021H53.454a7.266,7.266,0,0,0,5.484-2.8V8.532a5.448,5.448,0,0,1-5.484,5.484h-18.1a1.1,1.1,0,0,0-1.1,1.1V28.275a1.1,1.1,0,0,0,1.1,1.1H51.295a1.1,1.1,0,0,0,.18-.021,1.723,1.723,0,0,1,.3-.03,2.234,2.234,0,0,1,1.512.574l.013.021a2.194,2.194,0,0,1,.72,2.01,1.1,1.1,0,0,0-.017.18V52.953a7.27,7.27,0,0,0,2.806,5.484H55.1a5.448,5.448,0,0,1-5.484-5.484v-18.1a1.1,1.1,0,0,0-1.1-1.1H35.357a1.1,1.1,0,0,0-1.1,1.1V50.777a1.1,1.1,0,0,0,.017.176A2.173,2.173,0,0,1,32.083,53.5h-21.4a7.271,7.271,0,0,0-5.484,2.8V54.6a5.448,5.448,0,0,1,5.484-5.484h18.1a1.1,1.1,0,0,0,1.1-1.1V34.856a1.1,1.1,0,0,0-1.1-1.1H12.838a1.1,1.1,0,0,0-.171.021,2.189,2.189,0,0,1-1.855-.574l-.017-.021h0l-.03-.03-.021-.021a2.191,2.191,0,0,1-.626-1.932,1.1,1.1,0,0,0,.017-.18V10.178A7.266,7.266,0,0,0,7.328,4.694ZM22.2,17.307a4.387,4.387,0,1,0,4.387,4.387A4.4,4.4,0,0,0,22.2,17.307Zm19.743,0a4.387,4.387,0,1,0,4.387,4.387A4.4,4.4,0,0,0,41.938,17.307ZM22.2,19.5A2.194,2.194,0,1,1,20,21.694,2.177,2.177,0,0,1,22.2,19.5Zm19.743,0a2.194,2.194,0,1,1-2.194,2.194A2.177,2.177,0,0,1,41.938,19.5ZM22.2,37.049a4.387,4.387,0,1,0,4.387,4.387A4.4,4.4,0,0,0,22.2,37.049Zm19.743,0a4.387,4.387,0,1,0,4.387,4.387A4.4,4.4,0,0,0,41.938,37.049ZM22.2,39.243A2.194,2.194,0,1,1,20,41.437,2.177,2.177,0,0,1,22.2,39.243Zm19.743,0a2.194,2.194,0,1,1-2.194,2.194A2.177,2.177,0,0,1,41.938,39.243Z" transform="translate(1574.001 153)" fill="#f26000" stroke="#6c757d" stroke-width="1" fill-rule="evenodd" opacity="0.14"/>
  <path id="swastik-3" data-name="swastik" d="M5.743,2.5a7.626,7.626,0,0,0-1.919.266,1.1,1.1,0,0,0,0,2.125,5.438,5.438,0,0,1,4.113,5.287V31.021l.017-.184A4.4,4.4,0,0,0,9.209,34.7l.013.021.03.03A.2.2,0,0,0,9.3,34.8h0a4.392,4.392,0,0,0,3.71,1.152l-.176.021H27.679V46.938h-17A7.685,7.685,0,0,0,3,54.615v3.29a7.643,7.643,0,0,0,.266,1.919,1.1,1.1,0,0,0,2.125,0,5.438,5.438,0,0,1,5.287-4.113H32.053a4.409,4.409,0,0,0,4.387-5.094l.013.176V35.97H47.422v17A7.685,7.685,0,0,0,55.1,60.648h3.29a7.662,7.662,0,0,0,1.924-.266,1.1,1.1,0,0,0,0-2.125A5.438,5.438,0,0,1,56.2,52.97V32.122l-.013.18a4.469,4.469,0,0,0-4.439-5.15h-.013a3.729,3.729,0,0,0-.441.043H36.454V16.227h17A7.685,7.685,0,0,0,61.132,8.55V5.259a7.609,7.609,0,0,0-.266-1.915,1.1,1.1,0,0,0-2.125,0,5.434,5.434,0,0,1-5.287,4.109H32.6l.18.021A4.27,4.27,0,0,0,32,7.414a4.465,4.465,0,0,0-4.3,5.133l-.017-.176V27.2H16.711v-17A7.685,7.685,0,0,0,9.033,2.521H6.788L6.84,3.563a1.1,1.1,0,0,0-1.1-1.041ZM7.328,4.694H9.033a5.448,5.448,0,0,1,5.484,5.484v18.1a1.1,1.1,0,0,0,1.1,1.1H28.776a1.1,1.1,0,0,0,1.1-1.1V12.35a1.1,1.1,0,0,0-.013-.176,2.19,2.19,0,0,1,.677-1.962l.017-.021a2.194,2.194,0,0,1,1.478-.613,1.562,1.562,0,0,1,.39.03,1.1,1.1,0,0,0,.18.021H53.454a7.266,7.266,0,0,0,5.484-2.8V8.532a5.448,5.448,0,0,1-5.484,5.484h-18.1a1.1,1.1,0,0,0-1.1,1.1V28.275a1.1,1.1,0,0,0,1.1,1.1H51.295a1.1,1.1,0,0,0,.18-.021,1.723,1.723,0,0,1,.3-.03,2.234,2.234,0,0,1,1.512.574l.013.021a2.194,2.194,0,0,1,.72,2.01,1.1,1.1,0,0,0-.017.18V52.953a7.27,7.27,0,0,0,2.806,5.484H55.1a5.448,5.448,0,0,1-5.484-5.484v-18.1a1.1,1.1,0,0,0-1.1-1.1H35.357a1.1,1.1,0,0,0-1.1,1.1V50.777a1.1,1.1,0,0,0,.017.176A2.173,2.173,0,0,1,32.083,53.5h-21.4a7.271,7.271,0,0,0-5.484,2.8V54.6a5.448,5.448,0,0,1,5.484-5.484h18.1a1.1,1.1,0,0,0,1.1-1.1V34.856a1.1,1.1,0,0,0-1.1-1.1H12.838a1.1,1.1,0,0,0-.171.021,2.189,2.189,0,0,1-1.855-.574l-.017-.021h0l-.03-.03-.021-.021a2.191,2.191,0,0,1-.626-1.932,1.1,1.1,0,0,0,.017-.18V10.178A7.266,7.266,0,0,0,7.328,4.694ZM22.2,17.307a4.387,4.387,0,1,0,4.387,4.387A4.4,4.4,0,0,0,22.2,17.307Zm19.743,0a4.387,4.387,0,1,0,4.387,4.387A4.4,4.4,0,0,0,41.938,17.307ZM22.2,19.5A2.194,2.194,0,1,1,20,21.694,2.177,2.177,0,0,1,22.2,19.5Zm19.743,0a2.194,2.194,0,1,1-2.194,2.194A2.177,2.177,0,0,1,41.938,19.5ZM22.2,37.049a4.387,4.387,0,1,0,4.387,4.387A4.4,4.4,0,0,0,22.2,37.049Zm19.743,0a4.387,4.387,0,1,0,4.387,4.387A4.4,4.4,0,0,0,41.938,37.049ZM22.2,39.243A2.194,2.194,0,1,1,20,41.437,2.177,2.177,0,0,1,22.2,39.243Zm19.743,0a2.194,2.194,0,1,1-2.194,2.194A2.177,2.177,0,0,1,41.938,39.243Z" transform="translate(162.001 766.351)" fill="#f26000" stroke="#6c757d" stroke-width="1" fill-rule="evenodd" opacity="0.14"/>
</svg>
