<svg id="Component_14_1" data-name="Component 14 – 1" xmlns="http://www.w3.org/2000/svg" width="38.52" height="38.527" viewBox="0 0 38.52 38.527">
  <path id="home-location-alt" d="M38.52,15.61V30.5a8.035,8.035,0,0,1-8.025,8.025h-1.6a1.6,1.6,0,1,1,0-3.21h1.6A4.815,4.815,0,0,0,35.31,30.5V15.61a4.815,4.815,0,0,0-2.122-3.992L21.953,4.038a4.781,4.781,0,0,0-5.386,0L5.332,11.618A4.815,4.815,0,0,0,3.21,15.61V30.5a4.815,4.815,0,0,0,4.815,4.815h1.6a1.6,1.6,0,1,1,0,3.21h-1.6A8.035,8.035,0,0,1,0,30.5V15.61A8.014,8.014,0,0,1,3.531,8.957L14.766,1.375a7.994,7.994,0,0,1,8.978,0L34.979,8.957A8.025,8.025,0,0,1,38.52,15.61Zm-8.025,8.479a11.158,11.158,0,0,1-3.29,7.943L21.563,37.55a3.311,3.311,0,0,1-4.606,0l-5.629-5.505a11.235,11.235,0,1,1,19.167-7.956Zm-3.21,0a8.025,8.025,0,1,0-13.7,5.674L19.2,35.255l5.746-5.505A7.958,7.958,0,0,0,27.285,24.089Zm-3.21-.011a4.815,4.815,0,1,1-4.815-4.815A4.815,4.815,0,0,1,24.075,24.078Z" transform="translate(0 0.004)" fill="#2d4356"/>
  <circle id="Ellipse_191" data-name="Ellipse 191" cx="5.45" cy="5.45" r="5.45" transform="translate(13.215 19.92) rotate(-9)" fill="#f26000"/>
</svg>
