<svg xmlns="http://www.w3.org/2000/svg" xmlns:xlink="http://www.w3.org/1999/xlink" width="328" height="456" viewBox="0 0 328 456">
  <defs>
    <clipPath id="clip-path">
      <rect id="Rectangle_169" data-name="Rectangle 169" width="328" height="456" transform="translate(0 7578)" fill="#fff" stroke="#707070" stroke-width="1"/>
    </clipPath>
  </defs>
  <g id="Mask_Group_24" data-name="Mask Group 24" transform="translate(0 -7578)" clip-path="url(#clip-path)">
    <g id="swastik" transform="translate(-338.187 7578.441)" opacity="0.03">
      <path id="Path_649" data-name="Path 649" d="M35.83,358.147a26.939,26.939,0,0,1,13.392-6.683c16.785-2.57,33.6-5.141,50.69-4.164a42.516,42.516,0,0,1,38.378,31.8,32.722,32.722,0,0,1-16.117,37.992,43.107,43.107,0,0,1-49.662-5.475c-14.292-12.7-22.955-30.1-36.681-43.236Zm66.37,43.467c6.915-.437,15.294-2.57,16.348-12.441,1.131-10.642-5.27-18.3-15.14-20.8-10.77-2.7-22-.36-33.005.668-2.313.231-3.933,1.182-3.573,4.035C67.833,381,92.021,401.563,102.2,401.614Z" transform="translate(-35.767 -166.201)" fill="#f26000"/>
      <path id="Path_650" data-name="Path 650" d="M244.764,595.106c-12.852-12.852-28.944-22.107-41.616-35.37-11.439-12-14.318-25.705-10.282-41.308,4.447-17.145,17.993-27.761,34.085-27.35s35.473,14.677,37.812,29.612c3.547,22.62,0,45.061-4.7,67.219-.565,2.57-3.29,4.807-4.987,7.2Zm1.619-54.778c.463-15.705-5.141-25.088-15.911-28.275-7.2-2.083-12.467.565-16.04,6.786-5.629,9.768-2.982,20.2,8.328,30.1,6.221,5.423,13.033,16.348,19.536,13.649s2.468-15.14,4.138-22.261Z" transform="translate(208.144 59.916)" fill="#f26000"/>
      <path id="Path_651" data-name="Path 651" d="M35.893,459.192c5.347-1.465,5.989-7.711,10.282-10.282,6.3,6.76,12.647,13.5,18.893,20.307,7.429,8.071,0,7.326-4.833,8.02-9.048,0-17.839-.565-24.445-7.943Z" transform="translate(-35.83 -6.289)" fill="#f26000"/>
      <path id="Path_652" data-name="Path 652" d="M135.883,541.319c-2.288,4.524-8.92,4.7-10.282,10.282H115.319c-7.891-8.585-7.506-19.356-7.969-29.921,2.57-5.45,5.3-1.876,7.711.232C122.079,528.261,128.942,534.739,135.883,541.319Z" transform="translate(76.555 103.473)" fill="#f26000"/>
      <path id="Path_653" data-name="Path 653" d="M298.536,507.3c-11.465,1.131-23.906-.926-34.393-10.925-15.757-15.012-18.636-36.861-6.221-51.41s39.509-17.839,54.649-5.861c16.143,12.852,28.147,29.406,39.354,46.423,5.141,7.891,1.722,14.395-8.328,16.451a262.909,262.909,0,0,1-45.061,5.321Zm2.159-20.435c18.353-.823,23.135-1.748,22.62-3.907-1.825-7.3-7.917-11.85-12.493-17.325a53.813,53.813,0,0,0-10.076-9.716c-8.483-5.912-22.621-3.445-27.53,4.344-4.55,7.146-.54,17.993,8.611,23.906,6.144,4.087,13.032,2.441,18.739,2.7Z" transform="translate(300.891 -33.166)" fill="#f26000"/>
      <path id="Path_654" data-name="Path 654" d="M266.152,333.968a41.617,41.617,0,0,1-9.768,31.463c-13.881,15.963-35.19,19.844-50.3,8.766-15.423-11.362-20.564-38.147-8.74-54.289,12.672-17.505,30.486-29.664,48.428-41.128,7.454-4.807,13.238-.694,14.96,7.711a263.332,263.332,0,0,1,5.424,47.477Zm-20.05-5.141c-1.722-6.529,2.57-17.711-4.164-20.178-5.861-2.185-12.03,7.557-17.788,12.364a47.854,47.854,0,0,0-9.459,10.154c-5.681,8.791-2.828,22.877,5.012,27.17s20.9-1.311,25.037-11.259C247.1,341.319,246.076,335.279,246.1,328.827Z" transform="translate(207.68 -276.69)" fill="#f26000"/>
      <path id="Path_655" data-name="Path 655" d="M207.9,313.186a239.233,239.233,0,0,1,28.121,42.259c6.5,12.338,14.6,21.258,28.275,24.754a71.189,71.189,0,0,1,11.593,5.141c10.282,13.11,10.282,13.11-3.342,20.564a273.639,273.639,0,0,0-60.664-21.053c-3.727-4.087-7.326-8.251-11.156-12.21-7.223-7.455-1.208-7.711,4.4-8.3,3.6-1.08,7.48,1.825,11.464-.977-9.639-17.094-21.309-32.8-32.414-48.84-4.987-7.249-7.711-5.141-11.619.591s-8.2,10.848-12.338,16.246c-8.766-5.424-9.1-11.13-1-17.762,4.241-3.47,7.712-7.711,11.773-11.619,11.027-10.848,13.547-10.77,22.852,1.157C197.668,307.993,201.241,312.646,207.9,313.186Z" transform="translate(148.847 -249.559)" fill="#f26000"/>
      <path id="Path_656" data-name="Path 656" d="M289.546,459.791c6.915,23.829,9.973,48.351,13.032,72.848,1.26,10.1-2.956,15.732-13.855,14.215-20.23-2.8-40.588-5.012-60.355-10.487-5.527-5.938-11.1-11.773-16.5-17.813-2.21-2.57-4.061-5.4,1.851-5.3,18.739,3.47,37.5,6.76,56.166,10.513,8.791,1.773,11.336-1,9.588-9.665-3.727-18.662-6.966-37.427-10.41-56.166-.283-10.95,4.267-11.747,11.953-5.552C283.942,454.753,286.693,457.323,289.546,459.791Z" transform="translate(237.366 -6.913)" fill="#f26000"/>
      <path id="Path_657" data-name="Path 657" d="M225.624,332.237a428.615,428.615,0,0,1,61.692-10.487c12.647-1.44,16.631,2.57,14.934,15.423-3.084,23.135-5.835,46.449-12.6,68.966-3.11,2.571-6.272,5.141-9.305,7.943-5.809,5.141-9.408,3.47-11.464-3.5,3.522-19.15,6.915-38.326,10.59-57.425,1.465-7.455-.771-10.051-8.457-8.534-19.1,3.753-38.275,7.12-57.425,10.642-6.657-3.239-2.93-6.606,0-9.819C217.476,340.823,221.563,336.607,225.624,332.237Z" transform="translate(237.566 -206.43)" fill="#f26000"/>
      <path id="Path_658" data-name="Path 658" d="M317.634,349.4c8.431.925,16.965,1.285,25.268,2.879,10.282,2.005,13.238,9.2,7.12,17.737a273.375,273.375,0,0,1-31.36,36.912c-12.338,11.953-26.862,13.958-42.542,9.434-25.7-7.4-32.877-29.535-17.145-51.538l16.168,10.513c-3.342,6.349-6.015,12.852,1.388,18.122,8.046,5.655,17.12,6.3,25.062.54a77.942,77.942,0,0,0,21.078-23.289c-5.012-3.419-10.462-2.133-15.269-3.65C305.476,358.011,315.089,355.8,317.634,349.4Z" transform="translate(301.662 -162.569)" fill="#f26000"/>
      <path id="Path_659" data-name="Path 659" d="M133.6,359.691c24.831-4.164,30.383-27.324,42.953-43.57,7.712-6.4,15.423-12.133,24.394-2.134l-16.734,27.993,28.275-2.776c2.057-1.08,2.57-5.4,5.552-3.727,2.159,1.208.591,3.907-.8,5.423-7.892,8.637-15.423,17.711-27.4,21.155a304.657,304.657,0,0,0-55.806,18.43c-8.277-2.75-12.853-6.606-4.576-14.626A35.449,35.449,0,0,0,133.6,359.691Z" transform="translate(104.414 -226.687)" fill="#f26000"/>
      <path id="Path_660" data-name="Path 660" d="M197.078,331.321a35.451,35.451,0,0,1-4.036,6.169c-8.174,8.02-3.7,11.876,4.576,14.626a219.984,219.984,0,0,0-82.1,79.686c-2.57-8.817-6.812-11.773-13.7-3.444a26.579,26.579,0,0,1-9.742,7.866c4.447-9-1.08-16.965-2.571-25.32-1.517-7.711-3.213-15.423-4.833-23.263,6.195,5.784,12.467,11.516,18.585,17.351,3.753,3.6,7.095,5.141,12.21,1.671C143.74,387.1,144.2,376.82,117.11,356.641a7.917,7.917,0,0,1,12-1.979,128.523,128.523,0,0,1,12.647,11.927c-1.028,7.583,3.162,7.891,8.02,5.141a51.126,51.126,0,0,0,9.228-8.482C177,345.254,177,345.254,161.4,326.644,173.455,326.361,184.251,336.463,197.078,331.321Z" transform="translate(40.936 -198.317)" fill="#f26000"/>
      <path id="Path_661" data-name="Path 661" d="M250.434,491.351c-23.134,6.092-37.915,21.412-47.323,42.876-2.159,4.909-6.143,9-9.279,13.469-5.655-4.241-11.027-8.714-12.852-16.04,3.419-6.144,6.837-12.313,10.822-19.433H179.874c-3.393-.977-8.431,1.542-10-2.828-1.234-3.444,3.008-5.552,5.141-7.712,3.573-3.469,7.506-6.606,11.284-9.871a275.359,275.359,0,0,0,60.638-21.1C261.2,477.393,261.256,477.7,250.434,491.351Z" transform="translate(174.404 27.948)" fill="#f26000"/>
      <path id="Path_662" data-name="Path 662" d="M115.914,377.106a26.574,26.574,0,0,0,9.742-7.866c6.889-8.328,11.079-5.372,13.7,3.445A280.176,280.176,0,0,0,118.3,433.477c-1.542,3.5-2.211,7.917-4.781,10.282-5.4,4.884-7.223,15.423-17.993,12.416.848-8.92,1.671-17.839,2.57-28.1L78.513,438.9c-10.565-3.547-10.822-10.282-6.041-18.842a54.653,54.653,0,0,1,8.148-5.964C96.995,406.2,110.978,396,115.914,377.106Z" transform="translate(17.095 -139.148)" fill="#f26000"/>
      <path id="Path_663" data-name="Path 663" d="M84.69,490.672c1.8-8.663,2.571-17.711,5.681-25.91A33.083,33.083,0,0,0,89.523,437c4.344,3.882,8.894,7.506,12.853,11.67,5.629,5.783,9.819,5.423,13.058-2.134a221.063,221.063,0,0,0,76.652,76.755c-4.653,6.015-4.627,11.413,1.517,16.631a91.166,91.166,0,0,1,8.508,9.511c-15.192-9.485-28.97,2.8-43.519,2.853,17.994-22.954,17.994-22.98-3.7-43.493-3.239-3.059-6.3-8.3-11.644-5.141-4.524,2.57-10.051,5.578-7.917,12.852-8.714,11.645-12.03,12.056-20.2,2.57,8.149-3.393,13.624-10.051,19.767-15.937,5.141-4.807,5.141-9.254,0-14.086-28.275-26.5-20.2-31.874-49.508.9Z" transform="translate(40.967 -24.993)" fill="#f26000"/>
      <path id="Path_664" data-name="Path 664" d="M241.5,325.66c-4.036,4.37-8.123,8.688-12.107,13.11-2.879,3.213-6.606,6.581,0,9.819,1.876,6.94,9.279,8.123,13.341,12.852,5.141,5.861,9.742,6.812,15.14-.154,4.781-6.118,11.31-10.411,17.993-3.059,6.2,6.735,1.157,12.184-3.727,17.428-2.571,2.57-8.791,5.141-4.267,9.922,5.655,6.066,8.38,14.806,16.708,18.379,2.057,6.966,5.655,8.662,11.464,3.5,3.033-2.57,6.195-5.3,9.305-7.943a135.833,135.833,0,0,1-7.711,30.692c-8.534-10.025-14.549-1.388-21.181,2.827-1.491-2.57-3.008-5.141-4.524-7.866a7.712,7.712,0,0,0,9.768-3.933c2.57-4.576-1.414-7.069-3.984-9.691-6.246-6.426-12.647-12.7-19-19-4.6-4.6-8.071-4.4-9.819,2.57l-7.917-8.123c6.94-1.774,6.786-5.141,2.339-9.742-5.629-5.707-11.7-11.053-16.888-17.119-7.043-8.251-12.853-8.663-18.3,1.285a14.4,14.4,0,0,1-8.38-4.936c13.752-7.583,13.752-7.583,3.342-20.564A199.667,199.667,0,0,1,241.5,325.66Z" transform="translate(221.685 -199.853)" fill="#f26000"/>
      <path id="Path_665" data-name="Path 665" d="M203.137,541.623c10.822-13.649,10.77-13.958-3.367-20.718l11.053-6.812c3.445,9.948,8.714,10.282,15.6,3.084,5.861-6.04,11.876-11.927,17.788-17.993,3.984-4.01,4.756-7.892-.591-11.413l5.3-5.526c3.521,5.423,7.429,4.781,11.516.746,5.449-5.4,10.539-11.157,16.348-16.117,9.177-7.712,7.711-14.035-1.825-19.819a14.241,14.241,0,0,1,4.627-8.354c3.367,8.586,7.2,16.143,17.993,8.328a128.193,128.193,0,0,1,7.532,28.1c-2.853-2.57-5.6-5.141-8.534-7.4-7.712-6.195-12.236-5.4-11.953,5.552-6.94,1.9-8.123,9.3-12.853,13.367-5.886,5.141-6.786,9.742.154,15.14,5.629,4.344,10.282,10.411,3.933,17.2-6.812,7.377-12.672,2.57-18.3-2.853-2.571-2.57-5.141-8.791-9.922-4.241-6.066,5.629-14.806,8.38-18.379,16.708-5.912,0-4.061,2.8-1.851,5.3,5.4,6.041,10.976,11.875,16.5,17.814A209.22,209.22,0,0,1,203.137,541.623Z" transform="translate(221.701 -22.323)" fill="#f26000"/>
      <path id="Path_666" data-name="Path 666" d="M52.45,439.243a41.977,41.977,0,0,1,47.4.283,32.158,32.158,0,0,1,13.135,34.522C109.078,491.039,94.812,504.739,78.438,507a44.63,44.63,0,0,1-20.1-.488c1.054-7.48,9.1-11.053,10.282-18.482a10.969,10.969,0,0,1,1.234-.334c14.472-2.082,24.857-10.976,23.34-21.412-2.108-14.446-14.009-13.135-24.471-13.6A33.648,33.648,0,0,0,52.45,439.243Z" transform="translate(-9.665 -32.763)" fill="#f26000"/>
      <path id="Path_667" data-name="Path 667" d="M178.852,300.4c5.912,16.4,2.853,31.308-9.254,43.467-9.871,9.948-22.672,11.9-35.473,6.632-15.911-6.555-26.682-17.994-27.89-36.193a54.9,54.9,0,0,1,1.105-19c8.945-4.19,12.287,5.141,18.4,7.712.18,2.57.308,5.141.488,7.557.9,12.107,9.922,22.826,19.87,22.415,12.364-.515,13.958-10.282,15.423-19.716C167.645,309.475,171.269,302.226,178.852,300.4Z" transform="translate(74.225 -249.19)" fill="#f26000"/>
      <path id="Path_668" data-name="Path 668" d="M107.219,546.645c-3.367-19.947.694-37.041,18.636-48.84,13.881-9.151,29.741-9.074,41.462.129,12.853,10.154,17.145,27.838,11.1,46.063A83.366,83.366,0,0,1,161.1,526.133c-6.76-15.654-16.5-18.482-27.736-7.866a73.112,73.112,0,0,0-6.349,7.866C122.745,535.207,123.773,549.473,107.219,546.645Z" transform="translate(74.655 59.794)" fill="#f26000"/>
      <path id="Path_669" data-name="Path 669" d="M123.491,363.647c27.093,20.178,26.656,30.461-1.645,50.022-5.141,3.522-8.457,1.928-12.21-1.671-6.118-5.835-12.39-11.567-18.585-17.351-5.758-19.819-7.712-40.306-10.282-60.664-.617-4.73-.283-9.357,4.935-11.773,3.522,8.432,13.058,12.467,15.706,21.541,5.809,21.361,7.069,43.7,14.626,66.319a114.283,114.283,0,0,1,9.742-12.081c7.4-6.838,7.969-12.544-.566-19.125C120.1,374.983,117.707,369.379,123.491,363.647Z" transform="translate(34.452 -205.271)" fill="#f26000"/>
      <path id="Path_670" data-name="Path 670" d="M91.329,472.336l.848-.951c29.3-32.774,21.31-27.4,49.508-.9,5.141,4.833,4.961,9.28,0,14.086-6.143,5.887-11.619,12.544-19.767,15.937-4.138-7.917,2.9-11.156,6.58-15.86,1.851-2.365,6.683-4.293,3.187-8.123-5.4-5.887-8.637-13.88-16.811-18.533-4.755,22.363-9.048,43.853-13.418,65.265a69.4,69.4,0,0,1-19.073,18.636c-4.421-9.665,0-19.1,1.26-28.455C85.494,499.635,88.707,486.037,91.329,472.336Z" transform="translate(34.328 -6.657)" fill="#f26000"/>
      <path id="Path_671" data-name="Path 671" d="M98.226,345.127c-2.57-9.074-12.184-13.109-15.706-21.541,4.138-3.522,8.971-2.031,13.418-1.363,23.135,3.419,46.269,6.118,68.735,12.7,15.629,18.636,15.654,18.636-2.391,36.6a51.154,51.154,0,0,1-9.228,8.483c-4.858,2.853-9.048,2.57-8.02-5.141L167.886,356.1C143.287,351.322,121.412,344.407,98.226,345.127Z" transform="translate(37.56 -206.647)" fill="#f26000"/>
      <path id="Path_672" data-name="Path 672" d="M298.188,432.433a249.557,249.557,0,0,1-46.038,28.276c1.311-11.542-10.411-13.546-15.14-20.564l2.57-12.853c3.239-3.779,6.3-7.711,9.793-11.284,2.262-2.262,4.421-6.478,7.866-5.141,4.37,1.568,1.825,6.632,2.828,10.051V433.05L287.7,416.393C290.554,422.022,296.877,425.6,298.188,432.433Z" transform="translate(280.186 -66.438)" fill="#f26000"/>
      <path id="Path_673" data-name="Path 673" d="M98.2,462.263a49.559,49.559,0,0,1-17.12-9.845,51.66,51.66,0,0,0-6.863-8.919c-8.431-7.095-6.478-12.519,2.005-17.428l23.134,13.084-2.8-28.1c-.18-6.606,3.393-4.781,6.349-2.571,5.141,3.856,9.716,8.174,14.523,12.313A48.016,48.016,0,0,1,120,438.178C117.682,450.747,109.174,457.636,98.2,462.263Z" transform="translate(15.995 -72.954)" fill="#f26000"/>
      <path id="Path_674" data-name="Path 674" d="M109.322,458.142c-8.483,4.91-10.436,10.282-2,17.428a51.682,51.682,0,0,1,6.863,8.92c-21.875-11.644-41.334-26.81-60.587-42-7.48-5.912-8.123-13.238-.206-19.227,17.248-13.084,34.136-26.733,53.235-37.221-4.781,8.457-4.524,15.294,6.041,18.842a15.192,15.192,0,0,1-8.1,5.449c-5.141-9.614-10.539-10.539-18.379-2.031-26.733,28.97-27.993,16.605,2.211,48.172,6.529,6.837,10.847,5.475,13.315-3.393a13.6,13.6,0,0,1,7.609,5.064Z" transform="translate(-17.106 -105.026)" fill="#f26000"/>
      <path id="Path_675" data-name="Path 675" d="M259.64,380.07a199.57,199.57,0,0,1,47.606,31.206v2.57c-8.663-2.108-13.007,2.416-15.423,10l-31.72-20.23c-2.879,4.19-.129,8.072-1.259,11.67-.437,6.452-1.388,11.644-8.714,4.267-3.778-3.778-7.866-7.223-11.824-10.8l-.566-4.447C243.832,395.03,252.006,387.781,259.64,380.07Z" transform="translate(281.333 -114.402)" fill="#f26000"/>
      <path id="Path_676" data-name="Path 676" d="M149.334,517.564a52.462,52.462,0,0,1-10.154-17.2c7.712-7.506,14.96-15.732,24.137-21.7a50.094,50.094,0,0,1,17.325,2.57c4.91,5.6,9.871,11.156,14.7,16.811,1.388,1.594,2.57,3.83.72,5.527s-3.676-.54-5.347-1.542l-28.61-3.213,13.469,23.34c-3.393,11.079-8.92,11.053-16.374,3.393a103.07,103.07,0,0,0-9.871-7.994Z" transform="translate(126.544 40.422)" fill="#f26000"/>
      <path id="Path_677" data-name="Path 677" d="M143.13,493.79a102.988,102.988,0,0,1,9.948,7.995c7.454,7.711,12.981,7.711,16.374-3.393,2.571,2.185,4.858,4.37,4.781,8.046-6.041,5.758-6.478,11.079.334,16.888a172.565,172.565,0,0,1,15.243,15.115c6.246,6.837,11.542,6.041,18.173,0,7.712-7.069,12.853-16.734,22.338-21.978l1.26,1c-7.48,13.341-17.145,25.088-26.682,36.912-5.732,7.12-12.853,8.817-19.125.746C170.583,535.457,154.954,515.87,143.13,493.79Z" transform="translate(132.747 64.196)" fill="#f26000"/>
      <path id="Path_678" data-name="Path 678" d="M112.084,476.258c-2.133-7.171,3.393-10.282,7.917-12.852,5.347-3.059,8.406,2.185,11.644,5.141,21.7,20.564,21.669,20.564,3.7,43.493a20.742,20.742,0,0,1-12.236,2.571c-11.413.514-17.274-7.712-23.571-15.114l41.668-9.46c-7.454-5.964-13.084-10.282-18.4-14.806C118.716,471.889,115.4,472.762,112.084,476.258Z" transform="translate(64.289 15.022)" fill="#f26000"/>
      <path id="Path_679" data-name="Path 679" d="M163.545,319.915c-7.583,1.825-11.207,9.074-17.428,12.853-3.059-16.528-19.022-21.978-28.275-33.134-5.4-5.578.437-8.868,2.57-12.852l5.141-4.961C141.387,291.228,156.656,301.381,163.545,319.915Z" transform="translate(89.532 -268.703)" fill="#f26000"/>
      <path id="Path_680" data-name="Path 680" d="M80.23,442.838C91.206,438.211,99.714,431.322,102,418.83a334.347,334.347,0,0,0,20.564,56.217c-3.239,7.557-7.429,7.917-13.058,2.134-4.036-4.164-8.585-7.712-12.852-11.67C91.412,457.824,91.1,446.488,80.23,442.838Z" transform="translate(33.963 -53.529)" fill="#f26000"/>
      <path id="Path_681" data-name="Path 681" d="M128.327,477.063c6.3,7.48,12.158,15.628,23.571,15.114-19.51,5.989-39.766,7.711-59.841,10.282a9.87,9.87,0,0,1-10.848-4.807,69.405,69.405,0,0,0,19.073-18.636C109.923,482.384,118.894,476.086,128.327,477.063Z" transform="translate(35.502 37.764)" fill="#f26000"/>
      <path id="Path_682" data-name="Path 682" d="M229.62,371.985c6.632-4.216,12.647-12.852,21.181-2.827q6.478,15.243,13.007,30.486c-2.442,8.483-9.1,13.315-15.68,18.225Z" transform="translate(268.58 -138.859)" fill="#f26000"/>
      <path id="Path_683" data-name="Path 683" d="M169.5,345.319c-9.048-10-16.76-4.267-24.394,2.133,10.282-19.2,23.906-36.193,37.4-53.158,6.118-7.711,13.135-7.531,19.1.386,6.657,8.817,12.852,17.993,19.279,26.964-6.658-.54-10.282-5.141-13.958-9.973-9.305-11.927-11.824-12-22.852-1.157-3.958,3.856-7.532,8.148-11.773,11.619-8.1,6.632-7.711,12.338,1,17.762Z" transform="translate(135.857 -258.017)" fill="#f26000"/>
      <path id="Path_684" data-name="Path 684" d="M246.6,422.06c4.73,7.12,16.451,9.125,15.14,20.564l-12.853,30.512c-10.9,7.711-14.729.257-17.993-8.328Q238.7,443.472,246.6,422.06Z" transform="translate(270.575 -48.456)" fill="#f26000"/>
      <path id="Path_685" data-name="Path 685" d="M69.411,434.85a33.644,33.644,0,0,1,16.22,13.444c-11.927,6.734-18.4,18.945-28.1,27.916-9.048,1.645-11.644-5.938-15.886-11.156C49.361,453.563,57.69,442.664,69.411,434.85Z" transform="translate(-26.627 -28.37)" fill="#f26000"/>
      <path id="Path_686" data-name="Path 686" d="M157.878,524.894c-8.791,12.852-20.77,22-33.416,30.358,0-7.017-9.948-9.794-7.711-17.814,9.382-9.614,21.9-16.143,28.275-28.738C150.963,512.53,154.022,518.956,157.878,524.894Z" transform="translate(90.804 87.612)" fill="#f26000"/>
      <path id="Path_687" data-name="Path 687" d="M138.548,496.7a91.2,91.2,0,0,0-8.508-9.511c-6.143-5.141-6.169-10.616-1.517-16.631l45.909,18.4c-4.91,6.555-9.742,13.212-18.2,15.628Z" transform="translate(104.607 27.713)" fill="#f26000"/>
      <path id="Path_688" data-name="Path 688" d="M277.423,394.76v-2.57c12.518,4.627,21.824,14.009,31.669,22.338,6.2,5.27,6.015,12.21-.72,17.351-13.418,10.282-26.27,21.258-41.128,29.432-1.311-6.837-7.711-10.41-10.513-16.22l5.449-3.83c6.966,10.977,14.5,9.845,22.569,1.182a148,148,0,0,1,11.747-11.67c6.272-5.4,5.141-10.462.874-16.58C291.894,406.43,282.126,403.218,277.423,394.76Z" transform="translate(311.156 -95.367)" fill="#f26000"/>
      <path id="Path_689" data-name="Path 689" d="M270.079,375.661,253.91,365.147c5.552-8.919,13.161-14.678,23.932-15.6,6.838,1.234,18.379-2.9,19.639,2.571,1.851,7.994-8.509,11.8-15.629,15.243Z" transform="translate(306.728 -162.894)" fill="#f26000"/>
      <path id="Path_690" data-name="Path 690" d="M44.477,446.6c4.241,5.141,6.838,12.853,15.886,11.156-.514,5.27,3.444,4.755,6.683,5.141,7.095.8,14.215,1.543,21.309,2.314-1.131,7.429-9.177,11-10.282,18.482a58.766,58.766,0,0,1-24.163-2.571c4.884-.694,12.261,0,4.833-8.02-6.246-6.812-12.6-13.547-18.893-20.307Z" transform="translate(-29.454 -9.916)" fill="#f26000"/>
      <path id="Path_691" data-name="Path 691" d="M132.326,543.686c-2.159,8.02,7.712,10.8,7.712,17.814l-2.725,2.056c-6.94-6.5-13.8-13.058-20.821-19.458-2.313-2.108-4.91-5.681-7.712-.231a42.261,42.261,0,0,1-2.133-18.662c16.631,2.827,15.423-11.439,19.793-20.564A155.623,155.623,0,0,0,126.8,526C127.853,532.041,123.869,539.907,132.326,543.686Z" transform="translate(75.048 81.236)" fill="#f26000"/>
      <path id="Path_692" data-name="Path 692" d="M138.406,289.487l-5.141,4.961c-8.508-2-11.233,5.758-16.014,9.742-5.321,4.421-8.663,5.013-9.871-2.982a50.56,50.56,0,0,1,.231-6.247c1.08-6.889.566-15.192,9.228-17.582,8.071-2.236,13.212,3.059,17.582,9.1a16.6,16.6,0,0,0,3.984,3.008Z" transform="translate(76.577 -276.498)" fill="#f26000"/>
      <path id="Path_693" data-name="Path 693" d="M109.067,290.659c1.208,7.994,4.55,7.4,9.871,2.982,4.781-3.984,7.506-11.747,16.014-9.742-2.185,4.061-8.02,7.351-2.57,12.852-4.164-.489-4.653,2.21-5.141,5.424-.617,5.835-1.517,11.644-2.288,17.453-6.118-2.57-9.46-11.824-18.4-7.711A50.845,50.845,0,0,1,109.067,290.659Z" transform="translate(74.941 -265.949)" fill="#f26000"/>
      <path id="Path_694" data-name="Path 694" d="M267.23,368.509c7.12-3.444,17.479-7.249,15.629-15.243-1.259-5.552-12.852-1.414-19.639-2.57,11.593-3.753,23.135-1.979,34.728.18-2.57,6.4-12.287,8.611-10.282,17.659Z" transform="translate(321.349 -163.967)" fill="#f26000"/>
      <path id="Path_695" data-name="Path 695" d="M137.28,493.411c8.457-2.416,13.289-9.074,18.2-15.628A17.171,17.171,0,0,1,166.3,480.2c-9.177,5.963-16.348,14.189-24.137,21.695Z" transform="translate(123.56 38.895)" fill="#f26000"/>
      <path id="Path_696" data-name="Path 696" d="M236.882,396.395c6.58-4.91,13.238-9.742,15.68-18.225l8.585,4.884c-7.711,7.711-15.808,14.96-21.824,24.188a17.147,17.147,0,0,1-2.442-10.848Z" transform="translate(279.826 -117.385)" fill="#f26000"/>
      <path id="Path_697" data-name="Path 697" d="M140.544,531.176c-3.856-5.809-6.915-12.236-13.084-16.194l.154-10.282a83.371,83.371,0,0,0,17.325,17.865A9.665,9.665,0,0,1,140.544,531.176Z" transform="translate(108.138 81.33)" fill="#f26000"/>
      <path id="Path_698" data-name="Path 698" d="M177.421,494.42c1.825,7.326,7.2,11.8,12.852,16.04l-3.984,6.015c-.411-.334-.823-.669-1.26-.977a37.5,37.5,0,0,0-13.11-12.852,15.423,15.423,0,0,1,5.5-8.226Z" transform="translate(177.962 65.185)" fill="#f26000"/>
      <path id="Path_699" data-name="Path 699" d="M173.092,335.617c.128-5.141,0-10.282.488-15.218a9.665,9.665,0,0,1,9.973-9.537c5.758,0,10.848,3.8,9.948,9.228-2.339,14.112,5.835,16.888,16.657,17.994-5.6.591-11.619.848-4.4,8.3,3.83,3.958,7.429,8.123,11.156,12.21a23.977,23.977,0,0,1-12.7-2.082c-16.657-21.412-18.739-21.438-35.987-.36l-17.993,2.39c11.9-3.444,19.51-12.518,27.4-21.155,1.388-1.517,2.956-4.216.8-5.424C175.662,330.219,175.148,334.537,173.092,335.617Z" transform="translate(143.914 -223.099)" fill="#f26000"/>
      <path id="Path_700" data-name="Path 700" d="M202.4,499.377c-10.668,1.105-19.382,3.5-16.94,17.814.823,4.935-4.01,8.483-9.2,8.714a9.485,9.485,0,0,1-10.539-8.919,144.4,144.4,0,0,1-.334-15.3c1.671,1,3.265,3.393,5.347,1.543s.668-3.933-.72-5.527c-4.833-5.655-9.794-11.207-14.7-16.811a346.191,346.191,0,0,0,53.646-2c-3.779,3.264-7.712,6.4-11.285,9.871-2.262,2.236-6.5,4.344-5.141,7.711C193.97,500.919,199.008,498.4,202.4,499.377Z" transform="translate(151.876 40.795)" fill="#f26000"/>
      <path id="Path_701" data-name="Path 701" d="M94.683,435.089c-4.678,0-9.331,0-14.009-.334-6.426-.334-10.693-3.83-10.693-10.282s4.241-9.871,10.693-10.282c4.653-.232,9.331-.232,13.984-.334,10.873,3.059,12.7-7.532,17.994-12.416,2.57-2.339,3.239-6.761,4.781-10.282a362.415,362.415,0,0,0-1.979,53.595c-4.807-4.138-9.511-8.457-14.523-12.312C98.076,430.309,94.5,428.483,94.683,435.089Z" transform="translate(17.865 -96.985)" fill="#f26000"/>
      <path id="Path_702" data-name="Path 702" d="M241.994,386.2,218.86,356.047c1.748-6.863,5.141-7.069,9.819-2.57,6.349,6.3,12.852,12.57,19,19,2.57,2.57,6.477,5.141,3.984,9.691a7.711,7.711,0,0,1-9.665,4.036Z" transform="translate(251.682 -160.939)" fill="#f26000"/>
      <path id="Path_703" data-name="Path 703" d="M235.954,369.651,203,344.075c5.424-9.948,11.259-9.537,18.3-1.285,5.141,6.066,11.259,11.413,16.888,17.12C242.74,364.382,242.894,367.877,235.954,369.651Z" transform="translate(226.773 -182.666)" fill="#f26000"/>
      <path id="Path_704" data-name="Path 704" d="M218.89,477.139,244.878,442c9.485,5.783,11,12.03,1.825,19.819-5.809,4.961-10.9,10.719-16.348,16.117C226.319,481.919,222.411,482.562,218.89,477.139Z" transform="translate(251.729 -17.141)" fill="#f26000"/>
      <path id="Path_705" data-name="Path 705" d="M204.07,484.035l32.8-26.245c5.347,3.522,4.576,7.4.591,11.413-5.912,5.99-11.927,11.876-17.788,17.994C212.784,494.317,207.514,494.059,204.07,484.035Z" transform="translate(228.454 7.658)" fill="#f26000"/>
      <path id="Path_706" data-name="Path 706" d="M258.636,397.8c1.234,10.513,3.239,19.433,17.762,16.863,5.424-.977,9.382,4.087,9.382,9.845s-3.958,10.822-9.408,9.845c-14.549-2.57-16.477,6.426-17.762,16.914-1-3.419,1.542-8.483-2.828-10.051-3.445-1.259-5.6,2.956-7.866,5.141-3.5,3.522-6.555,7.506-9.794,11.284a36.53,36.53,0,0,1,2.262-15.294c22.98-18.276,22.955-20.77-.206-38.326A24.473,24.473,0,0,1,238.1,391.17c3.958,3.573,8.046,7.018,11.824,10.8C257.2,409.446,258.148,404.254,258.636,397.8Z" transform="translate(281.668 -96.969)" fill="#f26000"/>
      <path id="Path_707" data-name="Path 707" d="M93.4,400.25c-7.48,5.6-14.7,11.593-22.543,16.657-7.095,4.575-5.886,7.506.334,11.593,6.709,4.422,12.853,9.64,19.356,14.5-2.57,8.868-6.786,10.282-13.315,3.393-30.2-31.566-28.944-19.2-2.211-48.171C82.861,389.711,88.259,390.636,93.4,400.25Z" transform="translate(-6.017 -95.047)" fill="#f26000"/>
      <path id="Path_708" data-name="Path 708" d="M258.95,440.058c6.118-4.6,12.081-9.408,18.379-13.726,4.884-3.342,5.141-5.861,0-9.279-6.349-4.267-12.39-9.023-18.559-13.547,2.339-7.583,6.683-12.107,15.423-10,4.7,8.457,14.472,11.67,19.921,19.485,4.293,6.118,5.4,11.182-.874,16.58a147.988,147.988,0,0,0-11.747,11.67C273.448,449.9,265.916,451.034,258.95,440.058Z" transform="translate(314.36 -94.113)" fill="#f26000"/>
      <path id="Path_709" data-name="Path 709" d="M158.049,500.484c3.47,4.216,7.12,8.277,10.282,12.673,10.462,14.215,10.282,14.24,21.181-.489,3.727-5.141,7.711-10.076,11.439-15.089a37.5,37.5,0,0,1,13.11,12.852c-9.46,5.141-14.6,14.883-22.338,21.952-6.632,6.092-11.927,6.889-18.174,0a172.5,172.5,0,0,0-15.243-15.115C151.571,511.512,152.008,506.371,158.049,500.484Z" transform="translate(148.855 70.148)" fill="#f26000"/>
      <path id="Path_710" data-name="Path 710" d="M152.519,475.067c-6.478-4.087-8.2-10.025-8.071-17.5.386-19.176,0-38.352.257-57.553.154-9.588-1.465-17.814-10.95-22.492-1.928-.951-4.293-2.339-3.239-4.576a7.944,7.944,0,0,1,5.141-3.008c21.387-4.4,34.625,6.581,34.753,28.738,0,12.852.437,25.7-.231,38.352-.437,8.38,2.391,11.618,10.693,10.8,6.735-.668,13.521-.746,20.281-1.079,5.424-16.94,1.054-34.214,1.851-51.41,2.982-7.917,8.791-10.59,17.042-10.282,17.994.334,35.781,0,53.7.206,8.791.128,16.04-1.7,19.793-10.591.823-1.954,1.825-4.344,4.293-4.061,3.316.36,3.213,3.419,3.47,5.912,2.7,25.191-7.377,38.558-30.846,36.835-10.591-.771-21.335.385-31.926-.309-8.174-.514-10.154,2.571-9.922,10.282.925,27.813-4.884,24.754,23.829,24.291,34.547-.566,34.6-.848,34.6,34.111,0,12.852.128,25.576,0,38.352-.18,10.487-.386,20.821,11.207,26.167a3.548,3.548,0,0,1,2.442,3.959c-.437,2.571-2.571,2.9-4.73,3.445-19.124,5.141-34.393-6.246-34.881-26.193-.334-13.624-.668-27.273.18-40.845.591-9.536-3.5-11.978-11.747-11.156a17,17,0,0,1-2.57-.128c-18.276-.437-18.3-.437-18.276,17.608v25.577c0,15.705-3.984,19.9-19.3,19.972-16.631,0-33.237.309-49.868,0-9.562-.206-17.994.925-22.055,11.079-.848,2.108-2.133,4.4-4.421,3.393a7.146,7.146,0,0,1-3.085-5.141c-3.367-25.7,8.611-39.149,28.944-37.581,11.439.9,22.98,0,34.5,0,6.606,1.414,10.822,0,10-7.994s-1.388-16.554-2.082-24.831C185.267,472.136,168.739,476.995,152.519,475.067Zm141.635-91.3c-8.02,10.282-17.994,8.406-27.736,8.483s-18.765,0-28.121,0c-29.124,0-29.124,0-29.124,29.1,0,33.982,0,33.622-34.265,33.416-9.537,0-11.362-3.7-11.1-12.056q.771-23.623,0-47.3c-.437-13.726-6.195-18.585-18.688-16.888,4.73,6.118,5.784,13.084,5.707,20.564-.206,19.176.206,38.378-.206,57.554-.18,8.714,2.982,12.852,11.876,12.261a67.611,67.611,0,0,1,10.282,0c11.747,1,27.042-5.347,34.316,2.725s1.131,22.878,2.236,34.65c.9,9.459-3.47,11.593-11.927,11.31-14.472-.488-29-.463-43.467,0-12.647.437-17.582,7.12-15.192,19.587,5.912-5.141,12.852-6.324,20.307-6.092,11.49.385,23.135,0,34.522,0,28.43,0,28.43,0,28.43-28.275,0-35.087,0-34.8,35.01-34.162,8.483.154,11,2.853,10.693,11.13-.566,16.169-.463,32.388,0,48.582.334,12.852,6.889,18.354,18.79,16.4-5.141-6.452-6.143-13.778-6.015-21.7.308-17.454,0-34.933,0-52.413,0-16.091,0-16.091-16.682-16.117h-5.141c-38.249,0-38.018,0-36.938-38.558.206-8.02,2.982-10.282,10.513-10.153q22.415.591,44.778,0C289.578,405.535,294.025,400.085,294.154,383.763Z" transform="translate(111.123 -131.821)" fill="#f26000"/>
      <path id="Path_711" data-name="Path 711" d="M194.823,424.521c-.463,9.434-4.884,14.652-12.6,14.652-8.354,0-13.264-5.681-12.853-14.138s4.935-13.521,13.829-12.981C191.584,412.542,194.309,418.351,194.823,424.521ZM175.9,425.6c.437,3.8,2.442,6.58,6.349,6.4a6.349,6.349,0,0,0,6.2-6.735A6.04,6.04,0,0,0,182,418.917c-4.087.051-5.835,2.8-6.092,6.683Z" transform="translate(173.927 -64.232)" fill="#f26000"/>
      <path id="Path_712" data-name="Path 712" d="M171.952,404.964c-2.416,7.455-7.377,11.362-15.423,9.793-6.812-1.336-9.691-6.889-9.871-13.058a12.853,12.853,0,0,1,9.254-13.624c8.046-2.416,12.647,2.236,15.886,8.894Zm-5.938-4.7c-1.362-2.57-2.75-5.86-6.915-5.4a5.963,5.963,0,0,0-5.655,6.94,5.681,5.681,0,0,0,6.606,5.887C163.958,407.328,165.809,404.732,166.015,400.259Z" transform="translate(138.19 -102.846)" fill="#f26000"/>
      <path id="Path_713" data-name="Path 713" d="M238.8,396.2c23.135,17.556,23.135,20.05.206,38.326Q238.928,415.376,238.8,396.2Z" transform="translate(282.998 -89.069)" fill="#f26000"/>
      <path id="Path_714" data-name="Path 714" d="M195.051,401.578c-.951,7.583-4.5,13.5-13.469,13.135-8.123-.308-12.158-5.758-12.261-13.418,0-8.534,4.987-13.958,13.315-13.752C190.321,387.775,194.537,393.224,195.051,401.578Zm-6.3-.437c-1.028-3.368-2.442-6.555-6.581-6.581a5.964,5.964,0,0,0-6.221,6.606,5.758,5.758,0,0,0,6.221,6.452c4.087-.026,5.809-2.828,6.581-6.452Z" transform="translate(173.879 -102.674)" fill="#f26000"/>
      <path id="Path_715" data-name="Path 715" d="M171.886,430.349c-3.162,6.323-7.866,9.665-15.269,8.251a12.132,12.132,0,0,1-9.716-10.462c-1.516-7.711,2.339-12.852,9.151-16.168h5.321C171.5,414.309,171.911,422.329,171.886,430.349Zm-5.732-4.935c-.642-3.984-2.93-6.529-6.735-6.452a6.58,6.58,0,0,0,.36,13.135A6.76,6.76,0,0,0,166.154,425.414Z" transform="translate(138.154 -64.303)" fill="#f26000"/>
      <path id="Path_716" data-name="Path 716" d="M157.28,338.076c17.145-21.078,19.227-21.053,35.987.36Z" transform="translate(154.97 -205.096)" fill="#f26000"/>
      <path id="Path_717" data-name="Path 717" d="M225.379,452.606c-1.208,6.144-4.755,10.051-11.259,9.408a9.254,9.254,0,0,1-8.945-10.282A9.408,9.408,0,0,1,216.2,442.2C222.012,442.633,224.994,446.643,225.379,452.606Z" transform="translate(230.099 -17.054)" fill="#f26000"/>
      <path id="Path_718" data-name="Path 718" d="M125.851,379.811c-1.054,6.169-4.55,10.282-11.053,9.665a9.228,9.228,0,0,1-9.151-10.282,9.357,9.357,0,0,1,10.822-9.742C122.252,369.94,125.311,373.9,125.851,379.811Z" transform="translate(73.785 -131.262)" fill="#f26000"/>
      <path id="Path_719" data-name="Path 719" d="M181.764,359.661c-5.629-1-9.459-4.164-9.434-10.051a10,10,0,1,1,19.947.977C191.609,356.345,187.6,359.327,181.764,359.661Z" transform="translate(178.606 -177.997)" fill="#f26000"/>
      <path id="Path_720" data-name="Path 720" d="M146.33,349.8c.72-6.221,3.958-10.282,10.513-10.282a9.228,9.228,0,0,1,9.691,9.64,9.356,9.356,0,0,1-10.282,10.282C150.366,359.516,147.255,355.634,146.33,349.8Z" transform="translate(137.773 -178.109)" fill="#f26000"/>
      <path id="Path_721" data-name="Path 721" d="M144.656,477.334c-6.786-1.234-10.745-4.781-10.128-11.284a9.229,9.229,0,0,1,10.282-9.023,9.434,9.434,0,0,1,9.665,10.951C154.013,473.838,149.8,476.562,144.656,477.334Z" transform="translate(119.14 6.364)" fill="#f26000"/>
      <path id="Path_722" data-name="Path 722" d="M194.793,477.193c-6.452-.874-10.282-3.933-10.539-9.793a10,10,0,1,1,19.973.257C203.918,473.569,199.677,476.268,194.793,477.193Z" transform="translate(197.322 6.479)" fill="#f26000"/>
      <path id="Path_723" data-name="Path 723" d="M228.076,439.347c-6.221-.874-10.282-4.242-9.922-10.8a9.228,9.228,0,0,1,9.948-9.382,9.356,9.356,0,0,1,10.025,10.564C237.766,435.645,233.834,438.7,228.076,439.347Z" transform="translate(250.537 -53.045)" fill="#f26000"/>
      <path id="Path_724" data-name="Path 724" d="M241.322,403.967c-.643,6.272-3.881,10.282-10.436,10.282a9.228,9.228,0,0,1-9.768-9.588A9.382,9.382,0,0,1,231.4,394.25C237.209,394.43,240.345,398.286,241.322,403.967Z" transform="translate(255.13 -92.209)" fill="#f26000"/>
      <path id="Path_725" data-name="Path 725" d="M222.128,369.29c6.863.643,11,3.882,11,10.282a9.228,9.228,0,0,1-9.511,9.845,9.382,9.382,0,0,1-10.487-10.128C213.054,373.428,217.167,370.575,222.128,369.29Z" transform="translate(242.629 -131.332)" fill="#f26000"/>
      <path id="Path_726" data-name="Path 726" d="M118.964,403.517c-1.414,6.555-4.987,10.462-11.49,9.691a9.254,9.254,0,0,1-8.791-10.385,9.408,9.408,0,0,1,11.207-9.357C115.725,393.955,118.4,398.17,118.964,403.517Z" transform="translate(62.833 -93.636)" fill="#f26000"/>
      <path id="Path_727" data-name="Path 727" d="M206.589,350.4c6.169,1.08,10.282,4.55,9.639,11.053a9.254,9.254,0,0,1-10.282,9.151,9.382,9.382,0,0,1-9.665-10.95C196.693,353.973,200.651,350.94,206.589,350.4Z" transform="translate(216.012 -160.999)" fill="#f26000"/>
      <path id="Path_728" data-name="Path 728" d="M133.611,370.726c-6.221-.771-10.282-4.087-10.076-10.642a9.2,9.2,0,0,1,9.768-9.562,9.356,9.356,0,0,1,10.282,10.41C143.379,366.819,139.446,369.827,133.611,370.726Z" transform="translate(101.961 -160.889)" fill="#f26000"/>
      <path id="Path_729" data-name="Path 729" d="M168.764,482.092c-5.629-1-9.485-4.164-9.434-10.051a10,10,0,1,1,19.947.977C178.763,478.776,174.753,481.757,168.764,482.092Z" transform="translate(158.189 14.279)" fill="#f26000"/>
      <path id="Path_730" data-name="Path 730" d="M133.822,451.062c-.848,6.221-4.19,10.282-10.745,10.025a9.254,9.254,0,0,1-9.485-9.871,9.357,9.357,0,0,1,10.488-10.1C129.94,441.294,133,445.227,133.822,451.062Z" transform="translate(86.302 -18.646)" fill="#f26000"/>
      <path id="Path_731" data-name="Path 731" d="M111.456,439.482c-6.966-.874-11.027-4.164-10.822-10.719a9.229,9.229,0,0,1,9.794-9.562,9.382,9.382,0,0,1,10.282,10.411C120.53,435.574,116.34,438.325,111.456,439.482Z" transform="translate(65.997 -53.026)" fill="#f26000"/>
    </g>
  </g>
</svg>
