<svg xmlns="http://www.w3.org/2000/svg" xmlns:xlink="http://www.w3.org/1999/xlink" width="171" height="175" viewBox="0 0 171 175">
  <defs>
    <clipPath id="clip-path">
      <rect id="Rectangle_168" data-name="Rectangle 168" width="171" height="175" transform="translate(372 5549)" fill="#fff" stroke="#707070" stroke-width="1"/>
    </clipPath>
  </defs>
  <g id="Mask_Group_23" data-name="Mask Group 23" transform="translate(-372 -5549)" clip-path="url(#clip-path)">
    <g id="swastik" transform="translate(277.627 5548.956)" opacity="0.21">
      <path id="Path_649" data-name="Path 649" d="M35.83,351.456a10.641,10.641,0,0,1,5.29-2.64c6.631-1.015,13.271-2.031,20.024-1.645a16.8,16.8,0,0,1,15.16,12.56,12.926,12.926,0,0,1-6.367,15.007,17.028,17.028,0,0,1-19.617-2.163c-5.646-5.016-9.067-11.89-14.49-17.079Zm26.217,17.17c2.731-.173,6.042-1.015,6.458-4.914.447-4.2-2.082-7.23-5.981-8.215-4.255-1.066-8.692-.142-13.038.264-.914.091-1.554.467-1.411,1.594C48.472,360.483,58.027,368.606,62.047,368.626Z" transform="translate(-35.829 -275.607)" fill="#fff"/>
      <path id="Path_650" data-name="Path 650" d="M212.321,532.163c-5.077-5.077-11.433-8.733-16.439-13.972-4.518-4.742-5.656-10.154-4.062-16.317,1.757-6.773,7.108-10.966,13.464-10.8s14.012,5.8,14.936,11.7c1.4,8.935,0,17.8-1.858,26.553-.223,1.015-1.3,1.9-1.97,2.843Zm.64-21.638c.183-6.2-2.031-9.91-6.285-11.169-2.843-.823-4.925.223-6.336,2.681-2.224,3.858-1.178,7.981,3.29,11.89,2.457,2.142,5.148,6.458,7.717,5.392s.975-5.981,1.635-8.793Z" transform="translate(-33.438 -273.39)" fill="#fff"/>
      <path id="Path_651" data-name="Path 651" d="M35.831,452.972c2.112-.579,2.366-3.046,4.062-4.062,2.488,2.671,5,5.331,7.463,8.022,2.935,3.188,0,2.894-1.909,3.168-3.574,0-7.047-.223-9.656-3.138Z" transform="translate(-35.83 -274.039)" fill="#fff"/>
      <path id="Path_652" data-name="Path 652" d="M118.621,527.695c-.9,1.787-3.523,1.858-4.062,4.062H110.5c-3.117-3.391-2.965-7.646-3.148-11.819,1.015-2.153,2.092-.741,3.046.091C113.168,522.537,115.879,525.1,118.621,527.695Z" transform="translate(-34.728 -272.964)" fill="#fff"/>
      <path id="Path_653" data-name="Path 653" d="M269.29,461.622c-4.529.447-9.443-.366-13.586-4.315-6.224-5.93-7.362-14.561-2.457-20.308s15.607-7.047,21.587-2.315c6.377,5.077,11.119,11.616,15.546,18.338,2.031,3.117.68,5.686-3.29,6.5a103.863,103.863,0,0,1-17.8,2.1Zm.853-8.072c7.25-.325,9.139-.691,8.936-1.543-.721-2.884-3.127-4.681-4.935-6.844a21.249,21.249,0,0,0-3.98-3.838c-3.351-2.335-8.936-1.361-10.875,1.716-1.8,2.823-.213,7.108,3.4,9.443,2.427,1.614,5.148.965,7.4,1.066Z" transform="translate(-32.529 -274.303)" fill="#fff"/>
      <path id="Path_654" data-name="Path 654" d="M220.591,299.343a16.44,16.44,0,0,1-3.859,12.428c-5.483,6.306-13.9,7.839-19.871,3.463-6.092-4.488-8.123-15.069-3.452-21.445,5.006-6.915,12.043-11.718,19.13-16.246,2.945-1.9,5.229-.274,5.91,3.046a104.022,104.022,0,0,1,2.142,18.754Zm-7.92-2.031c-.68-2.579,1.015-7-1.645-7.971-2.315-.863-4.752,2.985-7.027,4.884a18.907,18.907,0,0,0-3.737,4.011c-2.244,3.473-1.117,9.037,1.98,10.733s8.255-.518,9.89-4.447C213.067,302.247,212.661,299.861,212.671,297.312Z" transform="translate(-33.443 -276.69)" fill="#fff"/>
      <path id="Path_655" data-name="Path 655" d="M174.917,301.585a94.5,94.5,0,0,1,11.108,16.693c2.569,4.874,5.767,8.4,11.169,9.778a28.123,28.123,0,0,1,4.579,2.031c4.062,5.179,4.062,5.179-1.32,8.123a108.093,108.093,0,0,0-23.963-8.316c-1.472-1.614-2.894-3.259-4.407-4.823-2.853-2.945-.477-3.046,1.736-3.28,1.422-.427,2.955.721,4.529-.386-3.808-6.752-8.418-12.956-12.8-19.292-1.97-2.863-3.046-2.031-4.59.234s-3.239,4.285-4.874,6.417c-3.463-2.142-3.595-4.4-.4-7.016,1.675-1.371,3.046-3.046,4.651-4.59,4.356-4.285,5.351-4.254,9.027.457C170.875,299.534,172.287,301.372,174.917,301.585Z" transform="translate(-34.02 -276.424)" fill="#fff"/>
      <path id="Path_656" data-name="Path 656" d="M241.268,452.968c2.731,9.413,3.94,19.1,5.148,28.776.5,3.99-1.168,6.214-5.473,5.615-7.991-1.107-16.033-1.98-23.841-4.143-2.183-2.346-4.387-4.651-6.519-7.037-.873-1.015-1.6-2.132.731-2.092,7.4,1.371,14.815,2.67,22.186,4.153,3.473.7,4.478-.4,3.787-3.818-1.472-7.372-2.752-14.784-4.112-22.186-.112-4.326,1.686-4.64,4.722-2.193C239.054,450.977,240.141,451.993,241.268,452.968Z" transform="translate(-33.152 -274.046)" fill="#fff"/>
      <path id="Path_657" data-name="Path 657" d="M216.094,325.725a169.312,169.312,0,0,1,24.369-4.143c5-.569,6.57,1.015,5.9,6.092-1.218,9.139-2.3,18.348-4.975,27.243-1.229,1.015-2.478,2.031-3.676,3.138-2.295,2.031-3.716,1.371-4.529-1.381,1.391-7.565,2.731-15.14,4.183-22.684.579-2.945-.3-3.97-3.341-3.371-7.544,1.483-15.119,2.813-22.684,4.2-2.63-1.279-1.158-2.61,0-3.879C212.876,329.116,214.49,327.451,216.094,325.725Z" transform="translate(-33.15 -276.001)" fill="#fff"/>
      <path id="Path_658" data-name="Path 658" d="M277.131,349.4c3.33.366,6.7.508,9.981,1.137,4.062.792,5.229,3.635,2.813,7.006a107.976,107.976,0,0,1-12.388,14.581c-4.874,4.722-10.611,5.514-16.8,3.727-10.154-2.924-12.987-11.667-6.773-20.359l6.387,4.153c-1.32,2.508-2.376,5.077.548,7.158,3.178,2.234,6.763,2.488,9.9.213a30.789,30.789,0,0,0,8.326-9.2c-1.98-1.35-4.133-.843-6.031-1.442C272.328,352.8,276.126,351.928,277.131,349.4Z" transform="translate(-32.522 -275.571)" fill="#fff"/>
      <path id="Path_659" data-name="Path 659" d="M128.451,328.766c9.809-1.645,12-10.794,16.967-17.211,3.046-2.528,6.092-4.793,9.636-.843l-6.61,11.058,11.169-1.1c.812-.426,1.015-2.132,2.193-1.472.853.477.234,1.543-.315,2.142-3.117,3.412-6.092,7-10.824,8.357a120.349,120.349,0,0,0-22.044,7.28c-3.27-1.086-5.077-2.61-1.807-5.778A14,14,0,0,0,128.451,328.766Z" transform="translate(-34.455 -276.2)" fill="#fff"/>
      <path id="Path_660" data-name="Path 660" d="M129.073,328.488a14,14,0,0,1-1.594,2.437c-3.229,3.168-1.462,4.691,1.807,5.778A86.9,86.9,0,0,0,96.855,368.18c-1.015-3.483-2.691-4.651-5.412-1.361a10.5,10.5,0,0,1-3.848,3.107c1.757-3.554-.426-6.7-1.015-10-.6-3.046-1.269-6.092-1.909-9.189,2.447,2.285,4.925,4.549,7.341,6.854,1.482,1.422,2.8,2.031,4.823.66,11.169-7.727,11.352-11.789.65-19.76a3.127,3.127,0,0,1,4.742-.782,50.771,50.771,0,0,1,5,4.711c-.406,3,1.249,3.117,3.168,2.031a20.2,20.2,0,0,0,3.645-3.351c7.108-7.108,7.108-7.108.944-14.459C119.742,326.528,124.006,330.519,129.073,328.488Z" transform="translate(-35.078 -275.922)" fill="#fff"/>
      <path id="Path_661" data-name="Path 661" d="M201.564,478.864c-9.139,2.406-14.977,8.458-18.693,16.937-.853,1.939-2.427,3.554-3.666,5.321-2.234-1.675-4.356-3.442-5.077-6.336,1.35-2.427,2.7-4.864,4.275-7.676h-4.711c-1.34-.386-3.33.609-3.95-1.117-.487-1.361,1.188-2.193,2.031-3.046,1.411-1.371,2.965-2.609,4.458-3.9a108.775,108.775,0,0,0,23.953-8.336C205.818,473.35,205.839,473.472,201.564,478.864Z" transform="translate(-33.769 -273.704)" fill="#fff"/>
      <path id="Path_662" data-name="Path 662" d="M87.828,369.367a10.5,10.5,0,0,0,3.848-3.107c2.721-3.29,4.376-2.122,5.412,1.361a110.676,110.676,0,0,0-8.316,24.014c-.609,1.381-.873,3.127-1.889,4.062-2.132,1.929-2.853,6.092-7.108,4.9.335-3.523.66-7.047,1.015-11.1l-7.737,4.275c-4.173-1.4-4.275-4.061-2.386-7.443a21.593,21.593,0,0,1,3.219-2.356C80.355,380.861,85.878,376.83,87.828,369.367Z" transform="translate(-35.311 -275.342)" fill="#fff"/>
      <path id="Path_663" data-name="Path 663" d="M84.69,458.2c.711-3.422,1.015-7,2.244-10.235A13.068,13.068,0,0,0,86.6,437c1.716,1.533,3.513,2.965,5.077,4.61,2.224,2.285,3.879,2.142,5.158-.843a87.325,87.325,0,0,0,30.279,30.32c-1.838,2.376-1.828,4.508.6,6.57a36.012,36.012,0,0,1,3.361,3.757c-6-3.747-11.444,1.107-17.191,1.127,7.108-9.068,7.108-9.078-1.462-17.181-1.279-1.208-2.488-3.28-4.6-2.031-1.787,1.015-3.97,2.2-3.127,5.077-3.442,4.6-4.752,4.762-7.981,1.015,3.219-1.34,5.382-3.97,7.808-6.3,2.031-1.9,2.031-3.655,0-5.564-11.169-10.469-7.981-12.591-19.556.355Z" transform="translate(-35.077 -274.223)" fill="#fff"/>
      <path id="Path_664" data-name="Path 664" d="M216.25,325.66c-1.594,1.726-3.209,3.432-4.783,5.179-1.137,1.269-2.61,2.6,0,3.879.741,2.741,3.666,3.209,5.27,5.077,2.031,2.315,3.848,2.691,5.981-.061,1.889-2.417,4.468-4.112,7.108-1.208,2.447,2.66.457,4.813-1.472,6.884-1.015,1.015-3.473,2.031-1.686,3.919,2.234,2.4,3.31,5.849,6.6,7.26.812,2.752,2.234,3.422,4.529,1.381,1.2-1.015,2.447-2.092,3.676-3.138a53.651,53.651,0,0,1-3.046,12.124c-3.371-3.96-5.747-.548-8.367,1.117-.589-1.015-1.188-2.031-1.787-3.107a3.046,3.046,0,0,0,3.858-1.553c1.015-1.808-.558-2.793-1.574-3.828-2.467-2.538-5-5.016-7.5-7.5-1.818-1.818-3.188-1.736-3.879,1.015l-3.127-3.209c2.742-.7,2.681-2.031.924-3.848-2.224-2.254-4.62-4.366-6.671-6.762-2.782-3.259-5.077-3.422-7.23.508a5.686,5.686,0,0,1-3.31-1.95c5.432-3,5.432-3,1.32-8.123A78.873,78.873,0,0,1,216.25,325.66Z" transform="translate(-33.306 -275.937)" fill="#fff"/>
      <path id="Path_665" data-name="Path 665" d="M201.1,479.357c4.275-5.392,4.255-5.514-1.33-8.184l4.366-2.691c1.361,3.93,3.442,4.062,6.164,1.218,2.315-2.386,4.691-4.711,7.026-7.108,1.574-1.584,1.879-3.117-.234-4.509l2.092-2.183c1.391,2.142,2.934,1.889,4.549.295,2.153-2.132,4.163-4.407,6.458-6.367,3.625-3.046,3.046-5.544-.721-7.829a5.625,5.625,0,0,1,1.828-3.3c1.33,3.392,2.843,6.377,7.108,3.29a50.637,50.637,0,0,1,2.975,11.1c-1.127-1.015-2.214-2.031-3.371-2.924-3.046-2.447-4.833-2.132-4.722,2.193-2.742.751-3.209,3.676-5.077,5.28-2.325,2.031-2.681,3.848.061,5.981,2.224,1.716,4.062,4.112,1.554,6.793-2.691,2.914-5.006,1.015-7.23-1.127-1.015-1.015-2.031-3.473-3.919-1.675-2.4,2.224-5.849,3.31-7.26,6.6-2.335,0-1.6,1.107-.731,2.092,2.132,2.386,4.336,4.691,6.519,7.037A82.639,82.639,0,0,1,201.1,479.357Z" transform="translate(-33.306 -274.197)" fill="#fff"/>
      <path id="Path_666" data-name="Path 666" d="M52.45,434.893A16.581,16.581,0,0,1,71.174,435a12.7,12.7,0,0,1,5.189,13.637c-1.543,6.712-7.179,12.124-13.647,13.017a17.626,17.626,0,0,1-7.94-.193c.416-2.955,3.594-4.366,4.062-7.3a4.327,4.327,0,0,1,.487-.132c5.717-.822,9.819-4.336,9.22-8.458-.833-5.707-5.534-5.189-9.667-5.372A13.292,13.292,0,0,0,52.45,434.893Z" transform="translate(-35.574 -274.299)" fill="#fff"/>
      <path id="Path_667" data-name="Path 667" d="M134.7,296.677c2.335,6.478,1.127,12.368-3.655,17.17-3.9,3.93-8.956,4.7-14.012,2.62-6.285-2.589-10.54-7.108-11.017-14.3a21.688,21.688,0,0,1,.437-7.5c3.534-1.655,4.854,2.031,7.27,3.046.071,1.015.122,2.031.193,2.985.355,4.783,3.919,9.017,7.849,8.854,4.884-.2,5.514-4.062,6.092-7.788C130.27,300.261,131.7,297.4,134.7,296.677Z" transform="translate(-34.751 -276.42)" fill="#fff"/>
      <path id="Path_668" data-name="Path 668" d="M106.566,512.974c-1.33-7.88.274-14.632,7.362-19.293,5.483-3.615,11.748-3.584,16.378.051,5.077,4.011,6.773,11,4.387,18.2a32.923,32.923,0,0,1-6.844-7.057c-2.671-6.184-6.519-7.3-10.956-3.107a28.885,28.885,0,0,0-2.508,3.107C112.7,508.455,113.106,514.09,106.566,512.974Z" transform="translate(-34.747 -273.392)" fill="#fff"/>
      <path id="Path_669" data-name="Path 669" d="M97.507,338.578c10.7,7.971,10.53,12.032-.65,19.76-2.031,1.391-3.341.762-4.823-.66-2.417-2.3-4.894-4.569-7.341-6.854C82.418,343,81.647,334.9,80.631,326.861c-.244-1.868-.112-3.7,1.95-4.651,1.391,3.331,5.158,4.925,6.2,8.509,2.295,8.438,2.792,17.262,5.778,26.2a45.144,45.144,0,0,1,3.848-4.772c2.924-2.7,3.148-4.955-.223-7.555C96.167,343.056,95.223,340.843,97.507,338.578Z" transform="translate(-35.141 -275.99)" fill="#fff"/>
      <path id="Path_670" data-name="Path 670" d="M84.755,458.022l.335-.376c11.576-12.946,8.418-10.824,19.557-.355,2.031,1.909,1.96,3.666,0,5.564-2.427,2.325-4.59,4.955-7.808,6.3-1.635-3.127,1.147-4.407,2.6-6.265.731-.934,2.64-1.7,1.259-3.209-2.132-2.325-3.412-5.483-6.641-7.321-1.879,8.834-3.574,17.323-5.3,25.781a27.418,27.418,0,0,1-7.534,7.362c-1.746-3.818,0-7.544.5-11.24C82.45,468.805,83.719,463.434,84.755,458.022Z" transform="translate(-35.142 -274.043)" fill="#fff"/>
      <path id="Path_671" data-name="Path 671" d="M88.724,330.732c-1.015-3.584-4.813-5.178-6.2-8.509,1.635-1.391,3.544-.8,5.3-.538,9.139,1.351,18.277,2.417,27.152,5.016,6.174,7.362,6.184,7.362-.944,14.459a20.2,20.2,0,0,1-3.645,3.351c-1.919,1.127-3.574,1.015-3.168-2.031l9.027-7.412C106.524,333.18,97.883,330.448,88.724,330.732Z" transform="translate(-35.111 -276.003)" fill="#fff"/>
      <path id="Path_672" data-name="Path 672" d="M261.176,419.231A98.59,98.59,0,0,1,242.991,430.4c.518-4.559-4.112-5.351-5.981-8.123l1.015-5.077c1.279-1.493,2.488-3.046,3.869-4.458.894-.894,1.746-2.559,3.107-2.031,1.726.619.721,2.62,1.117,3.97v4.793l10.915-6.58C258.161,415.118,260.659,416.53,261.176,419.231Z" transform="translate(-32.732 -274.629)" fill="#fff"/>
      <path id="Path_673" data-name="Path 673" d="M80.406,428.5a19.576,19.576,0,0,1-6.763-3.889,20.411,20.411,0,0,0-2.711-3.523c-3.33-2.8-2.559-4.945.792-6.884l9.139,5.168-1.107-11.1c-.071-2.61,1.34-1.889,2.508-1.016,2.031,1.523,3.838,3.229,5.737,4.864a18.968,18.968,0,0,1,1.015,6.864C88.1,423.955,84.742,426.677,80.406,428.5Z" transform="translate(-35.322 -274.693)" fill="#fff"/>
      <path id="Path_674" data-name="Path 674" d="M72.049,414.522c-3.351,1.939-4.122,4.062-.792,6.884a20.416,20.416,0,0,1,2.711,3.523c-8.641-4.6-16.328-10.591-23.933-16.592-2.955-2.335-3.209-5.229-.081-7.6,6.813-5.168,13.484-10.56,21.029-14.7-1.889,3.341-1.787,6.042,2.386,7.443a6,6,0,0,1-3.2,2.153c-2.031-3.8-4.163-4.163-7.26-.8-10.56,11.444-11.058,6.56.873,19.029,2.579,2.7,4.285,2.163,5.26-1.34a5.372,5.372,0,0,1,3.006,2Z" transform="translate(-35.646 -275.007)" fill="#fff"/>
      <path id="Path_675" data-name="Path 675" d="M246.391,380.07A78.833,78.833,0,0,1,265.2,392.4v1.015c-3.422-.833-5.138.954-6.092,3.95l-12.53-7.991c-1.137,1.655-.051,3.188-.5,4.61-.173,2.549-.548,4.6-3.442,1.686-1.493-1.493-3.107-2.853-4.671-4.265l-.223-1.757C240.147,385.98,243.376,383.116,246.391,380.07Z" transform="translate(-32.721 -275.099)" fill="#fff"/>
      <path id="Path_676" data-name="Path 676" d="M143.191,494.023a20.722,20.722,0,0,1-4.011-6.793c3.046-2.965,5.91-6.214,9.535-8.57a19.791,19.791,0,0,1,6.844,1.015c1.939,2.214,3.9,4.407,5.808,6.641.548.629,1.015,1.513.284,2.183s-1.452-.213-2.112-.609l-11.3-1.269,5.321,9.22c-1.34,4.376-3.523,4.366-6.468,1.34a40.726,40.726,0,0,0-3.9-3.158Z" transform="translate(-34.238 -273.582)" fill="#fff"/>
      <path id="Path_677" data-name="Path 677" d="M143.13,493.79a40.719,40.719,0,0,1,3.93,3.158c2.945,3.046,5.128,3.046,6.468-1.34,1.015.863,1.919,1.726,1.889,3.178-2.386,2.275-2.559,4.376.132,6.671a68.17,68.17,0,0,1,6.021,5.971c2.467,2.7,4.559,2.386,7.179,0,3.046-2.792,5.077-6.61,8.824-8.682l.5.4c-2.955,5.27-6.773,9.91-10.54,14.581-2.264,2.813-5.077,3.483-7.555.295C153.974,510.25,147.8,502.512,143.13,493.79Z" transform="translate(-34.178 -273.349)" fill="#fff"/>
      <path id="Path_678" data-name="Path 678" d="M104.5,467.922c-.843-2.833,1.34-4.061,3.127-5.077,2.112-1.208,3.32.863,4.6,2.031,8.57,8.123,8.56,8.123,1.462,17.18a8.194,8.194,0,0,1-4.833,1.015c-4.508.2-6.823-3.046-9.311-5.971L116,473.365c-2.945-2.356-5.168-4.061-7.27-5.849C107.115,466.2,105.805,466.542,104.5,467.922Z" transform="translate(-34.849 -273.831)" fill="#fff"/>
      <path id="Path_679" data-name="Path 679" d="M134.547,296.868c-3,.721-4.427,3.584-6.884,5.077-1.208-6.529-7.514-8.682-11.169-13.089-2.132-2.2.173-3.5,1.015-5.077l2.031-1.96C125.794,285.536,131.826,289.547,134.547,296.868Z" transform="translate(-34.601 -276.612)" fill="#fff"/>
      <path id="Path_680" data-name="Path 680" d="M80.23,428.314c4.336-1.828,7.7-4.549,8.6-9.484a132.08,132.08,0,0,0,8.123,22.207c-1.279,2.985-2.935,3.127-5.158.843-1.594-1.645-3.391-3.046-5.077-4.61C84.647,434.234,84.525,429.756,80.23,428.314Z" transform="translate(-35.146 -274.503)" fill="#fff"/>
      <path id="Path_681" data-name="Path 681" d="M99.822,477c2.488,2.955,4.8,6.173,9.311,5.97-7.707,2.366-15.708,3.046-23.638,4.062a3.9,3.9,0,0,1-4.285-1.9,27.417,27.417,0,0,0,7.534-7.362C92.552,479.1,96.1,476.615,99.822,477Z" transform="translate(-35.131 -273.608)" fill="#fff"/>
      <path id="Path_682" data-name="Path 682" d="M229.62,367.455c2.62-1.665,5-5.077,8.367-1.117q2.559,6.021,5.138,12.043c-.965,3.351-3.594,5.26-6.194,7.2Z" transform="translate(-32.846 -275.339)" fill="#fff"/>
      <path id="Path_683" data-name="Path 683" d="M154.746,311.02c-3.574-3.95-6.62-1.686-9.636.843,4.062-7.585,9.443-14.3,14.774-21,2.417-3.046,5.189-2.975,7.544.152,2.63,3.483,5.077,7.108,7.615,10.651-2.63-.213-4.061-2.031-5.514-3.94-3.676-4.712-4.671-4.742-9.027-.457-1.564,1.523-2.975,3.219-4.651,4.59-3.2,2.62-3.046,4.874.4,7.016Z" transform="translate(-34.147 -276.507)" fill="#fff"/>
      <path id="Path_684" data-name="Path 684" d="M237.094,422.06c1.868,2.813,6.5,3.6,5.981,8.123L238,442.236c-4.305,3.046-5.818.1-7.108-3.29Q233.977,430.518,237.094,422.06Z" transform="translate(-32.826 -274.453)" fill="#fff"/>
      <path id="Path_685" data-name="Path 685" d="M52.616,434.85a13.291,13.291,0,0,1,6.407,5.31c-4.711,2.66-7.27,7.484-11.1,11.027-3.574.65-4.6-2.346-6.275-4.407C44.7,442.242,47.986,437.937,52.616,434.85Z" transform="translate(-35.74 -274.256)" fill="#fff"/>
      <path id="Path_686" data-name="Path 686" d="M132.8,515.1c-3.473,5.077-8.2,8.692-13.2,11.992,0-2.772-3.93-3.869-3.046-7.037,3.706-3.8,8.651-6.377,11.169-11.352C130.067,510.213,131.275,512.751,132.8,515.1Z" transform="translate(-34.589 -273.119)" fill="#fff"/>
      <path id="Path_687" data-name="Path 687" d="M130.48,480.886a36.03,36.03,0,0,0-3.361-3.757c-2.427-2.031-2.437-4.194-.6-6.57l18.135,7.27c-1.939,2.589-3.848,5.219-7.189,6.174Z" transform="translate(-34.453 -273.706)" fill="#fff"/>
      <path id="Path_688" data-name="Path 688" d="M264.9,393.205V392.19c4.945,1.828,8.621,5.534,12.51,8.824,2.447,2.082,2.376,4.823-.284,6.854-5.3,4.062-10.377,8.4-16.246,11.626-.518-2.7-3.046-4.112-4.153-6.407l2.153-1.513c2.752,4.336,5.727,3.889,8.915.467a58.458,58.458,0,0,1,4.64-4.61c2.478-2.132,2.031-4.133.345-6.549C270.621,397.815,266.762,396.546,264.9,393.205Z" transform="translate(-32.429 -274.913)" fill="#fff"/>
      <path id="Path_689" data-name="Path 689" d="M260.3,359.648,253.91,355.5c2.193-3.523,5.2-5.8,9.453-6.163,2.7.488,7.26-1.147,7.758,1.016.731,3.158-3.361,4.661-6.174,6.021Z" transform="translate(-32.472 -275.575)" fill="#fff"/>
      <path id="Path_690" data-name="Path 690" d="M41.678,446.6c1.675,2.031,2.7,5.077,6.275,4.407-.2,2.082,1.361,1.878,2.64,2.031,2.8.315,5.615.609,8.418.914-.447,2.935-3.625,4.346-4.062,7.3a23.212,23.212,0,0,1-9.545-1.016c1.929-.274,4.843,0,1.909-3.168-2.467-2.691-4.975-5.351-7.463-8.022Z" transform="translate(-35.768 -274.075)" fill="#fff"/>
      <path id="Path_691" data-name="Path 691" d="M116.635,520.064c-.853,3.168,3.046,4.265,3.046,7.037l-1.076.812c-2.742-2.569-5.453-5.158-8.225-7.686-.914-.833-1.939-2.244-3.046-.091a16.694,16.694,0,0,1-.843-7.372c6.57,1.117,6.092-4.518,7.819-8.123a61.474,61.474,0,0,0,.142,8.438C114.869,515.464,113.295,518.571,116.635,520.064Z" transform="translate(-34.743 -273.181)" fill="#fff"/>
      <path id="Path_692" data-name="Path 692" d="M119.626,281.846l-2.031,1.96c-3.361-.792-4.437,2.274-6.326,3.848-2.1,1.746-3.422,1.98-3.9-1.178a19.974,19.974,0,0,1,.091-2.467c.427-2.721.223-6,3.645-6.945,3.188-.883,5.219,1.208,6.945,3.595a6.558,6.558,0,0,0,1.574,1.188Z" transform="translate(-34.728 -276.688)" fill="#fff"/>
      <path id="Path_693" data-name="Path 693" d="M107.406,286.372c.477,3.158,1.8,2.924,3.9,1.178,1.889-1.574,2.965-4.64,6.326-3.848-.863,1.6-3.168,2.9-1.015,5.077-1.645-.193-1.838.873-2.031,2.142-.244,2.3-.6,4.6-.9,6.894-2.417-1.015-3.737-4.671-7.27-3.046A20.084,20.084,0,0,1,107.406,286.372Z" transform="translate(-34.744 -276.585)" fill="#fff"/>
      <path id="Path_694" data-name="Path 694" d="M264.8,356.41c2.813-1.361,6.9-2.863,6.174-6.021-.5-2.193-5.077-.558-7.758-1.015,4.58-1.482,9.139-.782,13.718.071-1.015,2.528-4.854,3.4-4.062,6.976Z" transform="translate(-32.329 -275.585)" fill="#fff"/>
      <path id="Path_695" data-name="Path 695" d="M137.28,483.894c3.341-.955,5.25-3.584,7.189-6.174a6.784,6.784,0,0,1,4.275.955c-3.625,2.356-6.458,5.605-9.535,8.57Z" transform="translate(-34.268 -273.596)" fill="#fff"/>
      <path id="Path_696" data-name="Path 696" d="M236.821,385.369c2.6-1.939,5.229-3.848,6.194-7.2l3.391,1.929c-3.046,3.046-6.245,5.91-8.621,9.555a6.774,6.774,0,0,1-.965-4.285Z" transform="translate(-32.736 -275.128)" fill="#fff"/>
      <path id="Path_697" data-name="Path 697" d="M132.628,515.159c-1.523-2.295-2.731-4.833-5.168-6.4l.061-4.062a32.935,32.935,0,0,0,6.844,7.057A3.818,3.818,0,0,1,132.628,515.159Z" transform="translate(-34.419 -273.181)" fill="#fff"/>
      <path id="Path_698" data-name="Path 698" d="M174.093,494.42c.721,2.894,2.843,4.661,5.077,6.336l-1.574,2.376c-.163-.132-.325-.264-.5-.386a14.814,14.814,0,0,0-5.179-5.077,6.093,6.093,0,0,1,2.173-3.249Z" transform="translate(-33.734 -273.339)" fill="#fff"/>
      <path id="Path_699" data-name="Path 699" d="M159.267,320.638c.051-2.031,0-4.062.193-6.011a3.818,3.818,0,0,1,3.94-3.767c2.275,0,4.285,1.5,3.93,3.645-.924,5.575,2.3,6.671,6.58,7.108-2.214.233-4.59.335-1.736,3.28,1.513,1.564,2.934,3.209,4.407,4.823a9.471,9.471,0,0,1-5.016-.822c-6.58-8.458-7.4-8.468-14.216-.142l-7.108.944c4.7-1.361,7.707-4.945,10.824-8.357.548-.6,1.168-1.665.315-2.143C160.282,318.506,160.079,320.212,159.267,320.638Z" transform="translate(-34.068 -276.165)" fill="#fff"/>
      <path id="Path_700" data-name="Path 700" d="M173.912,486.983c-4.214.437-7.656,1.381-6.691,7.037.325,1.95-1.584,3.351-3.635,3.442a3.747,3.747,0,0,1-4.163-3.523,57.049,57.049,0,0,1-.132-6.042c.66.4,1.29,1.34,2.112.609s.264-1.553-.284-2.183c-1.909-2.234-3.869-4.427-5.808-6.641a136.734,136.734,0,0,0,21.191-.792c-1.493,1.29-3.046,2.528-4.458,3.9-.894.883-2.569,1.716-2.031,3.046C170.582,487.592,172.572,486.6,173.912,486.983Z" transform="translate(-33.99 -273.578)" fill="#fff"/>
      <path id="Path_701" data-name="Path 701" d="M79.738,408.513c-1.848,0-3.686,0-5.534-.132-2.538-.132-4.224-1.513-4.224-4.062s1.675-3.9,4.224-4.062c1.838-.091,3.686-.091,5.524-.132,4.3,1.208,5.016-2.975,7.108-4.9,1.015-.924,1.279-2.671,1.889-4.062a143.161,143.161,0,0,0-.782,21.171c-1.9-1.635-3.757-3.341-5.737-4.864C81.078,406.624,79.667,405.9,79.738,408.513Z" transform="translate(-35.304 -274.928)" fill="#fff"/>
      <path id="Path_702" data-name="Path 702" d="M228,364.564l-9.139-11.911c.69-2.711,2.031-2.792,3.879-1.015,2.508,2.488,5.077,4.965,7.5,7.5,1.015,1.015,2.559,2.031,1.574,3.828A3.046,3.046,0,0,1,228,364.564Z" transform="translate(-33.012 -275.555)" fill="#fff"/>
      <path id="Path_703" data-name="Path 703" d="M216.017,349.658,203,339.555c2.143-3.93,4.447-3.767,7.23-.508,2.031,2.4,4.447,4.508,6.671,6.763C218.7,347.576,218.759,348.957,216.017,349.658Z" transform="translate(-33.256 -275.768)" fill="#fff"/>
      <path id="Path_704" data-name="Path 704" d="M218.89,455.881,229.156,442c3.747,2.285,4.346,4.752.721,7.829-2.295,1.96-4.305,4.234-6.458,6.367C221.824,457.769,220.281,458.023,218.89,455.881Z" transform="translate(-33.011 -274.146)" fill="#fff"/>
      <path id="Path_705" data-name="Path 705" d="M204.07,468.157l12.956-10.367c2.112,1.391,1.807,2.924.234,4.508-2.335,2.366-4.711,4.691-7.026,7.108C207.512,472.219,205.431,472.117,204.07,468.157Z" transform="translate(-33.239 -273.903)" fill="#fff"/>
      <path id="Path_706" data-name="Path 706" d="M246.124,393.79c.487,4.153,1.279,7.677,7.016,6.661,2.142-.386,3.706,1.615,3.706,3.889s-1.564,4.275-3.716,3.889c-5.747-1.015-6.509,2.538-7.016,6.681-.4-1.35.609-3.351-1.117-3.97-1.361-.5-2.214,1.168-3.107,2.031-1.381,1.391-2.589,2.965-3.869,4.458a14.43,14.43,0,0,1,.894-6.042c9.078-7.219,9.068-8.2-.081-15.14a9.666,9.666,0,0,1-.822-5.077c1.564,1.411,3.178,2.772,4.671,4.265C245.555,398.389,245.931,396.338,246.124,393.79Z" transform="translate(-32.718 -274.928)" fill="#fff"/>
      <path id="Path_707" data-name="Path 707" d="M70.031,395.5c-2.955,2.214-5.808,4.579-8.905,6.58-2.8,1.807-2.325,2.965.132,4.579,2.65,1.747,5.077,3.808,7.646,5.727-1.015,3.5-2.681,4.062-5.26,1.34-11.931-12.469-11.433-7.585-.873-19.028C65.868,391.334,68,391.7,70.031,395.5Z" transform="translate(-35.538 -274.909)" fill="#fff"/>
      <path id="Path_708" data-name="Path 708" d="M258.841,411.582c2.417-1.818,4.772-3.716,7.26-5.422,1.929-1.32,2.031-2.315,0-3.666-2.508-1.686-4.894-3.564-7.331-5.351.924-3,2.64-4.782,6.092-3.95,1.858,3.341,5.717,4.61,7.869,7.7,1.7,2.417,2.133,4.417-.345,6.549a58.457,58.457,0,0,0-4.64,4.61C264.568,415.471,261.593,415.918,258.841,411.582Z" transform="translate(-32.397 -274.9)" fill="#fff"/>
      <path id="Path_709" data-name="Path 709" d="M155.228,498.727c1.371,1.665,2.813,3.27,4.062,5.006,4.133,5.615,4.062,5.625,8.367-.193,1.472-2.031,3.046-3.98,4.519-5.96a14.815,14.815,0,0,1,5.178,5.077c-3.737,2.031-5.767,5.879-8.824,8.672-2.62,2.406-4.711,2.721-7.179,0a68.147,68.147,0,0,0-6.021-5.971C152.669,503.083,152.842,501.053,155.228,498.727Z" transform="translate(-34.02 -273.29)" fill="#fff"/>
      <path id="Path_710" data-name="Path 710" d="M138.509,410.885c-2.559-1.614-3.239-3.96-3.188-6.915.152-7.575,0-15.15.1-22.735.061-3.788-.579-7.037-4.326-8.885-.762-.376-1.7-.924-1.279-1.807a3.138,3.138,0,0,1,2.031-1.188c8.448-1.736,13.677,2.6,13.728,11.352,0,5.077.173,10.154-.091,15.15-.173,3.31.944,4.589,4.224,4.265,2.66-.264,5.341-.294,8.011-.427,2.142-6.691.416-13.515.731-20.308,1.178-3.127,3.473-4.183,6.732-4.062,7.108.132,14.134,0,21.212.081,3.473.051,6.336-.67,7.819-4.183.325-.772.721-1.716,1.7-1.6,1.31.142,1.269,1.351,1.371,2.335,1.066,9.951-2.914,15.231-12.185,14.551-4.183-.3-8.428.152-12.611-.122-3.229-.2-4.011,1.015-3.919,4.062.365,10.987-1.929,9.778,9.413,9.6,13.647-.223,13.667-.335,13.667,13.474,0,5.077.051,10.1,0,15.15-.071,4.143-.152,8.225,4.427,10.337a1.4,1.4,0,0,1,.965,1.564c-.173,1.015-1.015,1.147-1.868,1.361-7.554,2.031-13.586-2.467-13.779-10.347-.132-5.382-.264-10.773.071-16.135.234-3.767-1.381-4.732-4.64-4.407a6.72,6.72,0,0,1-1.015-.051c-7.219-.173-7.23-.173-7.219,6.955v10.1c0,6.2-1.574,7.859-7.626,7.89-6.57,0-13.129.122-19.7,0-3.777-.081-7.108.366-8.712,4.376-.335.833-.843,1.736-1.746,1.34a2.823,2.823,0,0,1-1.218-2.031c-1.33-10.154,3.4-15.464,11.433-14.845,4.519.355,9.078,0,13.627,0,2.61.558,4.275,0,3.95-3.158s-.548-6.539-.822-9.809C151.445,409.728,144.916,411.647,138.509,410.885Zm55.948-36.067c-3.168,4.062-7.108,3.32-10.956,3.351s-7.412,0-11.108,0c-11.5,0-11.5,0-11.5,11.494,0,13.423,0,13.281-13.535,13.2-3.767,0-4.488-1.462-4.387-4.762q.3-9.331,0-18.683c-.173-5.422-2.447-7.341-7.382-6.671,1.868,2.417,2.285,5.168,2.254,8.123-.081,7.575.081,15.16-.081,22.735-.071,3.442,1.178,5.077,4.691,4.843a26.693,26.693,0,0,1,4.062,0c4.64.4,10.682-2.112,13.555,1.076s.447,9.037.883,13.688c.355,3.737-1.371,4.579-4.711,4.468-5.717-.193-11.454-.183-17.17,0-5,.173-6.945,2.813-6,7.737,2.335-2.031,5.077-2.5,8.022-2.406,4.539.152,9.139,0,13.637,0,11.23,0,11.23,0,11.23-11.169,0-13.86,0-13.748,13.83-13.495,3.351.061,4.346,1.127,4.224,4.4-.223,6.387-.183,12.794,0,19.191.132,5.077,2.721,7.25,7.423,6.478-2.031-2.549-2.427-5.443-2.376-8.57.122-6.895,0-13.8,0-20.7,0-6.356,0-6.356-6.59-6.366h-2.031c-15.109,0-15.018,0-14.591-15.231.081-3.168,1.178-4.062,4.153-4.011q8.854.233,17.688,0C192.65,383.419,194.406,381.266,194.457,374.818Z" transform="translate(-34.39 -275.27)" fill="#fff"/>
      <path id="Path_711" data-name="Path 711" d="M179.413,416.955c-.183,3.727-1.929,5.788-4.975,5.788-3.3,0-5.239-2.244-5.077-5.585s1.95-5.341,5.463-5.128C178.133,412.223,179.21,414.518,179.413,416.955Zm-7.473.426c.173,1.5.965,2.6,2.508,2.528a2.508,2.508,0,0,0,2.447-2.66,2.386,2.386,0,0,0-2.549-2.508c-1.614.02-2.3,1.107-2.407,2.64Z" transform="translate(-33.774 -274.607)" fill="#fff"/>
      <path id="Path_712" data-name="Path 712" d="M156.612,394.355c-.954,2.945-2.914,4.488-6.092,3.869-2.691-.528-3.828-2.721-3.9-5.158a5.077,5.077,0,0,1,3.655-5.381c3.178-.955,5,.883,6.275,3.513Zm-2.346-1.858c-.538-1.015-1.086-2.315-2.731-2.132a2.356,2.356,0,0,0-2.234,2.742,2.244,2.244,0,0,0,2.61,2.325C153.454,395.289,154.185,394.264,154.266,392.5Z" transform="translate(-34.124 -274.986)" fill="#fff"/>
      <path id="Path_713" data-name="Path 713" d="M238.8,396.2c9.139,6.935,9.139,7.92.081,15.14Q238.851,403.775,238.8,396.2Z" transform="translate(-32.705 -274.851)" fill="#fff"/>
      <path id="Path_714" data-name="Path 714" d="M179.484,393.084c-.376,3-1.777,5.331-5.321,5.189-3.209-.122-4.8-2.274-4.844-5.3,0-3.371,1.97-5.514,5.26-5.432C177.616,387.631,179.281,389.784,179.484,393.084ZM177,392.911c-.406-1.33-.965-2.589-2.6-2.6a2.356,2.356,0,0,0-2.457,2.61,2.275,2.275,0,0,0,2.457,2.549c1.615-.01,2.295-1.117,2.6-2.549Z" transform="translate(-33.774 -274.984)" fill="#fff"/>
      <path id="Path_715" data-name="Path 715" d="M156.572,419.23c-1.249,2.5-3.107,3.818-6.031,3.259a4.793,4.793,0,0,1-3.838-4.133c-.6-3.046.924-5.077,3.615-6.387h2.1C156.419,412.894,156.582,416.062,156.572,419.23Zm-2.264-1.95c-.254-1.574-1.158-2.579-2.66-2.549a2.6,2.6,0,0,0,.142,5.189A2.67,2.67,0,0,0,154.307,417.281Z" transform="translate(-34.125 -274.608)" fill="#fff"/>
      <path id="Path_716" data-name="Path 716" d="M157.28,328.544c6.773-8.326,7.6-8.316,14.215.142Z" transform="translate(-33.96 -275.988)" fill="#fff"/>
      <path id="Path_717" data-name="Path 717" d="M213.121,446.223c-.477,2.427-1.879,3.97-4.447,3.716a3.655,3.655,0,0,1-3.534-4.062,3.716,3.716,0,0,1,4.356-3.767C211.791,442.284,212.969,443.867,213.121,446.223Z" transform="translate(-33.223 -274.145)" fill="#fff"/>
      <path id="Path_718" data-name="Path 718" d="M113.591,373.473c-.416,2.437-1.8,4.062-4.366,3.818a3.645,3.645,0,0,1-3.615-4.062,3.7,3.7,0,0,1,4.275-3.848C112.17,369.574,113.378,371.137,113.591,373.473Z" transform="translate(-34.756 -275.265)" fill="#fff"/>
      <path id="Path_719" data-name="Path 719" d="M176.056,347.51c-2.224-.4-3.737-1.645-3.726-3.97a3.95,3.95,0,1,1,7.879.386C179.945,346.2,178.361,347.378,176.056,347.51Z" transform="translate(-33.728 -275.723)" fill="#fff"/>
      <path id="Path_720" data-name="Path 720" d="M146.33,343.572c.284-2.457,1.564-4.062,4.153-4.062a3.645,3.645,0,0,1,3.828,3.808,3.7,3.7,0,0,1-4.062,4.061C147.924,347.41,146.7,345.877,146.33,343.572Z" transform="translate(-34.128 -275.724)" fill="#fff"/>
      <path id="Path_721" data-name="Path 721" d="M138.491,465.012c-2.681-.487-4.244-1.889-4-4.457a3.645,3.645,0,0,1,4.062-3.564,3.727,3.727,0,0,1,3.818,4.326C142.187,463.631,140.522,464.707,138.491,465.012Z" transform="translate(-34.311 -273.915)" fill="#fff"/>
      <path id="Path_722" data-name="Path 722" d="M188.413,465c-2.549-.345-4.062-1.554-4.163-3.869a3.95,3.95,0,1,1,7.89.1C192.018,463.569,190.342,464.635,188.413,465Z" transform="translate(-33.545 -273.914)" fill="#fff"/>
      <path id="Path_723" data-name="Path 723" d="M222.06,427.121c-2.457-.345-4.062-1.675-3.919-4.265a3.645,3.645,0,0,1,3.93-3.706,3.7,3.7,0,0,1,3.96,4.173C225.888,425.659,224.334,426.867,222.06,427.121Z" transform="translate(-33.023 -274.498)" fill="#fff"/>
      <path id="Path_724" data-name="Path 724" d="M229.061,398.059c-.254,2.478-1.533,4.062-4.122,4.062a3.645,3.645,0,0,1-3.858-3.787,3.706,3.706,0,0,1,4.061-4.112C227.437,394.291,228.675,395.815,229.061,398.059Z" transform="translate(-32.978 -274.882)" fill="#fff"/>
      <path id="Path_725" data-name="Path 725" d="M216.664,369.29c2.711.254,4.346,1.533,4.346,4.062a3.645,3.645,0,0,1-3.757,3.889,3.706,3.706,0,0,1-4.143-4C213.08,370.925,214.7,369.8,216.664,369.29Z" transform="translate(-33.1 -275.265)" fill="#fff"/>
      <path id="Path_726" data-name="Path 726" d="M106.652,397.331c-.558,2.589-1.97,4.133-4.539,3.828a3.656,3.656,0,0,1-3.473-4.1,3.716,3.716,0,0,1,4.427-3.7C105.372,393.554,106.428,395.219,106.652,397.331Z" transform="translate(-34.863 -274.896)" fill="#fff"/>
      <path id="Path_727" data-name="Path 727" d="M200.273,350.4c2.437.426,4.062,1.8,3.808,4.366a3.656,3.656,0,0,1-4.062,3.615,3.706,3.706,0,0,1-3.818-4.326C196.363,351.811,197.927,350.613,200.273,350.4Z" transform="translate(-33.361 -275.556)" fill="#fff"/>
      <path id="Path_728" data-name="Path 728" d="M127.51,358.471c-2.457-.3-4.062-1.615-3.98-4.2a3.635,3.635,0,0,1,3.859-3.777,3.7,3.7,0,0,1,4.062,4.112C131.369,356.928,129.815,358.116,127.51,358.471Z" transform="translate(-34.479 -275.555)" fill="#fff"/>
      <path id="Path_729" data-name="Path 729" d="M163.057,469.94c-2.224-.4-3.747-1.645-3.727-3.97a3.95,3.95,0,1,1,7.879.386C167.006,468.63,165.422,469.808,163.057,469.94Z" transform="translate(-33.928 -273.838)" fill="#fff"/>
      <path id="Path_730" data-name="Path 730" d="M121.561,445c-.335,2.457-1.655,4.062-4.244,3.96a3.655,3.655,0,0,1-3.747-3.9,3.7,3.7,0,0,1,4.143-3.99C120.028,441.141,121.236,442.7,121.561,445Z" transform="translate(-34.633 -274.161)" fill="#fff"/>
      <path id="Path_731" data-name="Path 731" d="M104.9,427.182c-2.752-.345-4.356-1.645-4.275-4.234a3.645,3.645,0,0,1,3.869-3.777,3.706,3.706,0,0,1,4.062,4.112C108.489,425.638,106.834,426.725,104.9,427.182Z" transform="translate(-34.832 -274.498)" fill="#fff"/>
    </g>
  </g>
</svg>
