<svg xmlns="http://www.w3.org/2000/svg" width="353.491" height="358.127" viewBox="0 0 353.491 358.127">
  <g id="globe" transform="translate(42.97 -1)">
    <path id="Path_4586" data-name="Path 4586" d="M298.6,309.291a107.516,107.516,0,0,0-46.151,10.357l2.958,4.221,5.1.282,3.057-3.023,2.347,1.169-4.23,4.2-5.591.121c.306,0,.483,4.11.483,4.11l7.11-.191.779-2.015,4.931-.272.572-2.962-2.9-.494.986-2.66,2.209-.675,7.672.393-4.23,3.929.69,3.022,4.418.675-.3-5.491,4.23-2.257,7.495-.887,10.847,4.906v4.221l3.471.9-1.745,3.335h-4.931l-1.4,3.879-11.193-2.71,8.806-4.765-3.363-2.912-7.583,1.007-.661.705h0l-.138.161-2.16,2.3-3.609.332.276,1.834,1.262.544v.6l-2.958.423-.207,1.743-2.8.141-.532-3.456-5.029,1.572-10.3,6.156,1.144,4.342,2.9,1.9,5.749.826v6.69l2.663-.443,2.455-5.239,6.144-2.015v-8.06l3.353-2.559,8.224,2.015-.572,5.279h2.209l6.045-3.022.3,6.952,4.418,2.74-.187,4.141-4.23,1.471.3,1.37,5.088,2.368-.1,2.841-1.489.121V363.4l-6.41-2.015-.286-2.106h0l1.883-1.32v-1.924l-2.022-.514-.5,1.783-3.54.534-.345-.111v.181l-1.223.191-.986-2.065-1.154-.514h-2.525l-1.154.957V358.6l2.16.725,2.14.3-.483.212-1.972,2.216-.868-1.108-1.864-.494-5.128,4.906.671.564-7.564,4.282-7.1,7.556-.483,3.355-7.13,4.8-3.54,3.617.394,7.284-4.931-2.327.049-4.251H233.113l-7.061,3.637L223,399.65l-1.213,4.574,1.972,4.443,5.562.705,8.875-6.045.779,3.022-2.712,5.209,6.735,1.179.671,10.609,9.21,1.6,5.867-6.931,7.1,1.481,2.5,3.546,6.8-.4.207-2.015,3.747,1.854,4.211,6.79,7.307.1,2.692,4.806.394,5.894,8.066,3.123,10.157.121,2.958,4.977,4.507,1.481-.848,4.131-4.931,6.418-1.45,14.205-4.467,3.617-6.617-.211-2.229,3.919,1.657,7.375-7.219,9.42-2.3,4.322-6.9,3.355-4.507.705-.187,2.015,3.156.917-.375,2.116-2.85,2.771,1.726,2.226,3.422.1-.178,2.7-.917,2.65-.306,2.166,5.059,4.342-.671,2.257-6.9-.121-6.765-6.287-5.335-9.581.759-9.228-4.043-5.521,1.627-9.319-2.387-.685v-20.2s-6.735-5.209-7.11-5.209-3.56-.876-3.56-.876l-.671-3.849-8.757-11.173.878-4.03.276-6.579,6.045-4.322-.848-7.344-8.826-.685-6.9-8.06-4.931-1.37-3.165-.584.385-2.962-4.043-.584v1.672l-10.068-2.539-4.073-6.367,1.637-3.022-6.37-9.531-1.1-6.952H200.62l.878,6.76,4.408,6.972-.483,2.75-3.747-.584-4.6-8.06v-9.349l-1.972-.937c-18.245,51.7,2.8,109.3,49.737,136.143s106,15.059,139.6-27.86v-3.637l-4.418-6.045v-9.42l-3.353-3.425-.3-3.949,4.27-8.332L372.532,442.4l.986-9.934-7.287-.756-2.692-2.821h-4.931l-2.485,2.378h-8.648l-.276.776h-4.822l-11.035-12.825.089-10.024,1.844-.685.68-3.8h-2.594l-1.055-4.03,12.82-9.42v-6.7l6.252-3.546,2.524.262h5.148l4.023-2.206,12.968-1.007v6.76l10.206,2.65,2.021,1.481h1.893v-3.687l5.917-.594,5.6,4.282h4.211c-.986-3.365-2.14-6.649-3.422-9.843h-.1l-3.008-3.405-.5-4.695-.306-.615-2.87,1.6-1.676,6.639-4.457-4.836-.187-4.6-4.349-3.778-1.607-1.622h-5.049l1.588,4.554,6.015,3.435,1.055,1.128-1.3.655.069,3.617-2.958,1.239-2.475-.564-1.588-2.247,4.063.212,1.1-1.511-9.013-6.216-.68-2.66-3.659,3.405-3.728-.8-5.68,7.516-1.045,2.952-3.609.353h-5.365l-3.2-1.531-.937-6.508,1.144-3.093,5.453-1.229,5.917,1.229.74-3.365-2.534-.6.878-5.219,5.976-.957,4.161-6.045,4.349-.735,3.885.564h1.42l-.779-5.682-4.733,1.965-1.657-4.251-2.761-.373-.523-2.912,2.248-2.488,2.416-1.007A108.229,108.229,0,0,0,298.632,309.2Zm-55.667,15.455q-2.11,1.259-4.142,2.629l.345.181,4.931,1.078.394,2.015,7.771.282-1.114-2.569-6.9-.212,1.617-1.531-.582-1.874Zm-9.339,6.287-.227.131-.178.756h-.809l-1.726,1.34v1.219h5.68l1.193-1.622v-1.834Zm150.315,19.706c-.986-1.2-1.9-2.347-2.9-3.5L377.66,349l.5,1.662ZM234.721,337.872s2.534-.453,2.761-.453,0,2.589,0,2.589l-5.7.373-1.085-1.34Zm6.646,13.52,3.037-1.451,2.732.655-.947,3.738-2.958,1.008Zm16.044,8.856v2.418h-6.9l-2.6-.725.651-1.693,3.333-1.41h4.526v1.41Zm3.2,3.385v2.347l-1.726,1.149-2.16.4v-3.9Zm-1.972-1.008v-2.75l2.387,2.206Zm1.085,5.662v2.3l-1.657,1.693H254.4l.572-2.579,1.726-.141.365-.9Zm-9.151-4.695h3.816l-4.931,6.992-1.972-1.118.444-2.942Zm15.63,3.9v2.277h-3.639l-.986-1.481v-2.136h.276Zm-3.363-3.083,1.035-1.128,1.775,1.128-1.41,1.2Z" transform="translate(-162.49 -241.544)" fill="#2d4356" fill-rule="evenodd"/>
    <path id="Path_4587" data-name="Path 4587" d="M269.393,306.16c.906-18.718,17.659-18.859,21.471-24l.438-2.43c-5.475-2.814-9.357-9.611-9.357-17.558,0-10.458,6.729-18.95,15.021-18.95s15.011,8.492,15.011,18.95c0,7.876-3.812,14.623-9.237,17.5l.508,2.743c4.091,4.8,19.63,5.335,21.192,22.5a110.264,110.264,0,0,0-55.046,1.251Zm61.009,1.593c10.024-15.753,24.6-7.382,30.44-9.924l1.583-1.856c-3.365-5.244-3.365-13.11.557-19.958,5.166-9.076,15.17-13,22.367-8.814s8.79,14.956,3.613,24.022c-3.872,6.817-10.512,10.751-16.613,10.488l-.906,2.632c1.165,6.212,14.364,14.553,7.247,30.255A111.361,111.361,0,0,0,330.4,307.794Zm52.04,32.272c16.454-8.582,24.945,6.051,31.256,6.817l2.3-.827c-.328-6.222,3.524-13.02,10.323-16.993,8.959-5.214,19.57-3.57,23.721,3.691s.229,17.417-8.7,22.661c-6.729,3.933-14.414,3.973-19.56.666l-2.11,1.805c-2.07,5.97,5.266,19.888-8.64,29.831a113.355,113.355,0,0,0-28.588-47.652Zm29.146,54.307c18.475.918,18.585,17.911,23.691,21.763l2.389.454c2.787-5.577,9.5-9.5,17.34-9.5,10.322,0,18.7,6.818,18.7,15.208s-8.381,15.208-18.7,15.208c-7.774,0-14.433-3.852-17.27-9.329l-2.707.514c-4.738,4.115-5.276,19.867-22.208,21.441A114.859,114.859,0,0,0,411.587,394.333Zm-1.573,61.8c15.538,10.156,7.257,24.95,9.785,30.87l1.842,1.6c5.146-3.409,12.94-3.409,19.7.555,8.959,5.224,12.831,15.38,8.7,22.641s-14.762,8.935-23.721,3.691c-6.729-3.943-10.6-10.65-10.342-16.832l-2.6-.938c-6.152,1.18-14.394,14.553-29.862,7.332a113.531,113.531,0,0,0,26.458-48.922Zm-31.853,52.734c8.461,16.67-5.972,25.273-6.729,31.687l.806,2.31c6.132-.333,12.841,3.59,16.753,10.478,5.176,9.076,3.554,19.817-3.643,24s-17.171.262-22.337-8.814c-3.882-6.817-3.922-14.593-.657-19.817l-1.782-2.118c-5.893-2.088-19.63,5.315-29.444-8.744a111.786,111.786,0,0,0,47.043-28.984ZM324.539,538.4c-.886,18.708-17.659,18.849-21.471,24.022l-.438,2.4c5.5,2.844,9.357,9.611,9.357,17.558,0,10.488-6.709,18.97-14.991,18.97s-15.021-8.481-15.021-18.97c0-7.876,3.812-14.623,9.218-17.487l-.508-2.753c-4.061-4.79-19.64-5.335-21.163-22.469a110.807,110.807,0,0,0,55.017-1.271Zm-61.009-1.6c-10,15.753-24.6,7.382-30.44,9.924l-1.6,1.916c3.365,5.214,3.365,13.11-.557,19.928-5.166,9.076-15.17,13.03-22.337,8.814s-8.819-14.946-3.653-24.022c3.882-6.818,10.521-10.721,16.623-10.458l.906-2.662c-1.145-6.2-14.364-14.552-7.227-30.184a111.542,111.542,0,0,0,48.268,26.775Zm-52.02-32.272c-16.454,8.552-24.965-6.051-31.276-6.848l-2.3.827c.348,6.233-3.534,13.02-10.332,16.993-8.959,5.224-19.56,3.58-23.691-3.691s-.249-17.417,8.71-22.641c6.729-3.943,14.384-3.963,19.56-.656l2.08-1.835c2.07-5.97-5.236-19.888,8.64-29.8a114.494,114.494,0,0,0,10.064,23.437,112.223,112.223,0,0,0,18.545,24.2Zm-29.146-54.328c-18.475-.918-18.614-17.891-23.711-21.753l-2.4-.464c-2.777,5.567-9.486,9.49-17.33,9.49-10.322,0-18.7-6.817-18.7-15.208s8.352-15.178,18.694-15.178c7.794,0,14.453,3.853,17.27,9.359l2.737-.514c4.728-4.145,5.236-19.9,22.178-21.471a114.286,114.286,0,0,0,1.254,55.77Zm1.573-61.811c-15.538-10.156-7.276-24.92-9.785-30.84l-1.891-1.593c-5.146,3.409-12.94,3.409-19.669-.565-8.959-5.244-12.861-15.37-8.71-22.661s14.762-8.905,23.691-3.691c6.759,3.953,10.611,10.65,10.352,16.832l2.6.938c6.152-1.17,14.384-14.542,29.862-7.332a113.392,113.392,0,0,0-26.438,48.922Zm31.853-52.724c-8.441-16.67,5.972-25.273,6.749-31.667l-.806-2.33c-6.152.323-12.861-3.6-16.783-10.468-5.166-9.076-3.524-19.817,3.653-24.022s17.191-.262,22.337,8.814c3.9,6.817,3.922,14.6.657,19.817l1.8,2.118c5.893,2.118,19.64-5.315,29.424,8.774a111.41,111.41,0,0,0-47.033,28.964Z" transform="translate(-163.19 -242.22)" fill="#f8a975" fill-rule="evenodd"/>
  </g>
</svg>
