<svg xmlns="http://www.w3.org/2000/svg" width="297.23" height="354.192" viewBox="0 0 297.23 354.192">
  <path id="map" d="M122.175,0l.023.041L122.334,0h16.873l-2.933.932,1.791,9.475-4.092.3L122.412,6.061l.432,12.581-7.77,5.552.909,7.42,7.98,2.069-.359,2.51-9.043,4.96.564,5.12,2.728.032a1.127,1.127,0,0,1,.023-.15l11.54-4.547.223-3.828h0L126,35.651l-.255-3.446L129.382,31,130.55,34.1l6.6.523.637-.268v.318l2.273.182L141.631,31l2.069-1.1,4.642-.35,2.246,1.569.286,3.815-3.887,1.632-3.883.85.909.318,3.878,3.71,1.487-2.073,3.374-1.173,10.094,8.184L161.7,47.491l14.5,6.647L190.3,66.8l1.364,6.006,13.777,7.643,7.007,6.052.264,13.154,8.716-4.874-.664-7.666,7.634-.559v60.472L214.2,150.543l-11.731-11.667-12.908,3.637-4.115,6.752-12.622.191-.627-3.687-6.656,3.892L158.7,162.414l-13.44,1.209-4.31,9.043.1,10.662-14.45,6.784L107.848,191.7,103,201.112,94.895,204.4l2.151,7.325,9.994,10.885,4.583,25.462,8.7,5.911,12.19-1.282,4.592,6.738-2.028,13.513,14.55,16,4.838,7.47,13.1,5.133,8.416.646.591,3.5-5.693,2.123,1,3.742,5.606,4.629-2.874,4.228-6.3.659.723,4.842,2.037,4.633.823,3.869-8.73,8.53,1.537,3.988,12.663-1.178,11.79-11.958,8.53-18.005-2.619-16.555,6.688-10.457-4.26-16.591,4.324-1.569-2.728-36.447s11.671-10.326,12.4-10.389,6.447-2.069,6.447-2.069l.709-7.007,9.762-14.295V328.5A203.268,203.268,0,0,1-19.215,289.464l-.5-6.57,7.325-11.553-1.273-17.009,5.72-6.647V240.55l-8.989-14.445,12.963-27.481L-7.093,180.86l13.358-2.4,4.588-5.333,9.044-.677,4.9,3.91,15.914-1.2.637,1.364,8.862-.668,18.61-24.7-1.537-18.051-3.442-.973-1.773-6.82,4.783-.359,1.419-7.4-24.83-15.213L42.53,90.3l-12-5.524-4.61.809-9.484.709L8.729,82.874-15.318,82.8l.909,12.222-18.5,6.193-3.519,2.933-3.455.268-.455-6.656-10.971-.246-9.785,8.48-7.729.573q2.087-9.266,5-18.232h.159l5.111-6.529.3-8.552.477-1.155,5.474,2.473,3.965,11.776,7.566-9.38-.286-8.289,7.42-7.452,2.728-3.137,9.221-.7-2.3,8.448-10.644,7.007-1.76,2.192,2.483,1.018.373,6.52,5.593,1.873,4.524-1.364,2.587-4.3-7.475.964-2.232-2.573L-14.759,64.7l.909-4.865,7.207,5.615L.118,63.532l11.44,12.731,2.437,5.161,6.706.1,9.88-.668,5.693-3.183.859-11.849-2.546-5.424L24.379,58.939,13.6,61.963l-1.791-5.97,4.547-1.441-2.273-9.316L2.932,44.326l-8.507-10.3-8.066-.741-7.116,1.6-2.628.191.682-10.312,9.007,2.86,2.492-7.866,5-1.078.564-5.32L-10.112,9.18-14.659,7.77Q-10.667,3.792-6.493,0ZM194.7,0l2.16,1.059L195.3,9.039l-5.047,3.851L179.76,15.163l.909,12.063-4.97-.455-5.224-9.093L158.913,14.95,157.822.487,157.067,0ZM228.41,173.631l-10.43-6.2.6-13.395,9.826-1.487ZM-37.261,34.892c1.578-2.273,3.183-4.474,4.865-6.679l6.411,2.705-.691,3.105Zm262.743-18.41-5.774-2.246-4.951,1.587L217,22.461l5.579,1.314ZM197.119,34.614,197.438,39l12.731-.95,4.683-1.678L213.428,33.4l-6.306-2.087-8.361.637.177,2.523Zm-5.424,6.552.318,4.251,3.337,1.819,4.028.432s-.486-6.365-.532-7.038Zm3.456-1.991-.373-5.074-4.092,4.315Zm-1.214,10.353.291,4.124,3.274,2.833,6.766-.5-1.4-4.569-3.224-.032-.773-1.546Zm16.2-9.739-7.038.527,9.976,11.935,3.569-2.273-1.2-5.242Zm-28.276,9.18.3,4.133,6.77-.509,1.65-2.81-.286-3.837-.537.045Zm5.829-6.129-2.078-1.873-3.105,2.273,2.792,1.941Z" transform="translate(68.82)" fill="#ffe8d9" fill-rule="evenodd"/>
</svg>
