<svg xmlns="http://www.w3.org/2000/svg" width="19" height="15" viewBox="0 0 19 15">
  <path id="_32-Camp" data-name="32-Camp" d="M22.955,26.078l-.9-1.389L16.131,13.584a2.962,2.962,0,0,0-5.252,0L4.937,24.736l-.876,1.339a.37.37,0,0,0-.061.2v.357a.34.34,0,1,0,.679,0v-.246l.132-.2c.017.032.031.068.048.1a1.323,1.323,0,0,0,1.178.707H20.976a1.325,1.325,0,0,0,1.165-.714c.017-.032.031-.068.048-.1l.132.2v.254a.34.34,0,1,0,.679,0v-.357A.372.372,0,0,0,22.955,26.078Zm-11.286.2a25.456,25.456,0,0,0,1.11-2.746,26.116,26.116,0,0,0,.727-2.653c.21.9.465,1.785.754,2.653q.479,1.4,1.093,2.746Zm9.893-1.043a.709.709,0,0,1,0,.693.673.673,0,0,1-.587.35H16.111a28.441,28.441,0,0,1-1.2-2.985,29.247,29.247,0,0,1-1.069-4.214v-.657a.34.34,0,1,0-.679,0v.661a25.477,25.477,0,0,1-1.019,4.21,24.69,24.69,0,0,1-1.243,2.985H6.037a.674.674,0,0,1-.577-.357.709.709,0,0,1,0-.693h0l.065-.118.051-.079a.488.488,0,0,0,.031-.075l5.863-11.016a2.3,2.3,0,0,1,4.074,0L21.39,24.911a.693.693,0,0,0,.031.075l.054.086Zm-7.717-8.6v.714a.34.34,0,1,1-.679,0v-.714a.34.34,0,1,1,.679,0Zm0-1.785v.714a.34.34,0,1,1-.679,0v-.714a.34.34,0,1,1,.679,0Zm-.34-2.142a.349.349,0,0,1,.34.357v.714a.34.34,0,1,1-.679,0v-.714A.349.349,0,0,1,13.506,12.709Z" transform="translate(-4 -11.993)" fill="#f26000"/>
</svg>
