<svg xmlns="http://www.w3.org/2000/svg" width="17.109" height="14.543" viewBox="0 0 17.109 14.543">
  <path id="envelope" d="M13.545,1H3.564A3.446,3.446,0,0,0,0,4.305v7.933a3.446,3.446,0,0,0,3.564,3.305h9.98a3.446,3.446,0,0,0,3.564-3.305V4.305A3.446,3.446,0,0,0,13.545,1ZM3.564,2.322h9.98A2.144,2.144,0,0,1,15.527,3.57L10.067,8.632a2.265,2.265,0,0,1-3.026,0L1.583,3.57A2.144,2.144,0,0,1,3.564,2.322Zm9.98,11.9H3.564a2.065,2.065,0,0,1-2.139-1.983V5.3l4.608,4.27a3.771,3.771,0,0,0,5.042,0L15.684,5.3v6.941A2.065,2.065,0,0,1,13.545,14.221Z" transform="translate(0 -1)" fill="#f26000"/>
</svg>
