<svg xmlns="http://www.w3.org/2000/svg" width="15.988" height="15.988" viewBox="0 0 15.988 15.988">
  <path id="flag" d="M13.324,2.665H9.993A2.665,2.665,0,0,0,7.328,0H2.665A2.665,2.665,0,0,0,0,2.665V15.322a.666.666,0,0,0,1.332,0V8.66H6.662a2.665,2.665,0,0,0,2.665,2.665h4A2.665,2.665,0,0,0,15.988,8.66V5.329A2.665,2.665,0,0,0,13.324,2.665ZM1.332,7.328V2.665A1.332,1.332,0,0,1,2.665,1.332H7.328A1.332,1.332,0,0,1,8.66,2.665V6A1.332,1.332,0,0,1,7.328,7.328ZM14.656,8.66a1.332,1.332,0,0,1-1.332,1.332h-4A1.332,1.332,0,0,1,7.994,8.66V8.566a2.665,2.665,0,0,0,2-2.57V4h3.331a1.332,1.332,0,0,1,1.332,1.332Z" fill="#fff"/>
</svg>
