<svg xmlns="http://www.w3.org/2000/svg" width="13.265" height="13.249" viewBox="0 0 13.265 13.249">
  <g id="man" transform="translate(-0.004 -0.06)">
    <path id="Path_5439" data-name="Path 5439" d="M.08,135.094a2.067,2.067,0,0,0,.073-.475,4.175,4.175,0,0,1,3.55-3.647,4.286,4.286,0,0,1,4.281,1.606,4.335,4.335,0,0,1,.877,2.336,4.38,4.38,0,0,1-3.652,4.678,1.124,1.124,0,0,0-.309.057H4.045a.9.9,0,0,0-.332-.071,4.405,4.405,0,0,1-3.558-3.59,2.575,2.575,0,0,0-.073-.476Q.08,135.3.08,135.094Zm3.835,3.439a2.828,2.828,0,0,0,1.093.02,3.309,3.309,0,0,0,2.715-4.2,3.361,3.361,0,0,0-3.733-2.409,2.385,2.385,0,0,0-.54.122,3.335,3.335,0,0,0-2.283,3.665,3.2,3.2,0,0,0,1.686,2.458,2.75,2.75,0,0,0,1.062.341Z" transform="translate(-0.076 -126.34)" fill="#6c757d"/>
    <path id="Path_5441" data-name="Path 5441" d="M383.312,58.646a.067.067,0,0,1-.022,0V56.107h.022Z" transform="translate(-370.043 -54.134)" fill="#feaef8"/>
    <path id="Path_5442" data-name="Path 5442" d="M237.638,2.588V5.128a.491.491,0,0,1-.562.441.476.476,0,0,1-.454-.5V2.831c0-.086-.013-.172-.02-.257s-.037-.08-.089-.033l-.074.072-3.113,3.108a.506.506,0,0,1-.531.145A.515.515,0,0,1,232.587,5l.915-.914,2.226-2.22a.8.8,0,0,1,.136-.087.441.441,0,0,0-.287-.072h-2.292a.514.514,0,0,1-.516-.692.491.491,0,0,1,.473-.339c.829,0,1.658-.02,2.489.006A2.05,2.05,0,0,1,237.638,2.588Z" transform="translate(-224.391 -0.612)" fill="#b6b8bb"/>
  </g>
</svg>
