<svg xmlns="http://www.w3.org/2000/svg" width="15.486" height="15.486" viewBox="0 0 15.486 15.486">
  <path id="phone-call" d="M8.416.646A.646.646,0,0,1,9.062,0a6.47,6.47,0,0,1,6.463,6.463.646.646,0,1,1-1.293,0A5.176,5.176,0,0,0,9.062,1.292.646.646,0,0,1,8.416.646Zm.646,3.232a2.585,2.585,0,0,1,2.585,2.585.646.646,0,0,0,1.293,0A3.882,3.882,0,0,0,9.062,2.585a.646.646,0,1,0,0,1.293Zm5.877,6.941a2,2,0,0,1,0,2.83l-.588.678C9.058,19.393-3.823,6.516,1.166,1.205L1.909.559a1.991,1.991,0,0,1,2.8.026c.02.02,1.218,1.576,1.218,1.576a2,2,0,0,1,0,2.768l-.748.941a8.261,8.261,0,0,0,4.48,4.489L10.6,9.6a2,2,0,0,1,2.767,0S14.919,10.8,14.939,10.818Zm-.889.94s-1.547-1.19-1.567-1.21a.711.711,0,0,0-1,0c-.017.018-1.321,1.057-1.321,1.057a.646.646,0,0,1-.633.1,9.7,9.7,0,0,1-5.7-5.693.646.646,0,0,1,.094-.646s1.039-1.3,1.056-1.321a.711.711,0,0,0,0-1c-.02-.019-1.21-1.567-1.21-1.567a.711.711,0,0,0-.976.025l-.743.646C-1.6,6.53,9.564,17.074,13.406,13.443l.589-.679a.725.725,0,0,0,.055-1.006Z" transform="translate(-0.039 0.002)" fill="#f26000"/>
</svg>
