<svg xmlns="http://www.w3.org/2000/svg" width="15.219" height="20.292" viewBox="0 0 15.219 20.292">
  <g id="user" transform="translate(-3)">
    <path id="Path_4682" data-name="Path 4682" d="M11.073,10.146A5.073,5.073,0,1,0,6,5.073a5.073,5.073,0,0,0,5.073,5.073Zm0-8.455A3.382,3.382,0,1,1,7.691,5.073a3.382,3.382,0,0,1,3.382-3.382Z" transform="translate(-0.464)" fill="#fff"/>
    <path id="Path_4683" data-name="Path 4683" d="M10.609,14A7.618,7.618,0,0,0,3,21.609a.845.845,0,1,0,1.691,0,5.918,5.918,0,1,1,11.837,0,.845.845,0,0,0,1.691,0A7.618,7.618,0,0,0,10.609,14Z" transform="translate(0 -2.163)" fill="#fff"/>
  </g>
</svg>
