<svg xmlns="http://www.w3.org/2000/svg" width="9.849" height="16.243" viewBox="0 0 9.849 16.243">
  <g id="woman" transform="translate(-6.747 -0.074)">
    <path id="Path_5476" data-name="Path 5476" d="M134.34,264.256a.721.721,0,0,1-.48-.812c.016-.269,0-.539.005-.808,0-.1-.03-.126-.126-.125-.386,0-.773.007-1.16,0a.633.633,0,0,1-.14-1.249.8.8,0,0,1,.189-.017c.365,0,.731-.005,1.1,0,.113,0,.142-.034.141-.143-.006-.491,0-.983,0-1.474a.636.636,0,1,1,1.271,0V261.1c0,.11.028.145.142.143.381-.007.762,0,1.143,0a.634.634,0,1,1,0,1.268h-1.143c-.111,0-.146.029-.143.142.008.264-.01.529.005.793a.72.72,0,0,1-.48.812Z" transform="translate(-122.828 -247.943)" fill="#b6b8bb"/>
    <path id="Path_5477" data-name="Path 5477" d="M80.706,10.719A4.908,4.908,0,1,1,84.184,9.29a4.91,4.91,0,0,1-3.478,1.429Zm-.444-8.548a1.769,1.769,0,0,0-.451.076A3.647,3.647,0,0,0,77.2,6.814a3.506,3.506,0,0,0,3.034,2.572,3.4,3.4,0,0,0,1.215-.035,3.64,3.64,0,0,0-1.184-7.179Z" transform="translate(-69.034 -0.82)" fill="#6c757d"/>
  </g>
</svg>
