<svg id="add-folder" xmlns="http://www.w3.org/2000/svg" width="16.543" height="15.164" viewBox="0 0 16.543 15.164">
  <path id="add-folder-2" data-name="add-folder" d="M8.961,9.961h2.068v1.379H8.961v2.068H7.582V11.339H5.514V9.961H7.582V7.893H8.961Zm7.582-5.514V16.164H0V3.068A2.068,2.068,0,0,1,2.068,1H5.677L8.434,2.379h6.041A2.068,2.068,0,0,1,16.543,4.446ZM1.379,3.068V5.136H15.164V4.446a.689.689,0,0,0-.689-.689H8.109L5.352,2.379H2.068A.689.689,0,0,0,1.379,3.068ZM15.164,14.786V6.514H1.379v8.271Z" transform="translate(0 -1)" fill="#fff"/>
</svg>
