<svg id="apps" xmlns="http://www.w3.org/2000/svg" width="15.594" height="15.594" viewBox="0 0 15.594 15.594">
  <path id="Path_4677" data-name="Path 4677" d="M4.548,0H2.6A2.6,2.6,0,0,0,0,2.6V4.548a2.6,2.6,0,0,0,2.6,2.6H4.548a2.6,2.6,0,0,0,2.6-2.6V2.6A2.6,2.6,0,0,0,4.548,0Zm1.3,4.548a1.3,1.3,0,0,1-1.3,1.3H2.6a1.3,1.3,0,0,1-1.3-1.3V2.6A1.3,1.3,0,0,1,2.6,1.3H4.548a1.3,1.3,0,0,1,1.3,1.3Z" fill="#2d4356"/>
  <path id="Path_4678" data-name="Path 4678" d="M17.548,0H15.6A2.6,2.6,0,0,0,13,2.6V4.548a2.6,2.6,0,0,0,2.6,2.6h1.949a2.6,2.6,0,0,0,2.6-2.6V2.6A2.6,2.6,0,0,0,17.548,0Zm1.3,4.548a1.3,1.3,0,0,1-1.3,1.3H15.6a1.3,1.3,0,0,1-1.3-1.3V2.6a1.3,1.3,0,0,1,1.3-1.3h1.949a1.3,1.3,0,0,1,1.3,1.3Z" transform="translate(-4.553)" fill="#f26000"/>
  <path id="Path_4679" data-name="Path 4679" d="M4.548,13H2.6A2.6,2.6,0,0,0,0,15.6v1.949a2.6,2.6,0,0,0,2.6,2.6H4.548a2.6,2.6,0,0,0,2.6-2.6V15.6A2.6,2.6,0,0,0,4.548,13Zm1.3,4.548a1.3,1.3,0,0,1-1.3,1.3H2.6a1.3,1.3,0,0,1-1.3-1.3V15.6a1.3,1.3,0,0,1,1.3-1.3H4.548a1.3,1.3,0,0,1,1.3,1.3Z" transform="translate(0 -4.553)" fill="#2d4356"/>
  <path id="Path_4680" data-name="Path 4680" d="M17.548,13H15.6A2.6,2.6,0,0,0,13,15.6v1.949a2.6,2.6,0,0,0,2.6,2.6h1.949a2.6,2.6,0,0,0,2.6-2.6V15.6A2.6,2.6,0,0,0,17.548,13Zm1.3,4.548a1.3,1.3,0,0,1-1.3,1.3H15.6a1.3,1.3,0,0,1-1.3-1.3V15.6a1.3,1.3,0,0,1,1.3-1.3h1.949a1.3,1.3,0,0,1,1.3,1.3Z" transform="translate(-4.553 -4.553)" fill="#2d4356"/>
</svg>
