<svg id="calendar_1_" data-name="calendar(1)" xmlns="http://www.w3.org/2000/svg" width="38.37" height="38.37" viewBox="0 0 38.37 38.37">
  <path id="Path_5535" data-name="Path 5535" d="M30.376,3.2h-1.6V1.6a1.6,1.6,0,1,0-3.2,0V3.2H12.79V1.6a1.6,1.6,0,1,0-3.2,0V3.2h-1.6A8,8,0,0,0,0,11.191V30.376A8,8,0,0,0,7.994,38.37H30.376a8,8,0,0,0,7.994-7.994V11.191A8,8,0,0,0,30.376,3.2ZM3.2,11.191a4.8,4.8,0,0,1,4.8-4.8H30.376a4.8,4.8,0,0,1,4.8,4.8v1.6H3.2ZM30.376,35.173H7.994a4.8,4.8,0,0,1-4.8-4.8V15.988H35.173V30.376A4.8,4.8,0,0,1,30.376,35.173Z" fill="#fff"/>
  <circle id="Ellipse_192" data-name="Ellipse 192" cx="2.523" cy="2.523" r="2.523" transform="translate(16.662 21.423)" fill="#fff"/>
  <circle id="Ellipse_193" data-name="Ellipse 193" cx="2.523" cy="2.523" r="2.523" transform="translate(8.728 21.423)" fill="#fff"/>
  <circle id="Ellipse_194" data-name="Ellipse 194" cx="2.523" cy="2.523" r="2.523" transform="translate(24.596 21.423)" fill="#fff"/>
</svg>
