<svg version="1.2" xmlns="http://www.w3.org/2000/svg" viewBox="0 0 40 40" width="40" height="40">
	<title>call-svg</title>
	<style>
		.s0 { fill: #ffffff } 
		.s1 { fill: #f26000 } 
	</style>
	<g id="circle">
		<g id="Layer">
			<g id="Layer">
				<circle id="Ellipse_10-3" class="s0" cx="20" cy="20" r="20"/>
			</g>
			<g id="Layer">
				<circle id="Ellipse_10-4" class="s0" cx="20" cy="20" r="20"/>
			</g>
		</g>
		<path id="call_2_" fill-rule="evenodd" class="s1" d="m28.4 21.3q0.5 0.3 0.8 0.7 0.3 0.4 0.5 0.9 0.2 0.4 0.2 1v3q0 0.6-0.2 1.1-0.2 0.6-0.6 1-0.5 0.4-1 0.6-0.6 0.3-1.2 0.3h-0.4c-2-0.3-4.1-0.9-5.9-1.8-1.9-0.9-3.6-2.1-5.1-3.6-1.5-1.5-2.8-3.2-3.7-5.1-0.9-1.9-1.5-3.9-1.8-6q-0.1-0.6 0.1-1.3 0.2-0.6 0.6-1.1 0.5-0.5 1.1-0.7 0.6-0.3 1.2-0.3h3q0.6 0 1.1 0.2 0.5 0.1 0.9 0.5 0.4 0.3 0.7 0.8 0.2 0.5 0.3 1 0.1 0.3 0.1 0.7 0.1 0.1 0.1 0.3 0.1 0.2 0.1 0.3 0.1 0.2 0.1 0.4 0.1 0.1 0.1 0.3 0.2 0.3 0.2 0.7 0 0.4-0.2 0.7-0.1 0.4-0.4 0.6-0.2 0.3-0.6 0.5l-0.4 0.2q0.2 0.4 0.4 0.8 0.3 0.3 0.5 0.6 0.3 0.4 0.6 0.7 0.2 0.3 0.5 0.6 0.3 0.3 0.6 0.6 0.3 0.2 0.7 0.5 0.3 0.2 0.7 0.5 0.3 0.2 0.7 0.4l0.2-0.4q0.2-0.4 0.4-0.6 0.3-0.3 0.6-0.4 0.4-0.2 0.8-0.2 0.3 0 0.7 0.2 0.1 0 0.3 0.1 0.2 0 0.3 0.1 0.2 0 0.4 0.1 0.1 0 0.3 0 0.1 0.1 0.2 0.1 0 0 0.1 0 0.1 0 0.2 0 0.1 0.1 0.2 0.1 0.5 0.1 0.9 0.3zm-0.5 2.5q0-0.1 0-0.3-0.1-0.2-0.2-0.3-0.1-0.1-0.2-0.2-0.2-0.1-0.4-0.2-0.4 0-0.8-0.1-0.2-0.1-0.4-0.1-0.2-0.1-0.4-0.1-0.2-0.1-0.4-0.1-0.1-0.1-0.3-0.2l-0.7 1.4q0 0.2-0.2 0.3-0.1 0.2-0.3 0.2-0.2 0.1-0.4 0.1-0.2 0-0.4 0-1.1-0.6-2.2-1.3-1-0.7-1.9-1.6-0.9-0.9-1.6-2-0.8-1-1.3-2.1-0.1-0.2-0.1-0.4 0-0.2 0.1-0.4 0-0.2 0.2-0.4 0.1-0.1 0.3-0.2l1.4-0.6q-0.1-0.2-0.1-0.4-0.1-0.2-0.2-0.4 0-0.2-0.1-0.4 0-0.2-0.1-0.4-0.1-0.4-0.1-0.8 0-0.2-0.1-0.3-0.1-0.2-0.3-0.3-0.1-0.1-0.3-0.1-0.1-0.1-0.3-0.1h-3q-0.1 0-0.2 0-0.1 0.1-0.2 0.1-0.1 0.1-0.2 0.1-0.1 0.1-0.2 0.2 0 0-0.1 0.1 0 0.1-0.1 0.2 0 0.2 0 0.3 0 0.1 0 0.2c0.2 1.8 0.8 3.7 1.6 5.3 0.8 1.7 1.9 3.3 3.2 4.6 1.3 1.3 2.9 2.4 4.5 3.2 1.7 0.9 3.5 1.4 5.4 1.7q0.1 0 0.2 0 0.1 0 0.2-0.1 0.1 0 0.2-0.1 0.1 0 0.2-0.1 0.1-0.1 0.2-0.1 0-0.1 0.1-0.2 0-0.1 0-0.2 0.1-0.1 0.1-0.2z"/>
	</g>
</svg>