<svg id="Component_18_1" data-name="Component 18 – 1" xmlns="http://www.w3.org/2000/svg" width="18" height="18" viewBox="0 0 18 18">
  <rect id="Rectangle_195" data-name="Rectangle 195" width="18" height="18" rx="1" fill="#f26000"/>
  <path id="users-alt" d="M5.42,7.227A1.807,1.807,0,1,1,7.227,5.42,1.807,1.807,0,0,1,5.42,7.227Zm-2.853,0H.452A.452.452,0,0,1,0,6.775,2.72,2.72,0,0,1,2.317,4.1a.452.452,0,0,1,.5.572,2.714,2.714,0,0,0-.1.745,2.681,2.681,0,0,0,.265,1.161.452.452,0,0,1-.406.646ZM7.678,10.84H3.162a.452.452,0,0,1-.452-.452,2.71,2.71,0,0,1,5.42,0A.452.452,0,0,1,7.678,10.84ZM8.13,3.613A1.807,1.807,0,1,1,9.937,1.807,1.807,1.807,0,0,1,8.13,3.613Zm-5.42,0A1.807,1.807,0,1,1,4.517,1.807,1.807,1.807,0,0,1,2.71,3.613Zm7.678,3.613H8.273a.452.452,0,0,1-.406-.646A2.682,2.682,0,0,0,8.13,5.42a2.714,2.714,0,0,0-.107-.745.452.452,0,0,1,.5-.572A2.72,2.72,0,0,1,10.84,6.775.452.452,0,0,1,10.388,7.227Z" transform="translate(4 4)" fill="#fff"/>
</svg>
