<svg id="Component_18_1" data-name="Component 18 – 1" xmlns="http://www.w3.org/2000/svg" width="15.256" height="15" viewBox="0 0 15.256 15">
  <path id="Path_5555" data-name="Path 5555" d="M0,7.5A7.565,7.565,0,0,0,7.628,15a7.565,7.565,0,0,0,7.628-7.5A7.565,7.565,0,0,0,7.628,0,7.573,7.573,0,0,0,0,7.5Zm13.985,0a6.3,6.3,0,0,1-6.357,6.25A6.3,6.3,0,0,1,1.271,7.5,6.3,6.3,0,0,1,7.628,1.25,6.311,6.311,0,0,1,13.985,7.5Z" transform="translate(0)" fill="#2d4356"/>
  <path id="Path_5556" data-name="Path 5556" d="M13.78,9.822a1.917,1.917,0,0,1-.478,1.269c-.185.209-.365.407-.494.537l-1.8,1.835A.635.635,0,0,1,9.927,13.2a.641.641,0,0,1,.179-.628l1.8-1.84c.119-.12.28-.3.445-.485a.641.641,0,0,0,0-.845c-.164-.185-.325-.364-.441-.48l-1.8-1.844a.64.64,0,0,1,.285-1.086.634.634,0,0,1,.622.192l1.8,1.839c.127.128.305.324.489.532A1.915,1.915,0,0,1,13.78,9.822Z" transform="translate(-3.609 -2.322)" fill="#2d4356"/>
</svg>
