<svg id="calendar_1_" data-name="calendar(1)" xmlns="http://www.w3.org/2000/svg" width="40.367" height="40.367" viewBox="0 0 40.367 40.367">
  <path id="Path_5535" data-name="Path 5535" d="M31.957,3.364H30.275V1.682a1.682,1.682,0,1,0-3.364,0V3.364H13.456V1.682a1.682,1.682,0,0,0-3.364,0V3.364H8.41A8.42,8.42,0,0,0,0,11.774V31.957a8.42,8.42,0,0,0,8.41,8.41H31.957a8.42,8.42,0,0,0,8.41-8.41V11.774A8.42,8.42,0,0,0,31.957,3.364ZM3.364,11.774A5.046,5.046,0,0,1,8.41,6.728H31.957A5.046,5.046,0,0,1,37,11.774v1.682H3.364ZM31.957,37H8.41a5.046,5.046,0,0,1-5.046-5.046V16.82H37V31.957A5.046,5.046,0,0,1,31.957,37Z" fill="#2d4356"/>
  <circle id="Ellipse_192" data-name="Ellipse 192" cx="2.523" cy="2.523" r="2.523" transform="translate(17.661 22.707)" fill="#f26000"/>
  <circle id="Ellipse_193" data-name="Ellipse 193" cx="2.523" cy="2.523" r="2.523" transform="translate(9.251 22.707)" fill="#f26000"/>
  <circle id="Ellipse_194" data-name="Ellipse 194" cx="2.523" cy="2.523" r="2.523" transform="translate(26.07 22.707)" fill="#f26000"/>
</svg>
