<svg xmlns="http://www.w3.org/2000/svg" width="12.147" height="14.577" viewBox="0 0 12.147 14.577">
  <path id="Path_5597" data-name="Path 5597" d="M13.54,2.429H11.657A3.042,3.042,0,0,0,8.681,0H7.466A3.042,3.042,0,0,0,4.49,2.429H2.607a.607.607,0,0,0,0,1.215h.607v7.9a3.041,3.041,0,0,0,3.037,3.037H9.9a3.041,3.041,0,0,0,3.037-3.037v-7.9h.607a.607.607,0,0,0,0-1.215ZM7.466,1.215H8.681A1.826,1.826,0,0,1,10.4,2.429H5.748A1.826,1.826,0,0,1,7.466,1.215ZM11.718,11.54A1.822,1.822,0,0,1,9.9,13.362H6.252A1.822,1.822,0,0,1,4.429,11.54v-7.9h7.288Z" transform="translate(-2)" fill="#2d4356"/>
</svg>
