<svg id="edit" xmlns="http://www.w3.org/2000/svg" width="10.826" height="10.826" viewBox="0 0 10.826 10.826">
  <path id="Path_5600" data-name="Path 5600" d="M11.16.444l-5.5,5.5A2.24,2.24,0,0,0,5,7.538v.606a.451.451,0,0,0,.451.451h.606a2.24,2.24,0,0,0,1.595-.66l5.5-5.5a1.41,1.41,0,0,0,0-1.991,1.441,1.441,0,0,0-1.991,0ZM12.513,1.8l-5.5,5.5a1.362,1.362,0,0,1-.957.4H5.9V7.538a1.362,1.362,0,0,1,.4-.957l5.5-5.5a.518.518,0,0,1,.715,0,.507.507,0,0,1,0,.715Z" transform="translate(-2.745 -0.025)" fill="#f26000"/>
  <path id="Path_5601" data-name="Path 5601" d="M10.375,4.05a.451.451,0,0,0-.451.451V6.766H8.12A1.353,1.353,0,0,0,6.766,8.12v1.8H2.255A1.353,1.353,0,0,1,.9,8.571V2.255A1.353,1.353,0,0,1,2.255.9H6.334a.451.451,0,1,0,0-.9H2.255A2.258,2.258,0,0,0,0,2.255V8.571a2.258,2.258,0,0,0,2.255,2.255H7.372a2.241,2.241,0,0,0,1.6-.66l1.2-1.2a2.241,2.241,0,0,0,.661-1.595V4.5A.451.451,0,0,0,10.375,4.05ZM8.329,9.528a1.342,1.342,0,0,1-.661.361V8.12a.451.451,0,0,1,.451-.451H9.89a1.361,1.361,0,0,1-.361.66Z" transform="translate(0 0)" fill="#2d4356"/>
</svg>
