<svg id="folder" xmlns="http://www.w3.org/2000/svg" width="41.137" height="40.957" viewBox="0 0 41.137 40.957">
  <path id="Path_5584" data-name="Path 5584" d="M48.35,15.039v2.4H33.77A2.842,2.842,0,0,1,31,15.236L30.28,12.09H45.41a2.949,2.949,0,0,1,2.941,2.949Z" transform="translate(-11.12 -7.921)" fill="#f26000"/>
  <path id="Path_5585" data-name="Path 5585" d="M45.252,42.149H18.286a4.1,4.1,0,0,1-4.1-4.1V11.1a4.1,4.1,0,0,1,4.1-4.1h6.4a4.1,4.1,0,0,1,3.989,3.178l.942,4.1a.819.819,0,0,0,.819.639H45.252a4.1,4.1,0,0,1,4.1,4.1V31.615a1.638,1.638,0,0,1-3.277,0V18.976a.819.819,0,0,0-.819-.819H30.417a4.1,4.1,0,0,1-3.989-3.178l-.942-4.1a.819.819,0,0,0-.8-.606h-6.4a.819.819,0,0,0-.819.819V38.054a.819.819,0,0,0,.819.819H45.252a.819.819,0,0,0,.819-.819,1.638,1.638,0,0,1,3.277,0,4.1,4.1,0,0,1-4.1,4.1Z" transform="translate(-8.21 -7)" fill="#2d4356"/>
  <path id="Path_5586" data-name="Path 5586" d="M37.952,49.782H16.376A9.5,9.5,0,0,1,6.89,40.3V18.728a1.638,1.638,0,0,1,3.277,0V40.3a6.225,6.225,0,0,0,6.209,6.2H37.952a1.638,1.638,0,0,1,0,3.277Z" transform="translate(-6.89 -8.825)" fill="#2d4356"/>
</svg>
