<svg id="Component_18_1" data-name="Component 18 – 1" xmlns="http://www.w3.org/2000/svg" width="48.965" height="48.964" viewBox="0 0 48.965 48.964">
  <g id="photo-library">
    <path id="Path_5589" data-name="Path 5589" d="M46.068,6.9V36.275H16.689V6.9H46.068m0-4.9H16.689a4.911,4.911,0,0,0-4.9,4.9V36.275a4.911,4.911,0,0,0,4.9,4.9H46.068a4.911,4.911,0,0,0,4.9-4.9V6.9A4.911,4.911,0,0,0,46.068,2ZM25.258,25.674,29.4,31.207l6.072-7.589L43.62,33.827H19.138ZM2,11.793V46.067a4.911,4.911,0,0,0,4.9,4.9H41.172v-4.9H6.9V11.793Z" transform="translate(-2 -2)" fill="#2d4356"/>
  </g>
  <g id="photo-library-2" data-name="photo-library" transform="translate(16.813 21.02)">
    <path id="Path_5589-2" data-name="Path 5589" d="M22.161,21.606l4.264,5.731,6.257-7.861,8.4,10.575H15.854Z" transform="translate(-15.854 -19.476)" fill="#f26000"/>
  </g>
</svg>
