<svg xmlns="http://www.w3.org/2000/svg" width="14.84" height="14.831" viewBox="0 0 14.84 14.831">
  <path id="home" d="M14.3,5.616,9.606.925a3.1,3.1,0,0,0-4.373,0L.543,5.616A1.841,1.841,0,0,0,0,6.927V13a1.855,1.855,0,0,0,1.855,1.855h11.13A1.855,1.855,0,0,0,14.84,13V6.927A1.841,1.841,0,0,0,14.3,5.616Zm-5.021,8H5.565V11.183a1.855,1.855,0,1,1,3.71,0ZM13.6,13a.618.618,0,0,1-.618.618H10.511V11.183a3.092,3.092,0,1,0-6.183,0v2.432H1.855A.618.618,0,0,1,1.237,13V6.927a.623.623,0,0,1,.181-.437L6.108,1.8a1.86,1.86,0,0,1,2.624,0l4.69,4.691a.623.623,0,0,1,.181.435Z" transform="translate(0 -0.021)" fill="#6c757d"/>
</svg>
