<svg xmlns="http://www.w3.org/2000/svg" width="20.817" height="19.833" viewBox="0 0 20.817 19.833">
  <path id="linkdin" d="M11.816,11.136a4.954,4.954,0,0,1,4.163-1.944,4.87,4.87,0,0,1,4.771,4.983c.121,2.6.035,5.216.054,7.824,0,.626-.289.86-.889.845-.8-.02-1.612-.039-2.415.008s-1.1-.273-1.085-1.064c.031-1.771.012-3.542.009-5.314,0-.483,0-.968-.033-1.448a2.266,2.266,0,0,0-2.282-2.374,2.468,2.468,0,0,0-2.429,2.5c-.034,2.093-.014,4.186-.018,6.279,0,1.4,0,1.4-1.388,1.411-2.992.019-2.991.019-2.992-2.974,0-3.059.021-6.119-.023-9.178-.013-.886.283-1.24,1.166-1.158.511.048,1.03.005,1.545.007C11.508,9.548,11.508,9.548,11.816,11.136Zm-11.5,5c0-1.835.034-3.67-.015-5.5C.275,9.775.6,9.478,1.429,9.529c.8.049,1.609.028,2.413.011.6-.013.877.233.875.857Q4.7,16.191,4.708,21.984c0,.618-.266.873-.874.86-.869-.019-1.739-.025-2.607,0-.666.022-.917-.262-.909-.918C.339,20,.325,18.067.325,16.136ZM2.469,7.625A2.336,2.336,0,0,1,0,5.329,2.35,2.35,0,0,1,2.463,3.023,2.3,2.3,0,0,1,5,5.331,2.268,2.268,0,0,1,2.469,7.625Z" transform="translate(0 -3.023)" fill="#f26000" fill-rule="evenodd"/>
</svg>
