<svg version="1.2" xmlns="http://www.w3.org/2000/svg" viewBox="0 0 40 40" width="40" height="40">
	<title>location-svg</title>
	<style>
		.s0 { fill: #ffffff } 
		.s1 { fill: none } 
		.s2 { fill: #fd7b00 } 
	</style>
	<g id="Component_14_1">
		<g id="circle">
			<g id="Layer">
				<g id="Layer">
					<circle id="Ellipse_10-3" class="s0" cx="20" cy="20" r="20"/>
				</g>
				<g id="Layer">
					<circle id="Ellipse_10-4" class="s0" cx="20" cy="20" r="20"/>
				</g>
			</g>
		</g>
		<g id="location_on_black_24dp">
			<path id="Path_5557" class="s1" d="m8 8h24v24h-24z"/>
			<path id="Path_5558" fill-rule="evenodd" class="s2" d="m22.7 10.5q1.3 0.6 2.2 1.6 1 0.9 1.6 2.2 0.5 1.3 0.5 2.7c0 5.3-7 13-7 13 0 0-7-7.8-7-13q0-1.4 0.5-2.7 0.6-1.3 1.6-2.2 0.9-1 2.2-1.6 1.3-0.5 2.7-0.5 1.4 0 2.7 0.5zm-2.7 16.4c2.1-2.7 5-7 5-9.9 0-1.3-0.5-2.6-1.5-3.5-0.9-1-2.2-1.5-3.5-1.5-1.3 0-2.6 0.5-3.5 1.5-1 0.9-1.5 2.2-1.5 3.5 0 2.9 2.9 7.2 5 9.9z"/>
			<circle id="Ellipse_197" class="s2" cx="20" cy="17" r="2.5"/>
		</g>
	</g>
</svg>