<svg version="1.2" xmlns="http://www.w3.org/2000/svg" viewBox="0 0 40 40" width="40" height="40">
	<title>mail-svg</title>
	<style>
		.s0 { fill: #ffffff } 
		.s1 { fill: none } 
		.s2 { fill: #f26000 } 
	</style>
	<g id="circle">
		<g id="Layer">
			<g id="Layer">
				<circle id="Ellipse_10-3" class="s0" cx="20" cy="20" r="20"/>
			</g>
			<g id="Layer">
				<circle id="Ellipse_10-4" class="s0" cx="20" cy="20" r="20"/>
			</g>
		</g>
		<g id="mail">
			<path id="Path_350" class="s1" d="m28.9 15v11c0 0.5-0.2 0.8-0.4 0.8l-17.4-0.1c-0.2 0-0.4-0.2-0.4-0.7v-11.3l7.5 7.3q0.2 0.2 0.3 0.3 0.2 0.1 0.4 0.2 0.2 0.1 0.4 0.1 0.2 0.1 0.4 0.1 0.2 0 0.4 0 0.2-0.1 0.4-0.2 0.2-0.1 0.4-0.2 0.2-0.1 0.3-0.2z"/>
			<path id="Path_351" class="s1" d="m12 13.7h7.8 8l-7.8 7.1v0.1q0 0-0.1 0 0 0.1 0 0.1-0.1 0-0.1 0 0 0-0.1 0 0 0 0 0-0.1 0-0.1 0 0 0-0.1-0.1 0 0 0 0l-0.1-0.1z"/>
			<path id="Path_352" fill-rule="evenodd" class="s2" d="m29.4 12.3q0.4 0.2 0.7 0.5 0.3 0.3 0.4 0.8 0.2 0.4 0.1 0.9v11.5q0.1 0.4-0.1 0.9-0.1 0.4-0.4 0.7-0.3 0.4-0.7 0.6-0.4 0.2-0.9 0.2h-17.4q-0.5 0-0.9-0.2-0.4-0.2-0.7-0.6-0.3-0.3-0.4-0.7-0.1-0.5-0.1-0.9v-11.5q0-0.5 0.1-0.9 0.1-0.4 0.4-0.8 0.3-0.3 0.7-0.6 0.4-0.2 0.9-0.2h8.7 8.7q0.5 0.1 0.9 0.3zm-9.6 1.4h-7.8l7.4 7.1 0.1 0.1q0 0 0 0 0.1 0 0.1 0.1 0 0 0.1 0 0 0 0 0 0.1 0 0.1 0 0 0 0.1 0 0 0 0-0.1 0.1 0 0.1 0l0.1-0.1 7.7-7.1c0 0-8 0-8 0zm9.1 12.3v-11l-7.7 7.1q-0.1 0.1-0.3 0.2-0.2 0.1-0.4 0.2-0.1 0.1-0.3 0.2-0.2 0-0.5 0-0.2 0-0.4-0.1-0.2 0-0.4-0.1-0.2-0.1-0.4-0.2-0.1-0.1-0.3-0.3l-7.5-7.3v11.3c0 0.5 0.3 0.8 0.4 0.8h17.4c0.2-0.1 0.4-0.3 0.4-0.8z"/>
		</g>
	</g>
</svg>