<svg id="namaste" xmlns="http://www.w3.org/2000/svg" width="15.443" height="15.443" viewBox="0 0 15.443 15.443">
  <path id="namaste-2" data-name="namaste" d="M15.388,14.412l-1.709-1.981a.84.84,0,0,0-.414-1.483c0-.009,0-.019.006-.029a.84.84,0,0,0-1.31-.833l-.19.133-.69-.8a.225.225,0,0,1-.052-.183l0-.011L11.356,6.3a1.582,1.582,0,0,0-.1-.85l-.006-.013L8.8.414A.679.679,0,0,0,7.721.175.679.679,0,0,0,6.64.414L4.193,5.44l-.006.013a1.582,1.582,0,0,0-.1.85l.325,2.923,0,.011a.225.225,0,0,1-.052.183l-.69.8-.19-.133a.84.84,0,0,0-1.31.833c0,.01,0,.019.006.029a.84.84,0,0,0-.414,1.483L.054,14.412a.226.226,0,0,0,.343.3l1.738-2.014L4.284,14.2l-.725.872a.226.226,0,1,0,.348.289l.749-.9.247.173a.84.84,0,0,0,1.31-.833c0-.01,0-.019-.006-.029a.84.84,0,0,0,.366-1.519l-.051-.036,1.1-1.318a1.455,1.455,0,0,0,.1-.145,1.447,1.447,0,0,0,.1.144L8.9,12.231l-.031.022a.84.84,0,0,0,.366,1.519c0,.01,0,.019-.006.029a.84.84,0,0,0,1.31.833l.193-.135.695.86a.226.226,0,1,0,.352-.284l-.675-.836,2.2-1.545,1.738,2.014a.226.226,0,1,0,.343-.3ZM5.7,14.168a.388.388,0,0,1-.54.095L2.072,12.1a.388.388,0,0,1,.445-.635h0l.258.181,0,0,2.494,1.748.007,0,.33.231a.388.388,0,0,1,.095.54Zm.705-1.005a.388.388,0,0,1-.54.095L3.032,11.27l0,0-.252-.176a.388.388,0,1,1,.445-.635l.355.249.006,0,2.73,1.914a.388.388,0,0,1,.095.54ZM7.495,5.275a1.129,1.129,0,0,0-1.1,1.01L6.189,8.214a.226.226,0,1,0,.45.048l.206-1.929a.677.677,0,0,1,.651-.606V9.973a1.012,1.012,0,0,1-.227.638L6.15,11.956,4.044,10.48l.66-.765a.676.676,0,0,0,.157-.545L4.536,6.247V6.236a1.13,1.13,0,0,1,.069-.6L7.05.606,7.056.593A.228.228,0,0,1,7.495.68Zm.68,5.337a1.013,1.013,0,0,1-.228-.639V5.727a.677.677,0,0,1,.651.606L8.8,8.262a.226.226,0,0,0,.45-.048L9.048,6.286a1.129,1.129,0,0,0-1.1-1.01V.68A.228.228,0,0,1,8.387.593l.006.013,2.447,5.025a1.13,1.13,0,0,1,.069.6v.011L10.581,9.17a.676.676,0,0,0,.157.545l.66.765L9.272,11.97Zm.859,2.551a.388.388,0,0,1,.095-.54l2.73-1.914.005,0,.355-.249a.388.388,0,1,1,.445.635L9.877,13.046l-.005,0-.3.208a.388.388,0,0,1-.54-.095Zm4.5-1.317a.385.385,0,0,1-.159.25L10.28,14.263a.388.388,0,0,1-.445-.635l3.091-2.167h0a.388.388,0,0,1,.6.385Z" transform="translate(0 0)" fill="#fff"/>
</svg>
