<svg id="Component_3_1" data-name="Component 3 – 1" xmlns="http://www.w3.org/2000/svg" width="15.858" height="15.858" viewBox="0 0 15.858 15.858">
  <path id="map-marker" d="M13.651,6.051l-.475-.158A5.281,5.281,0,1,0,2.7,6.008a3.334,3.334,0,0,0-1.684.859A3.268,3.268,0,0,0,0,9.251v2.693a3.312,3.312,0,0,0,2.379,3.172l1.9.595a3.291,3.291,0,0,0,.984.149,3.354,3.354,0,0,0,.9-.123l3.819-1.13a1.974,1.974,0,0,1,1.039,0l1.577.529a2.643,2.643,0,0,0,3.268-2.566v-3.4A3.314,3.314,0,0,0,13.651,6.05ZM5.126,2.486A3.97,3.97,0,0,1,10.739,8.1L8.392,10.385a.655.655,0,0,1-.918,0L5.126,8.112a3.991,3.991,0,0,1,0-5.626Zm9.411,10.083a1.316,1.316,0,0,1-.5,1.039,1.3,1.3,0,0,1-1.074.261l-1.55-.521a3.319,3.319,0,0,0-1.8-.011L5.791,14.466a1.982,1.982,0,0,1-1.119-.019l-1.912-.595a1.991,1.991,0,0,1-1.438-1.908V9.251a1.959,1.959,0,0,1,.608-1.429,2,2,0,0,1,1.1-.533A5.3,5.3,0,0,0,4.2,9.053l2.357,2.282a1.971,1.971,0,0,0,2.758,0l2.354-2.288a5.261,5.261,0,0,0,1.2-1.864l.355.118a1.986,1.986,0,0,1,1.316,1.867Z" transform="translate(0 0)" fill="#2d4356"/>
  <g id="Ellipse_34" data-name="Ellipse 34" transform="translate(6 3)" fill="none" stroke="#f26000" stroke-width="1">
    <circle cx="2" cy="2" r="2" stroke="none"/>
    <circle cx="2" cy="2" r="1.5" fill="none"/>
  </g>
</svg>
