<svg id="photo-library" xmlns="http://www.w3.org/2000/svg" width="49.293" height="30.95" viewBox="0 0 49.293 30.95">
  <g id="video" transform="translate(0 0)">
    <path id="Path_5592" data-name="Path 5592" d="M35.475,33.213a1.962,1.962,0,0,1-.8-.172l-13.54-6.153a1.935,1.935,0,0,1,1.6-3.522l10.805,4.909V14.939l-5,2.273a1.935,1.935,0,0,1-1.6-3.522l7.737-3.517a1.934,1.934,0,0,1,2.735,1.762V31.278A1.934,1.934,0,0,1,35.475,33.213Z" transform="translate(11.883 -6.132)" fill="#f26000"/>
    <path id="Path_5593" data-name="Path 5593" d="M33.107,38.95H8.645A5.726,5.726,0,0,1,3,33.146V13.8A5.726,5.726,0,0,1,8.645,8H33.107a5.726,5.726,0,0,1,5.645,5.8V33.146A5.726,5.726,0,0,1,33.107,38.95ZM8.645,11.869A1.909,1.909,0,0,0,6.763,13.8V33.146a1.909,1.909,0,0,0,1.882,1.934H33.107a1.909,1.909,0,0,0,1.882-1.934V13.8a1.909,1.909,0,0,0-1.882-1.934Z" transform="translate(-3 -8)" fill="#2d4356"/>
  </g>
</svg>
