<svg id="Component_7_1" data-name="Component 7 – 1" xmlns="http://www.w3.org/2000/svg" width="15.193" height="12.15" viewBox="0 0 15.193 12.15">
  <path id="eye_1_" data-name="eye(1)" d="M17.126,9.771C15.592,6.21,12.706,4,9.593,4s-6,2.21-7.533,5.771a.759.759,0,0,0,0,.608C3.594,13.94,6.48,16.15,9.593,16.15s6-2.21,7.533-5.771A.759.759,0,0,0,17.126,9.771Zm-7.533,4.86c-2.407,0-4.685-1.739-6-4.556,1.314-2.817,3.592-4.556,6-4.556s4.685,1.739,6,4.556C14.278,12.892,12,14.631,9.593,14.631Zm0-7.594a3.038,3.038,0,1,0,3.038,3.038A3.038,3.038,0,0,0,9.593,7.038Zm0,4.556a1.519,1.519,0,1,1,1.519-1.519A1.519,1.519,0,0,1,9.593,11.594Z" transform="translate(-1.997 -4)" fill="#2d4356"/>
  <circle id="Ellipse_152" data-name="Ellipse 152" cx="3.5" cy="3.5" r="3.5" transform="translate(4 3)" fill="#fff"/>
  <g id="Ellipse_151" data-name="Ellipse 151" transform="translate(5 4)" fill="none" stroke="#f26000" stroke-width="1.5">
    <circle cx="2.5" cy="2.5" r="2.5" stroke="none"/>
    <circle cx="2.5" cy="2.5" r="1.75" fill="none"/>
  </g>
</svg>
