<svg id="Layer_2" data-name="Layer 2" xmlns="http://www.w3.org/2000/svg" width="13" height="13" viewBox="0 0 13 13">
  <g id="star">
    <rect id="Rectangle_131" data-name="Rectangle 131" width="13" height="13" transform="translate(13) rotate(90)" fill="#ffbc57" opacity="0"/>
    <path id="Path_5516" data-name="Path 5516" d="M10.318,12.134a.533.533,0,0,1-.245-.059L7.352,10.651,4.631,12.076a.533.533,0,0,1-.774-.565l.533-3-2.2-2.134a.525.525,0,0,1,.3-.9l3.041-.443L6.872,2.3a.533.533,0,0,1,.96,0L9.187,5.028l3.041.443a.525.525,0,0,1,.3.9L10.329,8.5l.533,3a.528.528,0,0,1-.544.63Z" transform="translate(-0.95 -0.931)" fill="#ffbc57"/>
  </g>
</svg>
