<svg id="yoga-01" xmlns="http://www.w3.org/2000/svg" width="41.82" height="41.848" viewBox="0 0 41.82 41.848">
  <g id="Component_18_1" data-name="Component 18 – 1" transform="translate(0.009 2.677)">
    <g id="Group_259" data-name="Group 259" transform="translate(-0.019 -2.701)">
      <path id="Path_5544" data-name="Path 5544" d="M.09,40.907a4.055,4.055,0,0,0,.23-1.29A20.71,20.71,0,0,1,10.562,24.625c.2-.121.3-.139.418.1.273.546.566,1.084.89,1.6.175.277.047.348-.166.473a17.94,17.94,0,0,0-6.114,5.77A18.153,18.153,0,0,0,2.6,44.11a17.837,17.837,0,0,0,1.18,5.225c.11.282.076.393-.214.5-.548.194-1.086.423-1.617.662-.24.108-.333.074-.431-.179A21.586,21.586,0,0,1,.177,44.7c-.01-.1.054-.224-.086-.284v-.326c.056-.051.038-.118.043-.181v-.292c0-.062.013-.13-.043-.18V42.46a.831.831,0,0,0,0-.572v-.245c.05-.045.04-.106.043-.164s.008-.118-.043-.164C.09,41.18.09,41.043.09,40.907Z" transform="translate(-0.071 -21.837)" fill="#f26000"/>
    </g>
  </g>
  <path id="Path_5545" data-name="Path 5545" d="M.09,183.42a.47.47,0,0,1,0,.572Z" transform="translate(-0.081 -163.395)" fill="#2d4356"/>
  <path id="Path_5546" data-name="Path 5546" d="M.09,178.18c.1.021.078.093.069.161q-.031.059-.069,0Q.09,178.262.09,178.18Z" transform="translate(-0.081 -158.727)" fill="#2d4356"/>
  <path id="Path_5547" data-name="Path 5547" d="M.09,179.653q.034,0,.069,0c.015.071.019.138-.069.167Q.09,179.735.09,179.653Z" transform="translate(-0.081 -160.036)" fill="#2d4356"/>
  <path id="Path_5548" data-name="Path 5548" d="M.09,197.64a.143.143,0,0,1,.071.167c-.025.032-.049.033-.071,0Q.09,197.722.09,197.64Z" transform="translate(-0.081 -176.062)" fill="#2d4356"/>
  <path id="Path_5549" data-name="Path 5549" d="M.09,199.13l.072,0,0,.165c-.025.033-.048.029-.069,0Q.09,199.212.09,199.13Z" transform="translate(-0.081 -177.389)" fill="#2d4356"/>
  <path id="Path_5550" data-name="Path 5550" d="M.09,200.63l.069,0v.163c-.025.034-.048.031-.069,0Q.09,200.712.09,200.63Z" transform="translate(-0.081 -178.726)" fill="#2d4356"/>
  <path id="Path_5551" data-name="Path 5551" d="M.09,202.13l.069,0c.01.068.031.14-.069.159C.09,202.239.09,202.185.09,202.13Z" transform="translate(-0.081 -180.062)" fill="#2d4356"/>
  <path id="Path_5552" data-name="Path 5552" d="M286.406,42.723a21.378,21.378,0,0,1-1.4,7.575c-.12.318-.241.369-.544.225a15.754,15.754,0,0,0-1.54-.638c-.29-.1-.324-.213-.214-.494a17.1,17.1,0,0,0,1.228-6.936A18.147,18.147,0,0,0,274.858,26.9c-.3-.188-.377-.31-.174-.626a14.492,14.492,0,0,0,.809-1.459c.131-.268.239-.264.477-.123a20.764,20.764,0,0,1,9.367,11.5A20.427,20.427,0,0,1,286.406,42.723Z" transform="translate(-244.59 -21.918)" fill="#f26000"/>
  <path id="Path_5553" data-name="Path 5553" d="M41.83,39.7c0-.233-.062-.294-.293-.292-1.225.011-2.449.005-3.674.005H36.156c.382-.425.738-.792,1.061-1.185a10.658,10.658,0,0,0,2.222-5.815c.021-.194-.085-.187-.212-.2-.58-.073-1.157-.17-1.738-.226a19.035,19.035,0,0,0-8.347,1.029.352.352,0,0,1-.435-.076,8.553,8.553,0,0,1-2.391-5.25,1.066,1.066,0,0,1,.177.066A11.95,11.95,0,0,0,34.08,29.4c.275-.026.318-.117.319-.36a27.2,27.2,0,0,0-.168-3.465,11.837,11.837,0,0,0-4.267-7.992c-1.1-.908-2.313-1.675-3.41-2.59a5.3,5.3,0,0,1-1.675-2.171.548.548,0,0,1,.062-.593,10.136,10.136,0,0,0,1.333-2.464,8.582,8.582,0,0,0,.665-4.743A6.117,6.117,0,0,0,14.81,6.249,10.78,10.78,0,0,0,16.887,12.2a.586.586,0,0,1,.075.626,4.832,4.832,0,0,1-1.192,1.732,28.567,28.567,0,0,1-2.837,2.195,13.885,13.885,0,0,0-3.368,3.351C7.711,22.874,7.395,26,7.448,29.21c0,.161.087.162.2.173a12.353,12.353,0,0,0,6.042-.785,18.348,18.348,0,0,0,1.837-.928,8.617,8.617,0,0,1-2.351,5.224.4.4,0,0,1-.5.111c-.578-.194-1.161-.381-1.751-.532a20.189,20.189,0,0,0-8.056-.319c-.427.063-.47.2-.424.6a10.214,10.214,0,0,0,2.613,5.982c.2.213.426.4.64.6-.02.026-.039.054-.06.08H.02c0,.694.019,1.39-.009,2.083-.012.308.07.376.376.376q20.719-.013,41.439-.008C41.824,41.143,41.816,40.421,41.83,39.7ZM21.165,2.492a3.7,3.7,0,0,1,3.406,4.133A8.963,8.963,0,0,1,22.6,11.249c-1.128,1.376-2.232,1.368-3.37.005a9.106,9.106,0,0,1-1.985-5.076A3.684,3.684,0,0,1,21.165,2.492Zm-9.954,24.3c-.237.058-.479.1-.721.131-.547.075-.553.072-.509-.5a9.91,9.91,0,0,1,4.45-7.739,28.94,28.94,0,0,0,2.727-2.071,7.358,7.358,0,0,0,1.735-2.142c.108-.211.2-.213.4-.119a3.65,3.65,0,0,0,3.263.007c.117-.055.234-.194.354.043a9.986,9.986,0,0,0,3.28,3.4c.791.578,1.591,1.14,2.338,1.775a9.416,9.416,0,0,1,3.253,6.157c.041.31.049.625.1.933s-.064.324-.326.292a9.778,9.778,0,0,1-4.834-2.1,13.182,13.182,0,0,1-4.034-5.094,5.055,5.055,0,0,1-.533-2.362c.013-.227-.057-.311-.293-.3-.311.021-.626.005-.938.005v0a2.658,2.658,0,0,0-1.086.031c-.352.175-.1.652-.169.993a10.54,10.54,0,0,1-2.514,4.778A11.286,11.286,0,0,1,11.211,26.791Zm.547,12.626a4.018,4.018,0,0,1-.971-.086,7.419,7.419,0,0,1-5.4-4.679c-.1-.256-.032-.293.209-.3a17,17,0,0,1,12.719,5.061C16.048,39.414,13.9,39.412,11.758,39.417Zm9.427-1.041c-.188.218-.289.277-.514.017a18.209,18.209,0,0,0-5.028-4.042c-.313-.171-.236-.272-.066-.487a10.8,10.8,0,0,0,2.362-7.959.491.491,0,0,1,.141-.435,19.372,19.372,0,0,0,2.8-3.635c.13-.019.144.086.18.147a17.945,17.945,0,0,0,2.53,3.292.992.992,0,0,1,.3.855A10.8,10.8,0,0,0,26.3,33.914l.2.254a19.563,19.563,0,0,0-2.313,1.458A18.312,18.312,0,0,0,21.185,38.376ZM30.7,39.4a2.106,2.106,0,0,1-.407.011H23.547A16.927,16.927,0,0,1,33.363,34.5a18.924,18.924,0,0,1,2.888-.152c.238,0,.312.043.209.3A7.428,7.428,0,0,1,30.7,39.4Z" transform="translate(-0.01 -0.024)" fill="#2d4356"/>
</svg>
